{
.appVersion = "939";
copyright = "Copyright 2013 The Arvo Project Authors (anton@korkork.com), with Reserved Font Name \"Arvo\".";
customParameters = (
{
name = license;
value = "This Font Software is licensed under the SIL Open Font License, Version 1.1. This license is available with a FAQ at: http://scripts.sil.org/OFL";
},
{
name = vendorID;
value = KORK;
},
{
name = licenseURL;
value = "http://scripts.sil.org/OFL";
},
{
name = fsType;
value = (
);
},
{
name = "Use Typo Metrics";
value = 1;
},
{
name = "Disable Last Change";
value = 1;
},
{
name = "Use Line Breaks";
value = 1;
}
);
date = "2016-08-13 21:52:47 +0000";
designer = "Anton Koovit (Cyrillic Expansion: Cyreal)";
designerURL = "http://anton.korkork.com";
disablesNiceNames = 1;
familyName = Arvo;
featurePrefixes = (
{
automatic = 1;
code = "languagesystem DFLT dflt;
languagesystem latn dflt;
languagesystem cyrl dflt;
languagesystem cyrl SRB;
languagesystem cyrl MKD;
languagesystem cyrl BGR;
";
name = Languagesystems;
}
);
features = (
{
automatic = 1;
code = "feature ccmp;
feature locl;
feature subs;
feature sups;
feature frac;
feature ordn;
feature salt;
feature ss01;
";
name = aalt;
},
{
automatic = 1;
code = "lookup ccmp_Other_1 {
	@CombiningTopAccents = [acutecomb brevecomb caroncomb circumflexcomb dieresiscomb dotaccentcomb gravecomb hookabovecomb hungarumlautcomb macroncomb ringcomb tildecomb];
	@CombiningNonTopAccents = [cedillacomb dotbelowcomb ogonekcomb horncomb strokeshortcomb];
	sub [i]' @CombiningTopAccents by [idotless];
	sub [i]' @CombiningNonTopAccents @CombiningTopAccents by [idotless];
} ccmp_Other_1;

lookup ccmp_latn_1 {
	script latn;
	lookupflag 0;
	sub brevecomb acutecomb by brevecomb_acutecomb;
	sub brevecomb gravecomb by brevecomb_gravecomb;
	sub brevecomb hookabovecomb by brevecomb_hookabovecomb;
	sub brevecomb tildecomb by brevecomb_tildecomb;
	sub circumflexcomb acutecomb by circumflexcomb_acutecomb;
	sub circumflexcomb gravecomb by circumflexcomb_gravecomb;

glyphs = (
{
glyphname = A;
layers = (
{
anchors = (
{
name = top;
position = "{401, 740}";
}
);
layerId = "EEC59083-BA83-4EFB-8B50-D01213A5FD15";
paths = (
{
closed = 1;
nodes = (
"372 0 LINE",
"612 0 LINE",
"631 84 LINE",
"558 84 LINE",
"481 740 LINE",
"323 740 LINE",
"-48 84 LINE",
"-112 84 LINE",
"-131 0 LINE",
"109 0 LINE",
"128 84 LINE",
"61 84 LINE",
"154 251 LINE",
"435 251 LINE",
"453 84 LINE",
"391 84 LINE"
);
},
{
closed = 1;
nodes = (
"389 671 LINE",
"425 335 LINE",
"201 335 LINE"
);
}
);
width = 711;
},
{
anchors = (
{
name = top;
position = "{419, 740}";
}
);
layerId = "8956C7A5-95B5-4256-B2D2-E489185594C4";
paths = (
{
closed = 1;
nodes = (
"354 0 LINE",
"653 0 LINE",
"684 134 LINE",
"590 134 LINE",
"535 740 LINE",
"322 740 LINE",
"-15 134 LINE",
"-77 134 LINE",
"-108 0 LINE",
"191 0 LINE",
"222 134 LINE",
"160 134 LINE",
"214 236 LINE",
"418 236 LINE",
"426 134 LINE",
"385 134 LINE"
);
},
{
closed = 1;
nodes = (
"393 573 LINE",
"408 377 LINE",
"289 377 LINE"
);
}
);
width = 722;
}
);
leftKerningGroup = A;
rightKerningGroup = A;
unicode = 0041;
},
{
color = 6;
glyphname = Aogonek;
layers = (
{
background = {
paths = (
{
closed = 1;
nodes = (
"-77 134 LINE",
"-15 134 LINE",
"322 740 LINE",
"535 740 LINE",
"590 134 LINE",
"684 134 LINE",
"653 0 LINE",
"558 0 LINE",
"513 0 LINE",
"443 -19 LINE",
"396 -50 LINE",
"371 -87 LINE",
"371 -105 LINE",
"371 -124 LINE",
"395 -138 LINE",
"406 -138 LINE",
"425 -138 LINE",
"451 -132 LINE",
"461 -127 LINE",
"485 -210 LINE",
"474 -216 LINE",
"424 -230 LINE",
"398 -230 LINE",
"368 -230 LINE",
"317 -216 LINE",
"278 -190 LINE",
"256 -152 LINE",
"256 -127 LINE",
"256 -85 LINE",
"314 -22 LINE",
"354 0 LINE",
"385 134 LINE",
"426 134 LINE",
"418 236 LINE",
"214 236 LINE",
"160 134 LINE",
"222 134 LINE",
"191 0 LINE",
"-108 0 LINE"
);
},
{
closed = 1;
nodes = (
"289 377 LINE",
"407 377 LINE",
"393 573 LINE"
);
},
{
closed = 1;
nodes = (
"-58 760 LINE",
"664 760 LINE",
"664 0 LINE",
"-58 0 LINE"
);
}
);
};
layerId = "8956C7A5-95B5-4256-B2D2-E489185594C4";
paths = (
{
closed = 1;
nodes = (
"478 47 LINE",
"404 31 OFFCURVE",
"256 -27 OFFCURVE",
"256 -127 CURVE SMOOTH",
"256 -193 OFFCURVE",
"319 -230 OFFCURVE",
"398 -230 CURVE SMOOTH",
"433 -230 OFFCURVE",
"471 -218 OFFCURVE",
"485 -210 CURVE",
"461 -127 LINE",
"448 -133 OFFCURVE",
"431 -138 OFFCURVE",
"406 -138 CURVE SMOOTH",
"392 -138 OFFCURVE",
"371 -130 OFFCURVE",
"371 -105 CURVE SMOOTH",
"371 -57 OFFCURVE",
"438 0 OFFCURVE",
"558 0 CURVE"
);
},
{
closed = 1;
nodes = (
"-108 0 LINE",
"191 0 LINE",
"222 134 LINE",
"-77 134 LINE"
);
},
{
closed = 1;
nodes = (
"354 0 LINE",
"653 0 LINE",
"684 134 LINE",
"385 134 LINE"
);
},
{
closed = 1;
nodes = (
"115 236 LINE",
"471 236 LINE",
"445 377 LINE",
"200 377 LINE"
);
},
{
closed = 1;
nodes = (
"-31 104 LINE",
"144 104 LINE",
"393 573 LINE",
"428 106 LINE",
"593 106 LINE",
"535 740 LINE",
"322 740 LINE"
);
}
);
width = 722;
},
{
background = {
paths = (
{
closed = 1;
nodes = (
"-77 134 LINE",
"-15 134 LINE",
"322 740 LINE",
"535 740 LINE",
"590 134 LINE",
"684 134 LINE",
"653 0 LINE",
"558 0 LINE",
"513 0 LINE",
"443 -19 LINE",
"396 -50 LINE",
"371 -87 LINE",
"371 -105 LINE",
"371 -124 LINE",
"395 -138 LINE",
"406 -138 LINE",
"425 -138 LINE",
"451 -132 LINE",
"461 -127 LINE",
"485 -210 LINE",
"474 -216 LINE",
"424 -230 LINE",
"398 -230 LINE",
"368 -230 LINE",
"317 -216 LINE",
"278 -190 LINE",
"256 -152 LINE",
"256 -127 LINE",
"256 -85 LINE",
"314 -22 LINE",
"354 0 LINE",
"385 134 LINE",
"426 134 LINE",
"418 236 LINE",
"214 236 LINE",
"160 134 LINE",
"222 134 LINE",
"191 0 LINE",
"-108 0 LINE"
);
},
{
closed = 1;
nodes = (
"289 377 LINE",
"407 377 LINE",
"393 573 LINE"
);
},
{
closed = 1;
nodes = (
"-58 760 LINE",
"664 760 LINE",
"664 0 LINE",
"-58 0 LINE"
);
}
);
};
layerId = "EEC59083-BA83-4EFB-8B50-D01213A5FD15";
paths = (
{
closed = 1;
nodes = (
"462 39 LINE",
"405 24 OFFCURVE",
"289 -27 OFFCURVE",
"289 -127 CURVE SMOOTH",
"289 -193 OFFCURVE",
"347 -230 OFFCURVE",
"426 -230 CURVE SMOOTH",
"463 -230 OFFCURVE",
"496 -219 OFFCURVE",
"513 -209 CURVE",
"492 -147 LINE",
"479 -153 OFFCURVE",
"454 -158 OFFCURVE",
"429 -158 CURVE SMOOTH",
"396 -158 OFFCURVE",
"374 -137 OFFCURVE",
"374 -110 CURVE SMOOTH",
"374 -61 OFFCURVE",
"438 -1 OFFCURVE",
"546 0 CURVE"
);
},
{
closed = 1;
nodes = (
"-131 0 LINE",
"109 0 LINE",
"128 84 LINE",
"-112 84 LINE"
);
},
{
closed = 1;
nodes = (
"372 0 LINE",
"612 0 LINE",
"631 84 LINE",
"391 84 LINE"
);
},
{
closed = 1;
nodes = (
"120 251 LINE",
"484 251 LINE",
"471 335 LINE",
"168 335 LINE"
);
},
{
closed = 1;
nodes = (
"-73 40 LINE",
"37 40 LINE",
"389 671 LINE",
"458 42 LINE",
"563 42 LINE",
"481 740 LINE",
"323 740 LINE"
);
}
);
width = 711;
}
);
leftKerningGroup = A;
rightKerningGroup = A;
unicode = 0104;
},
{
glyphname = AE;
layers = (
{
layerId = "EEC59083-BA83-4EFB-8B50-D01213A5FD15";
paths = (
{
closed = 1;
nodes = (
"98 0 LINE",
"104 28 OFFCURVE",
"110 56 OFFCURVE",
"117 84 CURVE",
"57 84 LINE",
"98 140 OFFCURVE",
"139 195 OFFCURVE",
"180 251 CURVE",
"381 251 LINE",
"369 195 OFFCURVE",
"356 140 OFFCURVE",
"343 84 CURVE",
"278 84 LINE",
"272 56 OFFCURVE",
"265 28 OFFCURVE",
"259 0 CURVE",
"789 0 LINE",
"805 71 OFFCURVE",
"821 141 OFFCURVE",
"838 212 CURVE",
"736 212 LINE",
"726 169 OFFCURVE",
"716 126 OFFCURVE",
"706 84 CURVE",
"445 84 LINE",
"464 167 OFFCURVE",
"483 251 OFFCURVE",
"503 335 CURVE",
"719 335 LINE",
"726 363 OFFCURVE",
"733 391 OFFCURVE",
"740 419 CURVE",
"522 419 LINE",
"540 498 OFFCURVE",
"558 577 OFFCURVE",
"576 656 CURVE",
"840 656 LINE",
"830 613 OFFCURVE",
"820 571 OFFCURVE",
"810 529 CURVE",
"911 529 LINE",
"927 599 OFFCURVE",
"943 670 OFFCURVE",
"960 740 CURVE",
"422 740 LINE",
"261 521 OFFCURVE",
"100 303 OFFCURVE",
"-61 84 CURVE",
"-123 84 LINE",
"-130 56 OFFCURVE",
"-136 28 OFFCURVE",
"-142 0 CURVE"
);
},
{
closed = 1;
nodes = (
"242 335 LINE",
"319 439 OFFCURVE",
"396 544 OFFCURVE",
"473 648 CURVE",
"449 544 OFFCURVE",
"425 439 OFFCURVE",
"401 335 CURVE"
);
}
);
width = 972;
},
{
layerId = "8956C7A5-95B5-4256-B2D2-E489185594C4";
paths = (
{
closed = 1;
nodes = (
"202 0 LINE",
"212 44 OFFCURVE",
"223 89 OFFCURVE",
"233 134 CURVE",
"162 134 LINE",
"188 168 OFFCURVE",
"215 202 OFFCURVE",
"241 236 CURVE",
"438 236 LINE",
"424 177 OFFCURVE",
"410 118 OFFCURVE",
"397 59 CURVE",
"397 59 LINE",
"392 40 OFFCURVE",
"387 20 OFFCURVE",
"383 0 CURVE",
"918 0 LINE",
"939 88 OFFCURVE",
"959 177 OFFCURVE",
"979 265 CURVE",
"808 265 LINE",
"798 221 OFFCURVE",
"788 178 OFFCURVE",
"778 134 CURVE",
"585 134 LINE",
"598 191 OFFCURVE",
"611 248 OFFCURVE",
"625 305 CURVE",
"789 305 LINE",
"800 353 OFFCURVE",
"811 399 OFFCURVE",
"822 447 CURVE",
"657 447 LINE",
"670 500 OFFCURVE",
"682 553 OFFCURVE",
"694 606 CURVE",
"900 606 LINE",
"891 566 OFFCURVE",
"882 527 OFFCURVE",
"873 488 CURVE",
"1044 488 LINE",
"1064 572 OFFCURVE",
"1083 656 OFFCURVE",
"1102 740 CURVE",
"442 740 LINE",
"285 538 OFFCURVE",
"127 336 OFFCURVE",
"-30 134 CURVE",
"-97 134 LINE",
"-107 89 OFFCURVE",
"-118 44 OFFCURVE",
"-128 0 CURVE"
);
},
{
closed = 1;
nodes = (
"351 377 LINE",
"407 450 OFFCURVE",
"464 523 OFFCURVE",
"521 596 CURVE",
"504 523 OFFCURVE",
"487 450 OFFCURVE",
"470 377 CURVE"
);
}
);
width = 1070;
}
);
leftKerningGroup = A;
rightKerningGroup = E;
unicode = 00C6;
},
{
glyphname = B;
layers = (
{
anchors = (
{
name = top;
position = "{409, 740}";
}
);
layerId = "EEC59083-BA83-4EFB-8B50-D01213A5FD15";
paths = (
{
closed = 1;
nodes = (
"-14 0 LINE",
"322 0 LINE SMOOTH",
"469 0 OFFCURVE",
"587 90 OFFCURVE",
"587 227 CURVE SMOOTH",
"587 287 OFFCURVE",
"562 336 OFFCURVE",
"520 368 CURVE",
"605 401 OFFCURVE",
"655 470 OFFCURVE",
"655 562 CURVE SMOOTH",
"655 666 OFFCURVE",
"592 740 OFFCURVE",
"481 740 CURVE SMOOTH",
"150 740 LINE",
"130 656 LINE",
"202 656 LINE",
"70 84 LINE",
"5 84 LINE"
);
},
{
closed = 1;
nodes = (
"393 329 LINE",
"446 329 OFFCURVE",
"481 285 OFFCURVE",
"481 219 CURVE SMOOTH",
"481 143 OFFCURVE",
"424 84 OFFCURVE",
"336 84 CURVE SMOOTH",
"172 84 LINE",
"228 329 LINE"
);
},
{
closed = 1;
nodes = (
"461 656 LINE",
"520 656 OFFCURVE",
"549 608 OFFCURVE",
"549 547 CURVE SMOOTH",
"549 468 OFFCURVE",
"487 414 OFFCURVE",
"409 414 CURVE SMOOTH",
"248 414 LINE",
"303 656 LINE"
);
}
);
width = 732;
},
{
anchors = (
{
name = top;
position = "{432, 740}";
}
);
layerId = "8956C7A5-95B5-4256-B2D2-E489185594C4";
paths = (
{
closed = 1;
nodes = (
"-20 0 LINE",
"370 0 LINE SMOOTH",
"541 0 OFFCURVE",
"650 81 OFFCURVE",
"650 242 CURVE SMOOTH",
"650 291 OFFCURVE",
"631 333 OFFCURVE",
"593 365 CURVE",
"679 405 OFFCURVE",
"710 478 OFFCURVE",
"710 553 CURVE SMOOTH",
"710 660 OFFCURVE",
"641 740 OFFCURVE",
"516 740 CURVE SMOOTH",
"142 740 LINE",
"111 606 LINE",
"195 606 LINE",
"86 134 LINE",
"11 134 LINE"
);
},
{
closed = 1;
nodes = (
"417 306 LINE",
"461 306 OFFCURVE",
"484 277 OFFCURVE",
"484 239 CURVE SMOOTH",
"484 177 OFFCURVE",
"446 134 OFFCURVE",
"378 134 CURVE SMOOTH",
"257 134 LINE",
"297 306 LINE"
);
},
{
closed = 1;
nodes = (
"474 606 LINE",
"521 606 OFFCURVE",
"545 573 OFFCURVE",
"545 534 CURVE SMOOTH",
"545 477 OFFCURVE",
"500 440 OFFCURVE",
"441 440 CURVE SMOOTH",
"328 440 LINE",
"367 606 LINE"
);
}
);
width = 740;
}
);
leftKerningGroup = I;
rightKerningGroup = B;
unicode = 0042;
},
{
glyphname = C;
layers = (
{
anchors = (
{
name = bottom;
position = "{341, 0}";
},
{
name = top;
position = "{494, 740}";
}
);
layerId = "EEC59083-BA83-4EFB-8B50-D01213A5FD15";
paths = (
{
closed = 1;
nodes = (
"615 207 LINE",
"559 126 OFFCURVE",
"485 85 OFFCURVE",
"387 85 CURVE SMOOTH",
"275 85 OFFCURVE",
"174 178 OFFCURVE",
"174 328 CURVE SMOOTH",
"174 508 OFFCURVE",
"301 657 OFFCURVE",
"473 657 CURVE SMOOTH",
"563 657 OFFCURVE",
"631 611 OFFCURVE",
"659 544 CURVE",
"794 544 LINE",
"814 628 LINE",
"737 628 LINE",
"683 706 OFFCURVE",
"593 754 OFFCURVE",
"484 754 CURVE SMOOTH",
"243 754 OFFCURVE",
"65 565 OFFCURVE",
"65 320 CURVE SMOOTH",
"65 130 OFFCURVE",
"198 -12 OFFCURVE",
"376 -12 CURVE SMOOTH",
"525 -12 OFFCURVE",
"633 51 OFFCURVE",
"709 157 CURVE"
);
}
);
width = 717;
},
{
anchors = (
{
name = bottom;
position = "{359, 0}";
},
{
name = top;
position = "{518, 740}";
}
);
layerId = "8956C7A5-95B5-4256-B2D2-E489185594C4";
paths = (
{
closed = 1;
nodes = (
"558 244 LINE",
"522 191 OFFCURVE",
"469 149 OFFCURVE",
"397 149 CURVE SMOOTH",
"307 149 OFFCURVE",
"250 216 OFFCURVE",
"250 313 CURVE SMOOTH",
"250 457 OFFCURVE",
"364 590 OFFCURVE",
"497 590 CURVE SMOOTH",
"560 590 OFFCURVE",
"604 559 OFFCURVE",
"621 515 CURVE",
"811 515 LINE",
"842 649 LINE",
"749 649 LINE",
"700 713 OFFCURVE",
"623 754 OFFCURVE",
"518 754 CURVE SMOOTH",
"296 754 OFFCURVE",
"73 574 OFFCURVE",
"73 297 CURVE SMOOTH",
"73 111 OFFCURVE",
"201 -15 OFFCURVE",
"378 -15 CURVE SMOOTH",
"525 -15 OFFCURVE",
"639 51 OFFCURVE",
"713 167 CURVE"
);
}
);
width = 729;
}
);
leftKerningGroup = O;
rightKerningGroup = C;
unicode = 0043;
},
{
color = 6;
glyphname = Cacute;
layers = (
{
background = {
paths = (
{
closed = 1;
nodes = (
"474 590 LINE",
"441 590 LINE",
"378 569 LINE",
"323 531 LINE",
"278 479 LINE",
"245 418 LINE",
"227 349 LINE",
"227 313 LINE",
"227 276 LINE",
"248 216 LINE",
"286 173 LINE",
"340 149 LINE",
"374 149 LINE",
"401 149 LINE",
"448 164 LINE",
"488 189 LINE",
"521 224 LINE",
"535 244 LINE",
"690 167 LINE",
"634 79 LINE",
"466 -15 LINE",
"355 -15 LINE",
"289 -15 LINE",
"177 30 LINE",
"95 112 LINE",
"50 227 LINE",
"50 297 LINE",
"50 366 LINE",
"85 488 LINE",
"147 589 LINE",
"231 669 LINE",
"331 725 LINE",
"439 754 LINE",
"495 754 LINE",
"540 754 LINE",
"615 735 LINE",
"677 701 LINE",
"715 664 LINE",
"726 649 LINE",
"819 649 LINE",
"788 515 LINE",
"598 515 LINE",
"585 548 LINE",
"521 590 LINE"
);
},
{
closed = 1;
nodes = (
"364 921 LINE",
"523 921 LINE",
"523 909 LINE",
"374 769 LINE",
"259 769 LINE"
);
},
{
closed = 1;
nodes = (
"0 760 LINE",
"729 760 LINE",
"729 0 LINE",
"0 0 LINE"
);
}
);
};
components = (
{
name = C;
},
{
name = acute;
transform = "{1, 0, 0, 1, 347, 234}";
}
);
layerId = "8956C7A5-95B5-4256-B2D2-E489185594C4";
width = 729;
},
{
background = {
paths = (
{
closed = 1;
nodes = (
"474 590 LINE",
"441 590 LINE",
"378 569 LINE",
"323 531 LINE",
"278 479 LINE",
"245 418 LINE",
"227 349 LINE",
"227 313 LINE",
"227 276 LINE",
"248 216 LINE",
"286 173 LINE",
"340 149 LINE",
"374 149 LINE",
"401 149 LINE",
"448 164 LINE",
"488 189 LINE",
"521 224 LINE",
"535 244 LINE",
"690 167 LINE",
"634 79 LINE",
"466 -15 LINE",
"355 -15 LINE",
"289 -15 LINE",
"177 30 LINE",
"95 112 LINE",
"50 227 LINE",
"50 297 LINE",
"50 366 LINE",
"85 488 LINE",
"147 589 LINE",
"231 669 LINE",
"331 725 LINE",
"439 754 LINE",
"495 754 LINE",
"540 754 LINE",
"615 735 LINE",
"677 701 LINE",
"715 664 LINE",
"726 649 LINE",
"819 649 LINE",
"788 515 LINE",
"598 515 LINE",
"585 548 LINE",
"521 590 LINE"
);
},
{
closed = 1;
nodes = (
"364 921 LINE",
"523 921 LINE",
"523 909 LINE",
"374 769 LINE",
"259 769 LINE"
);
},
{
closed = 1;
nodes = (
"0 760 LINE",
"729 760 LINE",
"729 0 LINE",
"0 0 LINE"
);
}
);
};
components = (
{
name = C;
},
{
name = acute;
transform = "{1, 0, 0, 1, 320, 234}";
}
);
layerId = "EEC59083-BA83-4EFB-8B50-D01213A5FD15";
width = 717;
}
);
leftKerningGroup = O;
rightKerningGroup = C;
unicode = 0106;
},
{
glyphname = D;
layers = (
{
anchors = (
{
name = top;
position = "{477, 740}";
}
);
layerId = "EEC59083-BA83-4EFB-8B50-D01213A5FD15";
paths = (
{
closed = 1;
nodes = (
"130 656 LINE",
"194 656 LINE",
"62 84 LINE",
"-2 84 LINE",
"-21 0 LINE",
"261 0 LINE SMOOTH",
"509 0 OFFCURVE",
"701 171 OFFCURVE",
"701 427 CURVE SMOOTH",
"701 599 OFFCURVE",
"591 740 OFFCURVE",
"418 740 CURVE SMOOTH",
"150 740 LINE"
);
},
{
closed = 1;
nodes = (
"405 656 LINE",
"520 656 OFFCURVE",
"594 545 OFFCURVE",
"594 419 CURVE SMOOTH",
"594 217 OFFCURVE",
"434 84 OFFCURVE",
"272 84 CURVE SMOOTH",
"164 84 LINE",
"295 656 LINE"
);
}
);
width = 762;
},
{
anchors = (
{
name = top;
position = "{446, 740}";
}
);
layerId = "8956C7A5-95B5-4256-B2D2-E489185594C4";
paths = (
{
closed = 1;
nodes = (
"112 606 LINE",
"188 606 LINE",
"79 134 LINE",
"3 134 LINE",
"-28 0 LINE",
"280 0 LINE SMOOTH",
"574 0 OFFCURVE",
"746 193 OFFCURVE",
"746 436 CURVE SMOOTH",
"746 629 OFFCURVE",
"619 740 OFFCURVE",
"440 740 CURVE SMOOTH",
"143 740 LINE"
);
},
{
closed = 1;
nodes = (
"411 606 LINE",
"493 606 OFFCURVE",
"568 558 OFFCURVE",
"568 422 CURVE SMOOTH",
"568 264 OFFCURVE",
"444 134 OFFCURVE",
"302 134 CURVE SMOOTH",
"250 134 LINE",
"359 606 LINE"
);
}
);
width = 774;
}
);
leftKerningGroup = I;
rightKerningGroup = O;
unicode = 0044;
},
{
color = 6;
glyphname = Dcaron;
layers = (
{
background = {
paths = (
{
closed = 1;
nodes = (
"201 740 LINE",
"498 740 LINE",
"565 740 LINE",
"677 699 LINE",
"759 622 LINE",
"804 508 LINE",
"804 436 LINE",
"804 375 LINE",
"776 263 LINE",
"721 167 LINE",
"641 87 LINE",
"538 31 LINE",
"411 0 LINE",
"338 0 LINE",
"30 0 LINE",
"61 134 LINE",
"137 134 LINE",
"246 606 LINE",
"170 606 LINE"
);
},
{
closed = 1;
nodes = (
"417 606 LINE",
"308 134 LINE",
"360 134 LINE",
"396 134 LINE",
"462 155 LINE",
"521 192 LINE",
"571 245 LINE",
"606 309 LINE",
"626 382 LINE",
"626 422 LINE",
"626 473 LINE",
"600 543 LINE",
"557 587 LINE",
"500 606 LINE",
"469 606 LINE"
);
},
{
closed = 1;
nodes = (
"589 928 LINE",
"415 770 LINE",
"298 770 LINE",
"202 928 LINE",
"323 928 LINE",
"370 852 LINE",
"454 928 LINE"
);
},
{
closed = 1;
nodes = (
"0 760 LINE",
"774 760 LINE",
"774 0 LINE",
"0 0 LINE"
);
}
);
};
components = (
{
name = D;
},
{
name = caron;
transform = "{1, 0, 0, 1, 95, 234}";
}
);
layerId = "8956C7A5-95B5-4256-B2D2-E489185594C4";
width = 774;
},
{
background = {
paths = (
{
closed = 1;
nodes = (
"201 740 LINE",
"498 740 LINE",
"565 740 LINE",
"677 699 LINE",
"759 622 LINE",
"804 508 LINE",
"804 436 LINE",
"804 375 LINE",
"776 263 LINE",
"721 167 LINE",
"641 87 LINE",
"538 31 LINE",
"411 0 LINE",
"338 0 LINE",
"30 0 LINE",
"61 134 LINE",
"137 134 LINE",
"246 606 LINE",
"170 606 LINE"
);
},
{
closed = 1;
nodes = (
"417 606 LINE",
"308 134 LINE",
"360 134 LINE",
"396 134 LINE",
"462 155 LINE",
"521 192 LINE",
"571 245 LINE",
"606 309 LINE",
"626 382 LINE",
"626 422 LINE",
"626 473 LINE",
"600 543 LINE",
"557 587 LINE",
"500 606 LINE",
"469 606 LINE"
);
},
{
closed = 1;
nodes = (
"589 928 LINE",
"415 770 LINE",
"298 770 LINE",
"202 928 LINE",
"323 928 LINE",
"370 852 LINE",
"454 928 LINE"
);
},
{
closed = 1;
nodes = (
"0 760 LINE",
"774 760 LINE",
"774 0 LINE",
"0 0 LINE"
);
}
);
};
components = (
{
name = D;
},
{
name = caron;
transform = "{1, 0, 0, 1, 186, 234}";
}
);
layerId = "EEC59083-BA83-4EFB-8B50-D01213A5FD15";
width = 762;
}
);
leftKerningGroup = I;
rightKerningGroup = D;
unicode = 010E;
},
{
glyphname = E;
layers = (
{
anchors = (
{
name = bottom;
position = "{287, 0}";
},
{
name = ogonek;
position = "{563, 10}";
},
{
name = top;
position = "{467, 740}";
},
{
name = topleft;
position = "{132, 740}";
}
);
layerId = "EEC59083-BA83-4EFB-8B50-D01213A5FD15";
paths = (
{
closed = 1;
nodes = (
"130 656 LINE",
"202 656 LINE",
"70 84 LINE",
"5 84 LINE",
"-14 0 LINE",
"516 0 LINE",
"565 212 LINE",
"463 212 LINE",
"433 84 LINE",
"172 84 LINE",
"230 335 LINE",
"446 335 LINE",
"467 419 LINE",
"249 419 LINE",
"303 656 LINE",
"567 656 LINE",
"537 529 LINE",
"638 529 LINE",
"687 740 LINE",
"150 740 LINE"
);
}
);
width = 690;
},
{
anchors = (
{
name = bottom;
position = "{310, 0}";
},
{
name = ogonek;
position = "{603, 10}";
},
{
name = top;
position = "{512, 740}";
},
{
name = topleft;
position = "{132, 740}";
}
);
layerId = "8956C7A5-95B5-4256-B2D2-E489185594C4";
paths = (
{
closed = 1;
nodes = (
"111 606 LINE",
"196 606 LINE",
"87 134 LINE",
"11 134 LINE",
"-20 0 LINE",
"591 0 LINE",
"652 265 LINE",
"481 265 LINE",
"451 134 LINE",
"258 134 LINE",
"298 305 LINE",
"462 305 LINE",
"495 447 LINE",
"330 447 LINE",
"367 606 LINE",
"573 606 LINE",
"546 488 LINE",
"717 488 LINE",
"775 740 LINE",
"142 740 LINE"
);
}
);
width = 735;
}
);
leftKerningGroup = I;
rightKerningGroup = E;
unicode = 0045;
},
{
color = 6;
glyphname = Ecaron;
layers = (
{
background = {
paths = (
{
closed = 1;
nodes = (
"192 740 LINE",
"825 740 LINE",
"767 488 LINE",
"596 488 LINE",
"623 606 LINE",
"417 606 LINE",
"380 447 LINE",
"545 447 LINE",
"512 305 LINE",
"348 305 LINE",
"308 134 LINE",
"501 134 LINE",
"531 265 LINE",
"702 265 LINE",
"641 0 LINE",
"30 0 LINE",
"61 134 LINE",
"137 134 LINE",
"246 606 LINE",
"161 606 LINE"
);
},
{
closed = 1;
nodes = (
"764 968 LINE",
"590 810 LINE",
"473 810 LINE",
"377 968 LINE",
"498 968 LINE",
"545 892 LINE",
"629 968 LINE"
);
},
{
closed = 1;
nodes = (
"0 760 LINE",
"735 760 LINE",
"735 0 LINE",
"0 0 LINE"
);
}
);
};
components = (
{
name = E;
},
{
name = caron;
transform = "{1, 0, 0, 1, 161, 234}";
}
);
layerId = "8956C7A5-95B5-4256-B2D2-E489185594C4";
width = 735;
},
{
background = {
paths = (
{
closed = 1;
nodes = (
"192 740 LINE",
"825 740 LINE",
"767 488 LINE",
"596 488 LINE",
"623 606 LINE",
"417 606 LINE",
"380 447 LINE",
"545 447 LINE",
"512 305 LINE",
"348 305 LINE",
"308 134 LINE",
"501 134 LINE",
"531 265 LINE",
"702 265 LINE",
"641 0 LINE",
"30 0 LINE",
"61 134 LINE",
"137 134 LINE",
"246 606 LINE",
"161 606 LINE"
);
},
{
closed = 1;
nodes = (
"764 968 LINE",
"590 810 LINE",
"473 810 LINE",
"377 968 LINE",
"498 968 LINE",
"545 892 LINE",
"629 968 LINE"
);
},
{
closed = 1;
nodes = (
"0 760 LINE",
"735 760 LINE",
"735 0 LINE",
"0 0 LINE"
);
}
);
};
components = (
{
name = E;
},
{
name = caron;
transform = "{1, 0, 0, 1, 176, 234}";
}
);
layerId = "EEC59083-BA83-4EFB-8B50-D01213A5FD15";
width = 690;
}
);
leftKerningGroup = I;
rightKerningGroup = E;
unicode = 011A;
},
{
color = 6;
glyphname = Edotaccent;
layers = (
{
background = {
paths = (
{
closed = 1;
nodes = (
"192 740 LINE",
"825 740 LINE",
"767 488 LINE",
"596 488 LINE",
"623 606 LINE",
"417 606 LINE",
"380 447 LINE",
"545 447 LINE",
"512 305 LINE",
"348 305 LINE",
"308 134 LINE",
"501 134 LINE",
"531 265 LINE",
"702 265 LINE",
"641 0 LINE",
"30 0 LINE",
"61 134 LINE",
"137 134 LINE",
"246 606 LINE",
"161 606 LINE"
);
},
{
closed = 1;
nodes = (
"437 903 LINE",
"437 921 LINE",
"451 953 LINE",
"474 977 LINE",
"506 990 LINE",
"524 990 LINE",
"542 990 LINE",
"573 977 LINE",
"597 953 LINE",
"610 921 LINE",
"610 903 LINE",
"610 885 LINE",
"597 854 LINE",
"573 830 LINE",
"542 816 LINE",
"524 816 LINE",
"506 816 LINE",
"474 830 LINE",
"451 854 LINE",
"437 885 LINE"
);
},
{
closed = 1;
nodes = (
"0 760 LINE",
"735 760 LINE",
"735 0 LINE",
"0 0 LINE"
);
}
);
};
components = (
{
name = E;
},
{
name = dotaccent;
transform = "{1, 0, 0, 1, 278, 234}";
}
);
layerId = "8956C7A5-95B5-4256-B2D2-E489185594C4";
width = 735;
},
{
background = {
paths = (
{
closed = 1;
nodes = (
"192 740 LINE",
"825 740 LINE",
"767 488 LINE",
"596 488 LINE",
"623 606 LINE",
"417 606 LINE",
"380 447 LINE",
"545 447 LINE",
"512 305 LINE",
"348 305 LINE",
"308 134 LINE",
"501 134 LINE",
"531 265 LINE",
"702 265 LINE",
"641 0 LINE",
"30 0 LINE",
"61 134 LINE",
"137 134 LINE",
"246 606 LINE",
"161 606 LINE"
);
},
{
closed = 1;
nodes = (
"437 903 LINE",
"437 921 LINE",
"451 953 LINE",
"474 977 LINE",
"506 990 LINE",
"524 990 LINE",
"542 990 LINE",
"573 977 LINE",
"597 953 LINE",
"610 921 LINE",
"610 903 LINE",
"610 885 LINE",
"597 854 LINE",
"573 830 LINE",
"542 816 LINE",
"524 816 LINE",
"506 816 LINE",
"474 830 LINE",
"451 854 LINE",
"437 885 LINE"
);
},
{
closed = 1;
nodes = (
"0 760 LINE",
"735 760 LINE",
"735 0 LINE",
"0 0 LINE"
);
}
);
};
components = (
{
name = E;
},
{
name = dotaccent;
transform = "{1, 0, 0, 1, 252, 234}";
}
);
layerId = "EEC59083-BA83-4EFB-8B50-D01213A5FD15";
width = 690;
}
);
leftKerningGroup = I;
rightKerningGroup = E;
unicode = 0116;
},
{
color = 6;
glyphname = Emacron;
layers = (
{
background = {
paths = (
{
closed = 1;
nodes = (
"192 740 LINE",
"825 740 LINE",
"767 488 LINE",
"596 488 LINE",
"623 606 LINE",
"417 606 LINE",
"380 447 LINE",
"545 447 LINE",
"512 305 LINE",
"348 305 LINE",
"308 134 LINE",
"501 134 LINE",
"531 265 LINE",
"702 265 LINE",
"641 0 LINE",
"30 0 LINE",
"61 134 LINE",
"137 134 LINE",
"246 606 LINE",
"161 606 LINE"
);
},
{
closed = 1;
nodes = (
"697 809 LINE",
"361 809 LINE",
"361 914 LINE",
"697 914 LINE"
);
},
{
closed = 1;
nodes = (
"0 760 LINE",
"735 760 LINE",
"735 0 LINE",
"0 0 LINE"
);
}
);
};
components = (
{
name = E;
},
{
name = macron;
transform = "{1, 0, 0, 1, 230, 234}";
}
);
layerId = "8956C7A5-95B5-4256-B2D2-E489185594C4";
width = 735;
},
{
background = {
paths = (
{
closed = 1;
nodes = (
"192 740 LINE",
"825 740 LINE",
"767 488 LINE",
"596 488 LINE",
"623 606 LINE",
"417 606 LINE",
"380 447 LINE",
"545 447 LINE",
"512 305 LINE",
"348 305 LINE",
"308 134 LINE",
"501 134 LINE",
"531 265 LINE",
"702 265 LINE",
"641 0 LINE",
"30 0 LINE",
"61 134 LINE",
"137 134 LINE",
"246 606 LINE",
"161 606 LINE"
);
},
{
closed = 1;
nodes = (
"697 809 LINE",
"361 809 LINE",
"361 914 LINE",
"697 914 LINE"
);
},
{
closed = 1;
nodes = (
"0 760 LINE",
"735 760 LINE",
"735 0 LINE",
"0 0 LINE"
);
}
);
};
components = (
{
name = E;
},
{
name = macroncomb;
transform = "{1, 0, 0, 1, 222, 234}";
}
);
layerId = "EEC59083-BA83-4EFB-8B50-D01213A5FD15";
width = 690;
}
);
leftKerningGroup = I;
rightKerningGroup = E;
unicode = 0112;
},
{
color = 6;
glyphname = Eogonek;
layers = (
{
background = {
paths = (
{
closed = 1;
nodes = (
"142 740 LINE",
"775 740 LINE",
"717 488 LINE",
"546 488 LINE",
"573 606 LINE",
"367 606 LINE",
"330 447 LINE",
"495 447 LINE",
"462 305 LINE",
"297 305 LINE",
"258 134 LINE",
"451 134 LINE",
"481 265 LINE",
"652 265 LINE",
"591 0 LINE",
"590 0 LINE",
"549 0 LINE",
"487 -20 LINE",
"446 -52 LINE",
"425 -89 LINE",
"425 -105 LINE",
"425 -124 LINE",
"449 -138 LINE",
"460 -138 LINE",
"479 -138 LINE",
"505 -132 LINE",
"515 -127 LINE",
"539 -210 LINE",
"528 -216 LINE",
"478 -230 LINE",
"452 -230 LINE",
"422 -230 LINE",
"371 -216 LINE",
"332 -190 LINE",
"310 -152 LINE",
"310 -127 LINE",
"310 -88 LINE",
"364 -23 LINE",
"402 0 LINE",
"-20 0 LINE",
"11 134 LINE",
"87 134 LINE",
"196 606 LINE",
"111 606 LINE"
);
},
{
closed = 1;
nodes = (
"-50 760 LINE",
"685 760 LINE",
"685 0 LINE",
"-50 0 LINE"
);
}
);
};
layerId = "8956C7A5-95B5-4256-B2D2-E489185594C4";
paths = (
{
closed = 1;
nodes = (
"548 47 LINE",
"467 47 OFFCURVE",
"310 -27 OFFCURVE",
"310 -127 CURVE SMOOTH",
"310 -193 OFFCURVE",
"373 -230 OFFCURVE",
"452 -230 CURVE SMOOTH",
"487 -230 OFFCURVE",
"525 -218 OFFCURVE",
"539 -210 CURVE",
"515 -127 LINE",
"502 -133 OFFCURVE",
"485 -138 OFFCURVE",
"460 -138 CURVE SMOOTH",
"446 -138 OFFCURVE",
"425 -130 OFFCURVE",
"425 -105 CURVE SMOOTH",
"425 -61 OFFCURVE",
"481 0 OFFCURVE",
"590 0 CURVE"
);
},
{
closed = 1;
nodes = (
"241 61 LINE",
"381 665 LINE",
"210 665 LINE",
"70 61 LINE"
);
},
{
closed = 1;
nodes = (
"111 606 LINE",
"573 606 LINE",
"546 488 LINE",
"717 488 LINE",
"775 740 LINE",
"142 740 LINE"
);
},
{
closed = 1;
nodes = (
"-20 0 LINE",
"591 0 LINE",
"652 265 LINE",
"481 265 LINE",
"451 134 LINE",
"11 134 LINE"
);
},
{
closed = 1;
nodes = (
"232 305 LINE",
"462 305 LINE",
"495 447 LINE",
"265 447 LINE"
);
}
);
width = 735;
},
{
background = {
paths = (
{
closed = 1;
nodes = (
"141 740 LINE",
"774 740 LINE",
"716 488 LINE",
"545 488 LINE",
"572 606 LINE",
"366 606 LINE",
"329 447 LINE",
"494 447 LINE",
"461 305 LINE",
"296 305 LINE",
"257 134 LINE",
"450 134 LINE",
"480 265 LINE",
"651 265 LINE",
"590 0 LINE",
"589 0 LINE",
"548 0 LINE",
"486 -20 LINE",
"445 -52 LINE",
"424 -89 LINE",
"424 -105 LINE",
"424 -124 LINE",
"448 -138 LINE",
"459 -138 LINE",
"478 -138 LINE",
"504 -132 LINE",
"514 -127 LINE",
"538 -210 LINE",
"527 -216 LINE",
"477 -230 LINE",
"451 -230 LINE",
"421 -230 LINE",
"370 -216 LINE",
"331 -190 LINE",
"309 -152 LINE",
"309 -127 LINE",
"309 -88 LINE",
"363 -23 LINE",
"401 0 LINE",
"-21 0 LINE",
"10 134 LINE",
"86 134 LINE",
"195 606 LINE",
"110 606 LINE"
);
},
{
closed = 1;
nodes = (
"-51 760 LINE",
"684 760 LINE",
"684 0 LINE",
"-51 0 LINE"
);
}
);
};
layerId = "EEC59083-BA83-4EFB-8B50-D01213A5FD15";
paths = (
{
closed = 1;
nodes = (
"440 39 LINE",
"354 22 OFFCURVE",
"267 -27 OFFCURVE",
"267 -127 CURVE SMOOTH",
"267 -193 OFFCURVE",
"325 -230 OFFCURVE",
"404 -230 CURVE SMOOTH",
"441 -230 OFFCURVE",
"474 -219 OFFCURVE",
"491 -209 CURVE",
"470 -147 LINE",
"457 -153 OFFCURVE",
"432 -158 OFFCURVE",
"407 -158 CURVE SMOOTH",
"374 -158 OFFCURVE",
"352 -137 OFFCURVE",
"352 -110 CURVE SMOOTH",
"352 -61 OFFCURVE",
"416 0 OFFCURVE",
"515 0 CURVE"
);
},
{
closed = 1;
nodes = (
"165 52 LINE",
"310 684 LINE",
"209 684 LINE",
"63 52 LINE"
);
},
{
closed = 1;
nodes = (
"130 656 LINE",
"567 656 LINE",
"537 529 LINE",
"638 529 LINE",
"687 740 LINE",
"150 740 LINE"
);
},
{
closed = 1;
nodes = (
"-14 0 LINE",
"516 0 LINE",
"565 212 LINE",
"463 212 LINE",
"433 84 LINE",
"5 84 LINE"
);
},
{
closed = 1;
nodes = (
"184 335 LINE",
"446 335 LINE",
"467 419 LINE",
"204 419 LINE"
);
}
);
width = 690;
}
);
leftKerningGroup = I;
rightKerningGroup = E;
unicode = 0118;
},
{
glyphname = F;
layers = (
{
anchors = (
{
name = top;
position = "{419, 740}";
}
);
layerId = "EEC59083-BA83-4EFB-8B50-D01213A5FD15";
paths = (
{
closed = 1;
nodes = (
"130 656 LINE",
"202 656 LINE",
"70 84 LINE",
"7 84 LINE",
"-12 0 LINE",
"228 0 LINE",
"247 84 LINE",
"172 84 LINE",
"229 334 LINE",
"485 334 LINE",
"504 418 LINE",
"249 418 LINE",
"303 656 LINE",
"572 656 LINE",
"544 531 LINE",
"640 531 LINE",
"688 740 LINE",
"150 740 LINE"
);
}
);
width = 649;
},
{
anchors = (
{
name = top;
position = "{485, 740}";
}
);
layerId = "8956C7A5-95B5-4256-B2D2-E489185594C4";
paths = (
{
closed = 1;
nodes = (
"111 606 LINE",
"216 606 LINE",
"107 134 LINE",
"33 134 LINE",
"2 0 LINE",
"332 0 LINE",
"363 134 LINE",
"278 134 LINE",
"315 294 LINE",
"492 294 LINE",
"525 436 LINE",
"348 436 LINE",
"388 606 LINE",
"578 606 LINE",
"551 488 LINE",
"721 488 LINE",
"779 740 LINE",
"142 740 LINE"
);
}
);
width = 708;
}
);
leftKerningGroup = I;
rightKerningGroup = F;
unicode = 0046;
},
{
glyphname = G;
layers = (
{
anchors = (
{
name = bottom;
position = "{385, 0}";
},
{
name = top;
position = "{482, 740}";
}
);
layerId = "EEC59083-BA83-4EFB-8B50-D01213A5FD15";
paths = (
{
closed = 1;
nodes = (
"690 0 LINE",
"770 354 LINE",
"456 354 LINE",
"436 268 LINE",
"642 268 LINE",
"598 153 OFFCURVE",
"506 85 OFFCURVE",
"387 85 CURVE SMOOTH",
"270 85 OFFCURVE",
"174 186 OFFCURVE",
"174 328 CURVE SMOOTH",
"174 509 OFFCURVE",
"298 657 OFFCURVE",
"473 657 CURVE SMOOTH",
"563 657 OFFCURVE",
"631 611 OFFCURVE",
"659 544 CURVE",
"794 544 LINE",
"814 628 LINE",
"737 628 LINE",
"695 691 OFFCURVE",
"608 754 OFFCURVE",
"484 754 CURVE SMOOTH",
"241 754 OFFCURVE",
"65 562 OFFCURVE",
"65 320 CURVE SMOOTH",
"65 134 OFFCURVE",
"197 -12 OFFCURVE",
"376 -12 CURVE SMOOTH",
"471 -12 OFFCURVE",
"557 27 OFFCURVE",
"616 108 CURVE",
"592 0 LINE"
);
}
);
width = 789;
},
{
anchors = (
{
name = bottom;
position = "{380, 0}";
},
{
name = top;
position = "{527, 740}";
}
);
layerId = "8956C7A5-95B5-4256-B2D2-E489185594C4";
paths = (
{
closed = 1;
nodes = (
"722 0 LINE",
"814 395 LINE",
"470 395 LINE",
"439 261 LINE",
"595 261 LINE",
"567 194 OFFCURVE",
"487 144 OFFCURVE",
"406 144 CURVE SMOOTH",
"315 144 OFFCURVE",
"260 216 OFFCURVE",
"260 313 CURVE SMOOTH",
"260 457 OFFCURVE",
"374 593 OFFCURVE",
"507 593 CURVE SMOOTH",
"571 593 OFFCURVE",
"616 556 OFFCURVE",
"633 515 CURVE",
"823 515 LINE",
"854 649 LINE",
"767 649 LINE",
"719 711 OFFCURVE",
"628 754 OFFCURVE",
"528 754 CURVE SMOOTH",
"306 754 OFFCURVE",
"83 574 OFFCURVE",
"83 297 CURVE SMOOTH",
"83 111 OFFCURVE",
"213 -15 OFFCURVE",
"383 -15 CURVE SMOOTH",
"467 -15 OFFCURVE",
"550 29 OFFCURVE",
"602 111 CURVE",
"576 0 LINE"
);
}
);
width = 769;
}
);
leftKerningGroup = O;
rightKerningGroup = C;
unicode = 0047;
},
{
color = 6;
glyphname = Gbreve;
layers = (
{
background = {
paths = (
{
closed = 1;
nodes = (
"553 0 LINE",
"579 111 LINE",
"560 80 LINE",
"498 21 LINE",
"407 -15 LINE",
"360 -15 LINE",
"296 -15 LINE",
"187 30 LINE",
"106 112 LINE",
"60 227 LINE",
"60 297 LINE",
"60 366 LINE",
"95 488 LINE",
"157 589 LINE",
"242 669 LINE",
"340 725 LINE",
"449 754 LINE",
"505 754 LINE",
"543 754 LINE",
"615 738 LINE",
"678 709 LINE",
"728 670 LINE",
"744 649 LINE",
"831 649 LINE",
"800 515 LINE",
"610 515 LINE",
"604 530 LINE",
"581 559 LINE",
"548 580 LINE",
"508 593 LINE",
"484 593 LINE",
"434 593 LINE",
"344 546 LINE",
"277 468 LINE",
"237 367 LINE",
"237 313 LINE",
"237 276 LINE",
"257 215 LINE",
"294 169 LINE",
"349 144 LINE",
"383 144 LINE",
"415 144 LINE",
"476 163 LINE",
"527 197 LINE",
"562 239 LINE",
"572 261 LINE",
"416 261 LINE",
"447 395 LINE",
"791 395 LINE",
"699 0 LINE"
);
},
{
closed = 1;
nodes = (
"488 799 LINE",
"441 799 LINE",
"371 820 LINE",
"319 860 LINE",
"284 919 LINE",
"272 957 LINE",
"395 957 LINE",
"405 928 LINE",
"451 897 LINE",
"488 897 LINE",
"523 897 LINE",
"568 925 LINE",
"580 957 LINE",
"702 957 LINE",
"691 919 LINE",
"656 861 LINE",
"604 820 LINE",
"534 799 LINE"
);
},
{
closed = 1;
nodes = (
"0 760 LINE",
"769 760 LINE",
"769 0 LINE",
"0 0 LINE"
);
}
);
};
components = (
{
name = G;
},
{
name = brevecomb;
transform = "{1, 0, 0, 1, 314, 234}";
}
);
layerId = "8956C7A5-95B5-4256-B2D2-E489185594C4";
width = 769;
},
{
background = {
paths = (
{
closed = 1;
nodes = (
"553 0 LINE",
"579 111 LINE",
"560 80 LINE",
"498 21 LINE",
"407 -15 LINE",
"360 -15 LINE",
"296 -15 LINE",
"187 30 LINE",
"106 112 LINE",
"60 227 LINE",
"60 297 LINE",
"60 366 LINE",
"95 488 LINE",
"157 589 LINE",
"242 669 LINE",
"340 725 LINE",
"449 754 LINE",
"505 754 LINE",
"543 754 LINE",
"615 738 LINE",
"678 709 LINE",
"728 670 LINE",
"744 649 LINE",
"831 649 LINE",
"800 515 LINE",
"610 515 LINE",
"604 530 LINE",
"581 559 LINE",
"548 580 LINE",
"508 593 LINE",
"484 593 LINE",
"434 593 LINE",
"344 546 LINE",
"277 468 LINE",
"237 367 LINE",
"237 313 LINE",
"237 276 LINE",
"257 215 LINE",
"294 169 LINE",
"349 144 LINE",
"383 144 LINE",
"415 144 LINE",
"476 163 LINE",
"527 197 LINE",
"562 239 LINE",
"572 261 LINE",
"416 261 LINE",
"447 395 LINE",
"791 395 LINE",
"699 0 LINE"
);
},
{
closed = 1;
nodes = (
"488 799 LINE",
"441 799 LINE",
"371 820 LINE",
"319 860 LINE",
"284 919 LINE",
"272 957 LINE",
"395 957 LINE",
"405 928 LINE",
"451 897 LINE",
"488 897 LINE",
"523 897 LINE",
"568 925 LINE",
"580 957 LINE",
"702 957 LINE",
"691 919 LINE",
"656 861 LINE",
"604 820 LINE",
"534 799 LINE"
);
},
{
closed = 1;
nodes = (
"0 760 LINE",
"769 760 LINE",
"769 0 LINE",
"0 0 LINE"
);
}
);
};
components = (
{
name = G;
},
{
name = brevecomb;
transform = "{1, 0, 0, 1, 189, 234}";
}
);
layerId = "EEC59083-BA83-4EFB-8B50-D01213A5FD15";
width = 789;
}
);
leftKerningGroup = O;
rightKerningGroup = G;
unicode = 011E;
},
{
color = 6;
glyphname = Gcommaaccent;
layers = (
{
background = {
paths = (
{
closed = 1;
nodes = (
"553 0 LINE",
"579 111 LINE",
"560 80 LINE",
"498 21 LINE",
"407 -15 LINE",
"360 -15 LINE",
"296 -15 LINE",
"187 30 LINE",
"106 112 LINE",
"60 227 LINE",
"60 297 LINE",
"60 366 LINE",
"95 488 LINE",
"157 589 LINE",
"242 669 LINE",
"340 725 LINE",
"449 754 LINE",
"505 754 LINE",
"543 754 LINE",
"615 738 LINE",
"678 709 LINE",
"728 670 LINE",
"744 649 LINE",
"831 649 LINE",
"800 515 LINE",
"610 515 LINE",
"604 530 LINE",
"581 559 LINE",
"548 580 LINE",
"508 593 LINE",
"484 593 LINE",
"434 593 LINE",
"344 546 LINE",
"277 468 LINE",
"237 367 LINE",
"237 313 LINE",
"237 276 LINE",
"257 215 LINE",
"294 169 LINE",
"349 144 LINE",
"383 144 LINE",
"415 144 LINE",
"476 163 LINE",
"527 197 LINE",
"562 239 LINE",
"572 261 LINE",
"416 261 LINE",
"447 395 LINE",
"791 395 LINE",
"699 0 LINE"
);
},
{
closed = 1;
nodes = (
"342 -14 LINE",
"483 -65 LINE",
"387 -230 LINE",
"286 -195 LINE"
);
},
{
closed = 1;
nodes = (
"0 760 LINE",
"769 760 LINE",
"769 0 LINE",
"0 0 LINE"
);
}
);
};
components = (
{
name = G;
},
{
name = commaaccentcomb;
transform = "{1, 0, 0, 1, 334, 0}";
}
);
layerId = "8956C7A5-95B5-4256-B2D2-E489185594C4";
width = 769;
},
{
background = {
paths = (
{
closed = 1;
nodes = (
"553 0 LINE",
"579 111 LINE",
"560 80 LINE",
"498 21 LINE",
"407 -15 LINE",
"360 -15 LINE",
"296 -15 LINE",
"187 30 LINE",
"106 112 LINE",
"60 227 LINE",
"60 297 LINE",
"60 366 LINE",
"95 488 LINE",
"157 589 LINE",
"242 669 LINE",
"340 725 LINE",
"449 754 LINE",
"505 754 LINE",
"543 754 LINE",
"615 738 LINE",
"678 709 LINE",
"728 670 LINE",
"744 649 LINE",
"831 649 LINE",
"800 515 LINE",
"610 515 LINE",
"604 530 LINE",
"581 559 LINE",
"548 580 LINE",
"508 593 LINE",
"484 593 LINE",
"434 593 LINE",
"344 546 LINE",
"277 468 LINE",
"237 367 LINE",
"237 313 LINE",
"237 276 LINE",
"257 215 LINE",
"294 169 LINE",
"349 144 LINE",
"383 144 LINE",
"415 144 LINE",
"476 163 LINE",
"527 197 LINE",
"562 239 LINE",
"572 261 LINE",
"416 261 LINE",
"447 395 LINE",
"791 395 LINE",
"699 0 LINE"
);
},
{
closed = 1;
nodes = (
"342 -14 LINE",
"483 -65 LINE",
"387 -230 LINE",
"286 -195 LINE"
);
},
{
closed = 1;
nodes = (
"0 760 LINE",
"769 760 LINE",
"769 0 LINE",
"0 0 LINE"
);
}
);
};
components = (
{
name = G;
},
{
name = commaaccentcomb;
transform = "{1, 0, 0, 1, 340, 0}";
}
);
layerId = "EEC59083-BA83-4EFB-8B50-D01213A5FD15";
width = 789;
}
);
leftKerningGroup = O;
rightKerningGroup = G;
unicode = 0122;
},
{
glyphname = H;
layers = (
{
layerId = "EEC59083-BA83-4EFB-8B50-D01213A5FD15";
paths = (
{
closed = 1;
nodes = (
"649 656 LINE",
"721 656 LINE",
"670 432 LINE",
"251 432 LINE",
"302 656 LINE",
"369 656 LINE",
"389 740 LINE",
"149 740 LINE",
"129 656 LINE",
"201 656 LINE",
"69 84 LINE",
"4 84 LINE",
"-15 0 LINE",
"225 0 LINE",
"244 84 LINE",
"171 84 LINE",
"232 350 LINE",
"651 350 LINE",
"589 84 LINE",
"524 84 LINE",
"505 0 LINE",
"745 0 LINE",
"764 84 LINE",
"691 84 LINE",
"822 656 LINE",
"889 656 LINE",
"909 740 LINE",
"669 740 LINE"
);
}
);
width = 943;
},
{
guideLines = (
{
angle = 76.9965;
position = "{141, 370}";
}
);
layerId = "8956C7A5-95B5-4256-B2D2-E489185594C4";
paths = (
{
closed = 1;
nodes = (
"608 606 LINE",
"691 606 LINE",
"656 455 LINE",
"331 455 LINE",
"366 606 LINE",
"441 606 LINE",
"472 740 LINE",
"142 740 LINE",
"111 606 LINE",
"195 606 LINE",
"86 134 LINE",
"10 134 LINE",
"-21 0 LINE",
"309 0 LINE",
"340 134 LINE",
"257 134 LINE",
"301 323 LINE",
"626 323 LINE",
"582 134 LINE",
"508 134 LINE",
"477 0 LINE",
"807 0 LINE",
"838 134 LINE",
"753 134 LINE",
"862 606 LINE",
"938 606 LINE",
"969 740 LINE",
"639 740 LINE"
);
}
);
width = 950;
}
);
leftKerningGroup = I;
rightKerningGroup = I;
unicode = 0048;
},
{
glyphname = I;
layers = (
{
anchors = (
{
name = top;
position = "{280, 740}";
}
);
layerId = "EEC59083-BA83-4EFB-8B50-D01213A5FD15";
paths = (
{
closed = 1;
nodes = (
"130 656 LINE",
"200 656 LINE",
"68 84 LINE",
"-2 84 LINE",
"-21 0 LINE",
"219 0 LINE",
"238 84 LINE",
"170 84 LINE",
"301 656 LINE",
"370 656 LINE",
"390 740 LINE",
"150 740 LINE"
);
}
);
width = 431;
},
{
anchors = (
{
name = top;
position = "{302, 740}";
}
);
layerId = "8956C7A5-95B5-4256-B2D2-E489185594C4";
paths = (
{
closed = 1;
nodes = (
"111 606 LINE",
"196 606 LINE",
"87 134 LINE",
"11 134 LINE",
"-20 0 LINE",
"310 0 LINE",
"341 134 LINE",
"258 134 LINE",
"367 606 LINE",
"441 606 LINE",
"472 740 LINE",
"142 740 LINE"
);
}
);
width = 452;
}
);
leftKerningGroup = I;
rightKerningGroup = I;
unicode = 0049;
},
{
color = 6;
glyphname = Idotaccent;
layers = (
{
background = {
paths = (
{
closed = 1;
nodes = (
"192 740 LINE",
"522 740 LINE",
"491 606 LINE",
"417 606 LINE",
"308 134 LINE",
"391 134 LINE",
"360 0 LINE",
"30 0 LINE",
"61 134 LINE",
"137 134 LINE",
"246 606 LINE",
"161 606 LINE"
);
},
{
closed = 1;
nodes = (
"260 903 LINE",
"260 921 LINE",
"273 953 LINE",
"296 977 LINE",
"328 990 LINE",
"347 990 LINE",
"364 990 LINE",
"396 977 LINE",
"419 953 LINE",
"433 921 LINE",
"433 903 LINE",
"433 885 LINE",
"419 854 LINE",
"396 830 LINE",
"364 816 LINE",
"347 816 LINE",
"328 816 LINE",
"296 830 LINE",
"273 854 LINE",
"260 885 LINE"
);
},
{
closed = 1;
nodes = (
"0 760 LINE",
"452 760 LINE",
"452 0 LINE",
"0 0 LINE"
);
}
);
};
components = (
{
name = I;
},
{
name = dotaccent;
transform = "{1, 0, 0, 1, 68, 234}";
}
);
layerId = "8956C7A5-95B5-4256-B2D2-E489185594C4";
width = 452;
},
{
background = {
paths = (
{
closed = 1;
nodes = (
"192 740 LINE",
"522 740 LINE",
"491 606 LINE",
"417 606 LINE",
"308 134 LINE",
"391 134 LINE",
"360 0 LINE",
"30 0 LINE",
"61 134 LINE",
"137 134 LINE",
"246 606 LINE",
"161 606 LINE"
);
},
{
closed = 1;
nodes = (
"260 903 LINE",
"260 921 LINE",
"273 953 LINE",
"296 977 LINE",
"328 990 LINE",
"347 990 LINE",
"364 990 LINE",
"396 977 LINE",
"419 953 LINE",
"433 921 LINE",
"433 903 LINE",
"433 885 LINE",
"419 854 LINE",
"396 830 LINE",
"364 816 LINE",
"347 816 LINE",
"328 816 LINE",
"296 830 LINE",
"273 854 LINE",
"260 885 LINE"
);
},
{
closed = 1;
nodes = (
"0 760 LINE",
"452 760 LINE",
"452 0 LINE",
"0 0 LINE"
);
}
);
};
components = (
{
name = I;
},
{
name = dotaccent;
transform = "{1, 0, 0, 1, 65, 234}";
}
);
layerId = "EEC59083-BA83-4EFB-8B50-D01213A5FD15";
width = 431;
}
);
leftKerningGroup = I;
rightKerningGroup = I;
unicode = 0130;
},
{
color = 6;
glyphname = Imacron;
layers = (
{
background = {
paths = (
{
closed = 1;
nodes = (
"192 740 LINE",
"522 740 LINE",
"491 606 LINE",
"417 606 LINE",
"308 134 LINE",
"391 134 LINE",
"360 0 LINE",
"30 0 LINE",
"61 134 LINE",
"137 134 LINE",
"246 606 LINE",
"161 606 LINE"
);
},
{
closed = 1;
nodes = (
"519 809 LINE",
"183 809 LINE",
"183 914 LINE",
"519 914 LINE"
);
},
{
closed = 1;
nodes = (
"0 760 LINE",
"452 760 LINE",
"452 0 LINE",
"0 0 LINE"
);
}
);
};
components = (
{
name = I;
},
{
name = macroncomb.i;
transform = "{1, 0, 0, 1, 106, 234}";
}
);
layerId = "8956C7A5-95B5-4256-B2D2-E489185594C4";
width = 452;
},
{
background = {
paths = (
{
closed = 1;
nodes = (
"192 740 LINE",
"522 740 LINE",
"491 606 LINE",
"417 606 LINE",
"308 134 LINE",
"391 134 LINE",
"360 0 LINE",
"30 0 LINE",
"61 134 LINE",
"137 134 LINE",
"246 606 LINE",
"161 606 LINE"
);
},
{
closed = 1;
nodes = (
"519 809 LINE",
"183 809 LINE",
"183 914 LINE",
"519 914 LINE"
);
},
{
closed = 1;
nodes = (
"0 760 LINE",
"452 760 LINE",
"452 0 LINE",
"0 0 LINE"
);
}
);
};
components = (
{
name = I;
},
{
name = macroncomb.i;
transform = "{1, 0, 0, 1, 85, 234}";
}
);
layerId = "EEC59083-BA83-4EFB-8B50-D01213A5FD15";
width = 431;
}
);
leftKerningGroup = I;
rightKerningGroup = I;
unicode = 012A;
},
{
color = 6;
glyphname = Iogonek;
layers = (
{
background = {
paths = (
{
closed = 1;
nodes = (
"107 740 LINE",
"437 740 LINE",
"406 606 LINE",
"332 606 LINE",
"223 134 LINE",
"306 134 LINE",
"275 0 LINE",
"121 0 LINE",
"96 -1 LINE",
"46 -22 LINE",
"5 -53 LINE",
"-20 -89 LINE",
"-20 -105 LINE",
"-20 -124 LINE",
"4 -138 LINE",
"15 -138 LINE",
"34 -138 LINE",
"60 -132 LINE",
"70 -127 LINE",
"94 -210 LINE",
"83 -216 LINE",
"33 -230 LINE",
"7 -230 LINE",
"-23 -230 LINE",
"-74 -216 LINE",
"-113 -190 LINE",
"-135 -152 LINE",
"-135 -127 LINE",
"-135 -85 LINE",
"-82 -22 LINE",
"-45 0 LINE",
"-14 134 LINE",
"52 134 LINE",
"161 606 LINE",
"76 606 LINE"
);
},
{
closed = 1;
nodes = (
"-85 760 LINE",
"367 760 LINE",
"367 0 LINE",
"-85 0 LINE"
);
}
);
};
layerId = "8956C7A5-95B5-4256-B2D2-E489185594C4";
paths = (
{
closed = 1;
nodes = (
"73 47 LINE",
"-1 31 OFFCURVE",
"-135 -27 OFFCURVE",
"-135 -127 CURVE SMOOTH",
"-135 -193 OFFCURVE",
"-72 -230 OFFCURVE",
"7 -230 CURVE SMOOTH",
"42 -230 OFFCURVE",
"80 -218 OFFCURVE",
"94 -210 CURVE",
"70 -127 LINE",
"57 -133 OFFCURVE",
"40 -138 OFFCURVE",
"15 -138 CURVE SMOOTH",
"1 -138 OFFCURVE",
"-20 -130 OFFCURVE",
"-20 -105 CURVE SMOOTH",
"-20 -61 OFFCURVE",
"58 0 OFFCURVE",
"126 0 CURVE"
);
},
{
closed = 1;
nodes = (
"-45 0 LINE",
"275 0 LINE",
"306 134 LINE",
"-14 134 LINE"
);
},
{
closed = 1;
nodes = (
"206 61 LINE",
"346 665 LINE",
"175 665 LINE",
"35 61 LINE"
);
},
{
closed = 1;
nodes = (
"76 606 LINE",
"406 606 LINE",
"437 740 LINE",
"107 740 LINE"
);
}
);
width = 452;
},
{
background = {
paths = (
{
closed = 1;
nodes = (
"108 740 LINE",
"438 740 LINE",
"407 606 LINE",
"333 606 LINE",
"224 134 LINE",
"307 134 LINE",
"276 0 LINE",
"122 0 LINE",
"97 -1 LINE",
"47 -22 LINE",
"6 -53 LINE",
"-19 -89 LINE",
"-19 -105 LINE",
"-19 -124 LINE",
"5 -138 LINE",
"16 -138 LINE",
"35 -138 LINE",
"61 -132 LINE",
"71 -127 LINE",
"95 -210 LINE",
"84 -216 LINE",
"34 -230 LINE",
"8 -230 LINE",
"-22 -230 LINE",
"-73 -216 LINE",
"-112 -190 LINE",
"-134 -152 LINE",
"-134 -127 LINE",
"-134 -85 LINE",
"-81 -22 LINE",
"-44 0 LINE",
"-13 134 LINE",
"53 134 LINE",
"162 606 LINE",
"77 606 LINE"
);
},
{
closed = 1;
nodes = (
"-84 760 LINE",
"368 760 LINE",
"368 0 LINE",
"-84 0 LINE"
);
}
);
};
layerId = "EEC59083-BA83-4EFB-8B50-D01213A5FD15";
paths = (
{
closed = 1;
nodes = (
"52 38 LINE",
"-6 38 OFFCURVE",
"-121 -27 OFFCURVE",
"-121 -127 CURVE SMOOTH",
"-121 -193 OFFCURVE",
"-63 -230 OFFCURVE",
"16 -230 CURVE SMOOTH",
"53 -230 OFFCURVE",
"86 -219 OFFCURVE",
"103 -209 CURVE",
"82 -147 LINE",
"69 -153 OFFCURVE",
"44 -158 OFFCURVE",
"19 -158 CURVE SMOOTH",
"-14 -158 OFFCURVE",
"-36 -137 OFFCURVE",
"-36 -110 CURVE SMOOTH",
"-36 -53 OFFCURVE",
"44 0 OFFCURVE",
"125 0 CURVE"
);
},
{
closed = 1;
nodes = (
"-47 0 LINE",
"193 0 LINE",
"212 84 LINE",
"-28 84 LINE"
);
},
{
closed = 1;
nodes = (
"137 52 LINE",
"282 684 LINE",
"181 684 LINE",
"35 52 LINE"
);
},
{
closed = 1;
nodes = (
"104 656 LINE",
"344 656 LINE",
"364 740 LINE",
"124 740 LINE"
);
}
);
width = 431;
}
);
leftKerningGroup = I;
rightKerningGroup = I;
unicode = 012E;
},
{
glyphname = J;
layers = (
{
anchors = (
{
name = top;
position = "{-59, 660}";
}
);
layerId = "EEC59083-BA83-4EFB-8B50-D01213A5FD15";
paths = (
{
closed = 1;
nodes = (
"87 656 LINE",
"160 656 LINE",
"32 100 LINE",
"20 46 OFFCURVE",
"-120 -109 OFFCURVE",
"-120 -109 CURVE",
"-38 -116 LINE",
"-38 -116 OFFCURVE",
"113 27 OFFCURVE",
"126 84 CURVE",
"258 656 LINE",
"327 656 LINE",
"347 740 LINE",
"107 740 LINE"
);
}
);
width = 372;
},
{
anchors = (
{
name = top;
position = "{-23, 660}";
}
);
layerId = "8956C7A5-95B5-4256-B2D2-E489185594C4";
paths = (
{
closed = 1;
nodes = (
"57 606 LINE",
"145 606 LINE",
"28 100 LINE",
"16 46 OFFCURVE",
"-124 -109 OFFCURVE",
"-124 -109 CURVE",
"13 -120 LINE",
"13 -120 OFFCURVE",
"181 27 OFFCURVE",
"194 84 CURVE",
"314 606 LINE",
"387 606 LINE",
"418 740 LINE",
"88 740 LINE"
);
}
);
width = 382;
}
);
leftKerningGroup = J;
rightKerningGroup = U;
unicode = 004A;
},
{
glyphname = K;
layers = (
{
anchors = (
{
name = bottom;
position = "{322, 0}";
},
{
name = top;
position = "{502, 740}";
}
);
layerId = "EEC59083-BA83-4EFB-8B50-D01213A5FD15";
paths = (
{
closed = 1;
nodes = (
"241 378 LINE",
"470 84 LINE",
"451 0 LINE",
"650 0 LINE",
"669 84 LINE",
"592 84 LINE",
"363 368 LINE",
"772 656 LINE",
"818 656 LINE",
"838 740 LINE",
"648 740 LINE",
"628 656 LINE"
);
},
{
closed = 1;
nodes = (
"130 656 LINE",
"202 656 LINE",
"70 84 LINE",
"5 84 LINE",
"-14 0 LINE",
"226 0 LINE",
"245 84 LINE",
"172 84 LINE",
"303 656 LINE",
"370 656 LINE",
"390 740 LINE",
"150 740 LINE"
);
}
);
width = 801;
},
{
anchors = (
{
name = bottom;
position = "{368, 0}";
}
);
layerId = "8956C7A5-95B5-4256-B2D2-E489185594C4";
paths = (
{
closed = 1;
nodes = (
"327 387 LINE",
"511 134 LINE",
"480 0 LINE",
"755 0 LINE",
"785 134 LINE",
"713 134 LINE",
"542 373 LINE",
"856 606 LINE",
"921 606 LINE",
"952 740 LINE",
"650 740 LINE",
"619 607 LINE"
);
},
{
closed = 1;
nodes = (
"111 606 LINE",
"196 606 LINE",
"87 134 LINE",
"11 134 LINE",
"-20 0 LINE",
"310 0 LINE",
"341 134 LINE",
"258 134 LINE",
"367 606 LINE",
"441 606 LINE",
"472 740 LINE",
"142 740 LINE"
);
}
);
width = 852;
}
);
leftKerningGroup = I;
rightKerningGroup = K;
unicode = 004B;
},
{
color = 6;
glyphname = Kcommaaccent;
layers = (
{
background = {
paths = (
{
closed = 1;
nodes = (
"669 607 LINE",
"700 740 LINE",
"1002 740 LINE",
"971 606 LINE",
"906 606 LINE",
"592 373 LINE",
"763 134 LINE",
"835 134 LINE",
"805 0 LINE",
"530 0 LINE",
"561 134 LINE",
"377 387 LINE"
);
},
{
closed = 1;
nodes = (
"192 740 LINE",
"522 740 LINE",
"491 606 LINE",
"417 606 LINE",
"308 134 LINE",
"391 134 LINE",
"360 0 LINE",
"30 0 LINE",
"61 134 LINE",
"137 134 LINE",
"246 606 LINE",
"161 606 LINE"
);
},
{
closed = 1;
nodes = (
"383 -14 LINE",
"524 -65 LINE",
"428 -230 LINE",
"327 -195 LINE"
);
},
{
closed = 1;
nodes = (
"0 760 LINE",
"852 760 LINE",
"852 0 LINE",
"0 0 LINE"
);
}
);
};
components = (
{
name = K;
},
{
name = commaaccentcomb;
transform = "{1, 0, 0, 1, 322, 0}";
}
);
layerId = "8956C7A5-95B5-4256-B2D2-E489185594C4";
width = 852;
},
{
background = {
paths = (
{
closed = 1;
nodes = (
"669 607 LINE",
"700 740 LINE",
"1002 740 LINE",
"971 606 LINE",
"906 606 LINE",
"592 373 LINE",
"763 134 LINE",
"835 134 LINE",
"805 0 LINE",
"530 0 LINE",
"561 134 LINE",
"377 387 LINE"
);
},
{
closed = 1;
nodes = (
"192 740 LINE",
"522 740 LINE",
"491 606 LINE",
"417 606 LINE",
"308 134 LINE",
"391 134 LINE",
"360 0 LINE",
"30 0 LINE",
"61 134 LINE",
"137 134 LINE",
"246 606 LINE",
"161 606 LINE"
);
},
{
closed = 1;
nodes = (
"383 -14 LINE",
"524 -65 LINE",
"428 -230 LINE",
"327 -195 LINE"
);
},
{
closed = 1;
nodes = (
"0 760 LINE",
"852 760 LINE",
"852 0 LINE",
"0 0 LINE"
);
}
);
};
components = (
{
name = K;
},
{
name = commaaccentcomb;
transform = "{1, 0, 0, 1, 277, 0}";
}
);
layerId = "EEC59083-BA83-4EFB-8B50-D01213A5FD15";
width = 801;
}
);
leftKerningGroup = I;
rightKerningGroup = K;
unicode = 0136;
},
{
glyphname = L;
layers = (
{
anchors = (
{
name = bottom;
position = "{267, 0}";
},
{
name = center;
position = "{312, 370}";
},
{
name = top;
position = "{277, 740}";
},
{
name = topright;
position = "{433, 490}";
}
);
layerId = "EEC59083-BA83-4EFB-8B50-D01213A5FD15";
paths = (
{
closed = 1;
nodes = (
"130 656 LINE",
"202 656 LINE",
"70 84 LINE",
"5 84 LINE",
"-14 0 LINE",
"537 0 LINE",
"588 219 LINE",
"490 219 LINE",
"467 123 LINE",
"462 101 OFFCURVE",
"447 84 OFFCURVE",
"419 84 CURVE SMOOTH",
"172 84 LINE",
"303 656 LINE",
"370 656 LINE",
"390 740 LINE",
"150 740 LINE"
);
}
);
width = 671;
},
{
anchors = (
{
name = bottom;
position = "{274, 0}";
},
{
name = center;
position = "{299, 370}";
},
{
name = top;
position = "{297, 740}";
},
{
name = topright;
position = "{485, 490}";
}
);
layerId = "8956C7A5-95B5-4256-B2D2-E489185594C4";
paths = (
{
closed = 1;
nodes = (
"111 606 LINE",
"195 606 LINE",
"86 134 LINE",
"11 134 LINE",
"-20 0 LINE",
"571 0 LINE",
"633 272 LINE",
"468 272 LINE",
"444 174 LINE",
"438 151 OFFCURVE",
"420 134 OFFCURVE",
"397 134 CURVE SMOOTH",
"257 134 LINE",
"367 606 LINE",
"441 606 LINE",
"472 740 LINE",
"142 740 LINE"
);
}
);
width = 643;
}
);
leftKerningGroup = I;
rightKerningGroup = L;
unicode = 004C;
},
{
color = 6;
glyphname = Lacute;
layers = (
{
background = {
paths = (
{
closed = 1;
nodes = (
"192 740 LINE",
"522 740 LINE",
"491 606 LINE",
"417 606 LINE",
"307 134 LINE",
"447 134 LINE",
"464 134 LINE",
"489 157 LINE",
"494 174 LINE",
"518 272 LINE",
"683 272 LINE",
"621 0 LINE",
"30 0 LINE",
"61 134 LINE",
"136 134 LINE",
"245 606 LINE",
"161 606 LINE"
);
},
{
closed = 1;
nodes = (
"358 921 LINE",
"517 921 LINE",
"517 909 LINE",
"368 769 LINE",
"253 769 LINE"
);
},
{
closed = 1;
nodes = (
"0 760 LINE",
"643 760 LINE",
"643 0 LINE",
"0 0 LINE"
);
}
);
};
components = (
{
name = L;
},
{
name = acute;
transform = "{1, 0, 0, 1, 126, 234}";
}
);
layerId = "8956C7A5-95B5-4256-B2D2-E489185594C4";
width = 643;
},
{
background = {
paths = (
{
closed = 1;
nodes = (
"192 740 LINE",
"522 740 LINE",
"491 606 LINE",
"417 606 LINE",
"307 134 LINE",
"447 134 LINE",
"464 134 LINE",
"489 157 LINE",
"494 174 LINE",
"518 272 LINE",
"683 272 LINE",
"621 0 LINE",
"30 0 LINE",
"61 134 LINE",
"136 134 LINE",
"245 606 LINE",
"161 606 LINE"
);
},
{
closed = 1;
nodes = (
"358 921 LINE",
"517 921 LINE",
"517 909 LINE",
"368 769 LINE",
"253 769 LINE"
);
},
{
closed = 1;
nodes = (
"0 760 LINE",
"643 760 LINE",
"643 0 LINE",
"0 0 LINE"
);
}
);
};
components = (
{
name = L;
},
{
name = acute;
transform = "{1, 0, 0, 1, 103, 234}";
}
);
layerId = "EEC59083-BA83-4EFB-8B50-D01213A5FD15";
width = 671;
}
);
leftKerningGroup = I;
rightKerningGroup = L;
unicode = 0139;
},
{
color = 6;
glyphname = Lcaron;
layers = (
{
background = {
paths = (
{
closed = 1;
nodes = (
"192 740 LINE",
"522 740 LINE",
"491 606 LINE",
"417 606 LINE",
"307 134 LINE",
"447 134 LINE",
"464 134 LINE",
"489 157 LINE",
"494 174 LINE",
"518 272 LINE",
"683 272 LINE",
"621 0 LINE",
"30 0 LINE",
"61 134 LINE",
"136 134 LINE",
"245 606 LINE",
"161 606 LINE"
);
},
{
closed = 1;
nodes = (
"0 760 LINE",
"643 760 LINE",
"643 0 LINE",
"0 0 LINE"
);
}
);
};
components = (
{
name = L;
},
{
name = caroncomb.alt;
transform = "{1, 0, 0, 1, 381, -16}";
}
);
layerId = "8956C7A5-95B5-4256-B2D2-E489185594C4";
width = 643;
},
{
background = {
paths = (
{
closed = 1;
nodes = (
"192 740 LINE",
"522 740 LINE",
"491 606 LINE",
"417 606 LINE",
"307 134 LINE",
"447 134 LINE",
"464 134 LINE",
"489 157 LINE",
"494 174 LINE",
"518 272 LINE",
"683 272 LINE",
"621 0 LINE",
"30 0 LINE",
"61 134 LINE",
"136 134 LINE",
"245 606 LINE",
"161 606 LINE"
);
},
{
closed = 1;
nodes = (
"0 760 LINE",
"643 760 LINE",
"643 0 LINE",
"0 0 LINE"
);
}
);
};
components = (
{
name = L;
},
{
name = caroncomb.alt;
transform = "{1, 0, 0, 1, 330, -16}";
}
);
layerId = "EEC59083-BA83-4EFB-8B50-D01213A5FD15";
width = 671;
}
);
leftKerningGroup = I;
rightKerningGroup = L;
unicode = 013D;
},
{
color = 6;
glyphname = Lcommaaccent;
layers = (
{
background = {
paths = (
{
closed = 1;
nodes = (
"192 740 LINE",
"522 740 LINE",
"491 606 LINE",
"417 606 LINE",
"307 134 LINE",
"447 134 LINE",
"464 134 LINE",
"489 157 LINE",
"494 174 LINE",
"518 272 LINE",
"683 272 LINE",
"621 0 LINE",
"30 0 LINE",
"61 134 LINE",
"136 134 LINE",
"245 606 LINE",
"161 606 LINE"
);
},
{
closed = 1;
nodes = (
"279 -14 LINE",
"420 -65 LINE",
"324 -230 LINE",
"223 -195 LINE"
);
},
{
closed = 1;
nodes = (
"0 760 LINE",
"643 760 LINE",
"643 0 LINE",
"0 0 LINE"
);
}
);
};
components = (
{
name = L;
},
{
name = commaaccentcomb;
transform = "{1, 0, 0, 1, 228, 0}";
}
);
layerId = "8956C7A5-95B5-4256-B2D2-E489185594C4";
width = 643;
},
{
background = {
paths = (
{
closed = 1;
nodes = (
"192 740 LINE",
"522 740 LINE",
"491 606 LINE",
"417 606 LINE",
"307 134 LINE",
"447 134 LINE",
"464 134 LINE",
"489 157 LINE",
"494 174 LINE",
"518 272 LINE",
"683 272 LINE",
"621 0 LINE",
"30 0 LINE",
"61 134 LINE",
"136 134 LINE",
"245 606 LINE",
"161 606 LINE"
);
},
{
closed = 1;
nodes = (
"279 -14 LINE",
"420 -65 LINE",
"324 -230 LINE",
"223 -195 LINE"
);
},
{
closed = 1;
nodes = (
"0 760 LINE",
"643 760 LINE",
"643 0 LINE",
"0 0 LINE"
);
}
);
};
components = (
{
name = L;
},
{
name = commaaccentcomb;
transform = "{1, 0, 0, 1, 222, 0}";
}
);
layerId = "EEC59083-BA83-4EFB-8B50-D01213A5FD15";
width = 671;
}
);
leftKerningGroup = I;
rightKerningGroup = L;
unicode = 013B;
},
{
color = 6;
glyphname = Lslash;
layers = (
{
anchors = (
{
name = top;
position = "{309, 700}";
}
);
background = {
paths = (
{
closed = 1;
nodes = (
"171 740 LINE",
"501 740 LINE",
"470 606 LINE",
"395 606 LINE",
"374 513 LINE",
"586 613 LINE",
"548 442 LINE",
"334 341 LINE",
"286 134 LINE",
"426 134 LINE",
"443 134 LINE",
"468 157 LINE",
"473 174 LINE",
"497 272 LINE",
"662 272 LINE",
"600 0 LINE",
"9 0 LINE",
"40 134 LINE",
"115 134 LINE",
"142 251 LINE",
"18 193 LINE",
"56 364 LINE",
"182 423 LINE",
"224 606 LINE",
"140 606 LINE"
);
},
{
closed = 1;
nodes = (
"-21 760 LINE",
"622 760 LINE",
"622 0 LINE",
"-21 0 LINE"
);
}
);
};
layerId = "8956C7A5-95B5-4256-B2D2-E489185594C4";
paths = (
{
closed = 1;
nodes = (
"497 272 LINE",
"473 174 LINE SMOOTH",
"467 151 OFFCURVE",
"449 134 OFFCURVE",
"426 134 CURVE SMOOTH",
"40 134 LINE",
"9 0 LINE",
"600 0 LINE",
"662 272 LINE"
);
},
{
closed = 1;
nodes = (
"18 193 LINE",
"548 442 LINE",
"586 613 LINE",
"56 364 LINE"
);
},
{
closed = 1;
nodes = (
"269 61 LINE",
"409 665 LINE",
"238 665 LINE",
"98 61 LINE"
);
},
{
closed = 1;
nodes = (
"140 606 LINE",
"470 606 LINE",
"501 740 LINE",
"171 740 LINE"
);
}
);
width = 643;
},
{
anchors = (
{
name = top;
position = "{367, 700}";
}
);
background = {
paths = (
{
closed = 1;
nodes = (
"181 740 LINE",
"511 740 LINE",
"480 606 LINE",
"405 606 LINE",
"384 513 LINE",
"596 613 LINE",
"558 442 LINE",
"344 341 LINE",
"296 134 LINE",
"436 134 LINE",
"453 134 LINE",
"478 157 LINE",
"483 174 LINE",
"507 272 LINE",
"672 272 LINE",
"610 0 LINE",
"19 0 LINE",
"50 134 LINE",
"125 134 LINE",
"152 251 LINE",
"28 193 LINE",
"66 364 LINE",
"192 423 LINE",
"234 606 LINE",
"150 606 LINE"
);
},
{
closed = 1;
nodes = (
"-11 760 LINE",
"632 760 LINE",
"632 0 LINE",
"-11 0 LINE"
);
}
);
};
layerId = "EEC59083-BA83-4EFB-8B50-D01213A5FD15";
paths = (
{
closed = 1;
nodes = (
"530 219 LINE",
"507 123 LINE SMOOTH",
"502 101 OFFCURVE",
"487 84 OFFCURVE",
"459 84 CURVE SMOOTH",
"45 84 LINE",
"26 0 LINE",
"577 0 LINE",
"628 219 LINE"
);
},
{
closed = 1;
nodes = (
"30 222 LINE",
"501 475 LINE",
"528 590 LINE",
"57 337 LINE"
);
},
{
closed = 1;
nodes = (
"205 52 LINE",
"350 684 LINE",
"249 684 LINE",
"103 52 LINE"
);
},
{
closed = 1;
nodes = (
"170 656 LINE",
"410 656 LINE",
"430 740 LINE",
"190 740 LINE"
);
}
);
width = 671;
}
);
leftKerningGroup = I;
rightKerningGroup = L;
unicode = 0141;
},
{
glyphname = M;
layers = (
{
anchors = (
{
name = top;
position = "{401, 700}";
}
);
layerId = "EEC59083-BA83-4EFB-8B50-D01213A5FD15";
paths = (
{
closed = 1;
nodes = (
"-14 0 LINE",
"226 0 LINE",
"245 84 LINE",
"165 84 LINE",
"295 646 LINE",
"394 0 LINE",
"507 0 LINE",
"897 647 LINE",
"767 84 LINE",
"703 84 LINE",
"684 0 LINE",
"924 0 LINE",
"943 84 LINE",
"865 84 LINE",
"997 656 LINE",
"1064 656 LINE",
"1084 740 LINE",
"853 740 LINE",
"470 105 LINE",
"374 740 LINE",
"150 740 LINE",
"130 656 LINE",
"203 656 LINE",
"71 84 LINE",
"5 84 LINE"
);
}
);
width = 1118;
},
{
anchors = (
{
name = bottom;
position = "{489, 0}";
},
{
name = top;
position = "{659, 740}";
}
);
layerId = "8956C7A5-95B5-4256-B2D2-E489185594C4";
paths = (
{
closed = 1;
nodes = (
"-16 0 LINE",
"283 0 LINE",
"314 134 LINE",
"244 134 LINE",
"341 537 LINE",
"438 9 LINE",
"585 9 LINE",
"916 531 LINE",
"823 134 LINE",
"767 134 LINE",
"736 0 LINE",
"1035 0 LINE",
"1066 134 LINE",
"993 134 LINE",
"1103 606 LINE",
"1178 606 LINE",
"1209 740 LINE",
"864 740 LINE",
"562 244 LINE",
"473 740 LINE",
"137 740 LINE",
"106 606 LINE",
"191 606 LINE",
"82 134 LINE",
"15 134 LINE"
);
}
);
width = 1175;
}
);
leftKerningGroup = I;
rightKerningGroup = I;
unicode = 004D;
},
{
glyphname = N;
layers = (
{
anchors = (
{
name = bottom;
position = "{348, 0}";
},
{
name = top;
position = "{504, 740}";
}
);
layerId = "EEC59083-BA83-4EFB-8B50-D01213A5FD15";
paths = (
{
closed = 1;
nodes = (
"600 656 LINE",
"672 656 LINE",
"552 132 LINE",
"353 740 LINE",
"150 740 LINE",
"130 656 LINE",
"203 656 LINE",
"71 84 LINE",
"6 84 LINE",
"-13 0 LINE",
"227 0 LINE",
"246 84 LINE",
"172 84 LINE",
"293 613 LINE",
"495 0 LINE",
"623 0 LINE",
"773 656 LINE",
"840 656 LINE",
"859 740 LINE",
"619 740 LINE"
);
}
);
width = 872;
},
{
anchors = (
{
name = bottom;
position = "{373, 0}";
},
{
name = top;
position = "{522, 740}";
}
);
layerId = "8956C7A5-95B5-4256-B2D2-E489185594C4";
paths = (
{
closed = 1;
nodes = (
"587 606 LINE",
"652 606 LINE",
"577 283 LINE",
"394 740 LINE",
"142 740 LINE",
"111 606 LINE",
"191 606 LINE",
"82 134 LINE",
"16 134 LINE",
"-15 0 LINE",
"284 0 LINE",
"315 134 LINE",
"252 134 LINE",
"327 457 LINE",
"515 0 LINE",
"683 0 LINE",
"823 606 LINE",
"886 606 LINE",
"917 740 LINE",
"618 740 LINE"
);
}
);
width = 872;
}
);
leftKerningGroup = I;
rightKerningGroup = I;
unicode = 004E;
},
{
color = 6;
glyphname = Nacute;
layers = (
{
background = {
paths = (
{
closed = 1;
nodes = (
"663 740 LINE",
"962 740 LINE",
"931 606 LINE",
"868 606 LINE",
"728 0 LINE",
"560 0 LINE",
"372 457 LINE",
"297 134 LINE",
"360 134 LINE",
"329 0 LINE",
"30 0 LINE",
"61 134 LINE",
"127 134 LINE",
"236 606 LINE",
"156 606 LINE",
"187 740 LINE",
"439 740 LINE",
"622 283 LINE",
"697 606 LINE",
"632 606 LINE"
);
},
{
closed = 1;
nodes = (
"594 961 LINE",
"753 961 LINE",
"753 949 LINE",
"604 810 LINE",
"489 810 LINE"
);
},
{
closed = 1;
nodes = (
"0 760 LINE",
"872 760 LINE",
"872 0 LINE",
"0 0 LINE"
);
}
);
};
components = (
{
name = N;
},
{
name = acute;
transform = "{1, 0, 0, 1, 351, 234}";
}
);
layerId = "8956C7A5-95B5-4256-B2D2-E489185594C4";
width = 872;
},
{
background = {
paths = (
{
closed = 1;
nodes = (
"663 740 LINE",
"962 740 LINE",
"931 606 LINE",
"868 606 LINE",
"728 0 LINE",
"560 0 LINE",
"372 457 LINE",
"297 134 LINE",
"360 134 LINE",
"329 0 LINE",
"30 0 LINE",
"61 134 LINE",
"127 134 LINE",
"236 606 LINE",
"156 606 LINE",
"187 740 LINE",
"439 740 LINE",
"622 283 LINE",
"697 606 LINE",
"632 606 LINE"
);
},
{
closed = 1;
nodes = (
"594 961 LINE",
"753 961 LINE",
"753 949 LINE",
"604 810 LINE",
"489 810 LINE"
);
},
{
closed = 1;
nodes = (
"0 760 LINE",
"872 760 LINE",
"872 0 LINE",
"0 0 LINE"
);
}
);
};
components = (
{
name = N;
},
{
name = acute;
transform = "{1, 0, 0, 1, 330, 234}";
}
);
layerId = "EEC59083-BA83-4EFB-8B50-D01213A5FD15";
width = 872;
}
);
leftKerningGroup = I;
rightKerningGroup = N;
unicode = 0143;
},
{
color = 6;
glyphname = Ncaron;
layers = (
{
background = {
paths = (
{
closed = 1;
nodes = (
"663 740 LINE",
"962 740 LINE",
"931 606 LINE",
"868 606 LINE",
"728 0 LINE",
"560 0 LINE",
"372 457 LINE",
"297 134 LINE",
"360 134 LINE",
"329 0 LINE",
"30 0 LINE",
"61 134 LINE",
"127 134 LINE",
"236 606 LINE",
"156 606 LINE",
"187 740 LINE",
"439 740 LINE",
"622 283 LINE",
"697 606 LINE",
"632 606 LINE"
);
},
{
closed = 1;
nodes = (
"801 968 LINE",
"627 810 LINE",
"510 810 LINE",
"414 968 LINE",
"535 968 LINE",
"582 892 LINE",
"666 968 LINE"
);
},
{
closed = 1;
nodes = (
"0 760 LINE",
"872 760 LINE",
"872 0 LINE",
"0 0 LINE"
);
}
);
};
components = (
{
name = N;
},
{
name = caron;
transform = "{1, 0, 0, 1, 171, 234}";
}
);
layerId = "8956C7A5-95B5-4256-B2D2-E489185594C4";
width = 872;
},
{
background = {
paths = (
{
closed = 1;
nodes = (
"663 740 LINE",
"962 740 LINE",
"931 606 LINE",
"868 606 LINE",
"728 0 LINE",
"560 0 LINE",
"372 457 LINE",
"297 134 LINE",
"360 134 LINE",
"329 0 LINE",
"30 0 LINE",
"61 134 LINE",
"127 134 LINE",
"236 606 LINE",
"156 606 LINE",
"187 740 LINE",
"439 740 LINE",
"622 283 LINE",
"697 606 LINE",
"632 606 LINE"
);
},
{
closed = 1;
nodes = (
"801 968 LINE",
"627 810 LINE",
"510 810 LINE",
"414 968 LINE",
"535 968 LINE",
"582 892 LINE",
"666 968 LINE"
);
},
{
closed = 1;
nodes = (
"0 760 LINE",
"872 760 LINE",
"872 0 LINE",
"0 0 LINE"
);
}
);
};
components = (
{
name = N;
},
{
name = caron;
transform = "{1, 0, 0, 1, 213, 234}";
}
);
layerId = "EEC59083-BA83-4EFB-8B50-D01213A5FD15";
width = 872;
}
);
leftKerningGroup = I;
rightKerningGroup = N;
unicode = 0147;
},
{
color = 6;
glyphname = Ncommaaccent;
layers = (
{
background = {
paths = (
{
closed = 1;
nodes = (
"663 740 LINE",
"962 740 LINE",
"931 606 LINE",
"868 606 LINE",
"728 0 LINE",
"560 0 LINE",
"372 457 LINE",
"297 134 LINE",
"360 134 LINE",
"329 0 LINE",
"30 0 LINE",
"61 134 LINE",
"127 134 LINE",
"236 606 LINE",
"156 606 LINE",
"187 740 LINE",
"439 740 LINE",
"622 283 LINE",
"697 606 LINE",
"632 606 LINE"
);
},
{
closed = 1;
nodes = (
"352 -14 LINE",
"493 -65 LINE",
"397 -230 LINE",
"296 -195 LINE"
);
},
{
closed = 1;
nodes = (
"0 760 LINE",
"872 760 LINE",
"872 0 LINE",
"0 0 LINE"
);
}
);
};
components = (
{
name = N;
},
{
name = commaaccentcomb;
transform = "{1, 0, 0, 1, 327, 0}";
}
);
layerId = "8956C7A5-95B5-4256-B2D2-E489185594C4";
width = 872;
},
{
background = {
paths = (
{
closed = 1;
nodes = (
"663 740 LINE",
"962 740 LINE",
"931 606 LINE",
"868 606 LINE",
"728 0 LINE",
"560 0 LINE",
"372 457 LINE",
"297 134 LINE",
"360 134 LINE",
"329 0 LINE",
"30 0 LINE",
"61 134 LINE",
"127 134 LINE",
"236 606 LINE",
"156 606 LINE",
"187 740 LINE",
"439 740 LINE",
"622 283 LINE",
"697 606 LINE",
"632 606 LINE"
);
},
{
closed = 1;
nodes = (
"352 -14 LINE",
"493 -65 LINE",
"397 -230 LINE",
"296 -195 LINE"
);
},
{
closed = 1;
nodes = (
"0 760 LINE",
"872 760 LINE",
"872 0 LINE",
"0 0 LINE"
);
}
);
};
components = (
{
name = N;
},
{
name = commaaccentcomb;
transform = "{1, 0, 0, 1, 303, 0}";
}
);
layerId = "EEC59083-BA83-4EFB-8B50-D01213A5FD15";
width = 872;
}
);
leftKerningGroup = I;
rightKerningGroup = N;
unicode = 0145;
},
{
glyphname = O;
layers = (
{
anchors = (
{
name = bottom;
position = "{367, 0}";
},
{
name = center;
position = "{412, 370}";
},
{
name = ogonek;
position = "{635, 10}";
},
{
name = top;
position = "{488, 740}";
},
{
name = topleft;
position = "{132, 740}";
},
{
name = topright;
position = "{677, 689}";
}
);
layerId = "EEC59083-BA83-4EFB-8B50-D01213A5FD15";
paths = (
{
closed = 1;
nodes = (
"613 -15 OFFCURVE",
"795 168 OFFCURVE",
"795 430 CURVE SMOOTH",
"795 635 OFFCURVE",
"651 754 OFFCURVE",
"484 754 CURVE SMOOTH",
"254 754 OFFCURVE",
"65 575 OFFCURVE",
"65 320 CURVE SMOOTH",
"65 117 OFFCURVE",
"209 -15 OFFCURVE",
"376 -15 CURVE SMOOTH"
);
},
{
closed = 1;
nodes = (
"263 84 OFFCURVE",
"174 189 OFFCURVE",
"174 328 CURVE SMOOTH",
"174 517 OFFCURVE",
"312 655 OFFCURVE",
"473 655 CURVE SMOOTH",
"597 655 OFFCURVE",
"686 564 OFFCURVE",
"686 422 CURVE SMOOTH",
"686 231 OFFCURVE",
"556 84 OFFCURVE",
"387 84 CURVE SMOOTH"
);
}
);
width = 770;
},
{
anchors = (
{
name = bottom;
position = "{392, 0}";
},
{
name = center;
position = "{417, 370}";
},
{
name = ogonek;
position = "{644, 10}";
},
{
name = top;
position = "{523, 740}";
},
{
name = topleft;
position = "{132, 740}";
},
{
name = topright;
position = "{709, 699}";
}
);
layerId = "8956C7A5-95B5-4256-B2D2-E489185594C4";
paths = (
{
closed = 1;
nodes = (
"626 -15 OFFCURVE",
"833 170 OFFCURVE",
"833 441 CURVE SMOOTH",
"833 626 OFFCURVE",
"713 754 OFFCURVE",
"528 754 CURVE SMOOTH",
"306 754 OFFCURVE",
"83 574 OFFCURVE",
"83 297 CURVE SMOOTH",
"83 111 OFFCURVE",
"211 -15 OFFCURVE",
"388 -15 CURVE SMOOTH"
);
},
{
closed = 1;
nodes = (
"317 149 OFFCURVE",
"260 216 OFFCURVE",
"260 313 CURVE SMOOTH",
"260 457 OFFCURVE",
"374 590 OFFCURVE",
"507 590 CURVE SMOOTH",
"598 590 OFFCURVE",
"654 523 OFFCURVE",
"654 426 CURVE SMOOTH",
"654 281 OFFCURVE",
"538 149 OFFCURVE",
"407 149 CURVE SMOOTH"
);
}
);
width = 780;
}
);
leftKerningGroup = O;
rightKerningGroup = O;
unicode = 004F;
},
{
color = 6;
glyphname = Ohungarumlaut;
layers = (
{
background = {
paths = (
{
closed = 1;
nodes = (
"365 -15 LINE",
"299 -15 LINE",
"187 30 LINE",
"105 112 LINE",
"60 227 LINE",
"60 297 LINE",
"60 366 LINE",
"95 488 LINE",
"157 589 LINE",
"242 669 LINE",
"340 725 LINE",
"449 754 LINE",
"505 754 LINE",
"574 754 LINE",
"687 708 LINE",
"767 625 LINE",
"810 510 LINE",
"810 441 LINE",
"810 373 LINE",
"777 253 LINE",
"718 151 LINE",
"636 71 LINE",
"537 15 LINE",
"425 -15 LINE"
);
},
{
closed = 1;
nodes = (
"384 149 LINE",
"417 149 LINE",
"479 170 LINE",
"534 207 LINE",
"580 259 LINE",
"612 320 LINE",
"631 390 LINE",
"631 426 LINE",
"631 462 LINE",
"611 522 LINE",
"573 566 LINE",
"518 590 LINE",
"484 590 LINE",
"434 590 LINE",
"344 544 LINE",
"277 467 LINE",
"237 367 LINE",
"237 313 LINE",
"237 276 LINE",
"257 216 LINE",
"296 173 LINE",
"350 149 LINE"
);
},
{
closed = 1;
nodes = (
"891 993 LINE",
"754 837 LINE",
"662 837 LINE",
"764 993 LINE"
);
},
{
closed = 1;
nodes = (
"697 993 LINE",
"572 837 LINE",
"481 837 LINE",
"571 993 LINE"
);
},
{
closed = 1;
nodes = (
"0 760 LINE",
"780 760 LINE",
"780 0 LINE",
"0 0 LINE"
);
}
);
};
components = (
{
name = O;
},
{
name = hungarumlautcomb;
transform = "{1, 0, 0, 1, 338, 234}";
}
);
layerId = "8956C7A5-95B5-4256-B2D2-E489185594C4";
width = 780;
},
{
background = {
paths = (
{
closed = 1;
nodes = (
"365 -15 LINE",
"299 -15 LINE",
"187 30 LINE",
"105 112 LINE",
"60 227 LINE",
"60 297 LINE",
"60 366 LINE",
"95 488 LINE",
"157 589 LINE",
"242 669 LINE",
"340 725 LINE",
"449 754 LINE",
"505 754 LINE",
"574 754 LINE",
"687 708 LINE",
"767 625 LINE",
"810 510 LINE",
"810 441 LINE",
"810 373 LINE",
"777 253 LINE",
"718 151 LINE",
"636 71 LINE",
"537 15 LINE",
"425 -15 LINE"
);
},
{
closed = 1;
nodes = (
"384 149 LINE",
"417 149 LINE",
"479 170 LINE",
"534 207 LINE",
"580 259 LINE",
"612 320 LINE",
"631 390 LINE",
"631 426 LINE",
"631 462 LINE",
"611 522 LINE",
"573 566 LINE",
"518 590 LINE",
"484 590 LINE",
"434 590 LINE",
"344 544 LINE",
"277 467 LINE",
"237 367 LINE",
"237 313 LINE",
"237 276 LINE",
"257 216 LINE",
"296 173 LINE",
"350 149 LINE"
);
},
{
closed = 1;
nodes = (
"891 993 LINE",
"754 837 LINE",
"662 837 LINE",
"764 993 LINE"
);
},
{
closed = 1;
nodes = (
"697 993 LINE",
"572 837 LINE",
"481 837 LINE",
"571 993 LINE"
);
},
{
closed = 1;
nodes = (
"0 760 LINE",
"780 760 LINE",
"780 0 LINE",
"0 0 LINE"
);
}
);
};
components = (
{
name = O;
},
{
name = hungarumlautcomb;
transform = "{1, 0, 0, 1, 377, 234}";
}
);
layerId = "EEC59083-BA83-4EFB-8B50-D01213A5FD15";
width = 770;
}
);
leftKerningGroup = O;
rightKerningGroup = O;
unicode = 0150;
},
{
color = 6;
glyphname = Omacron;
layers = (
{
background = {
paths = (
{
closed = 1;
nodes = (
"365 -15 LINE",
"299 -15 LINE",
"187 30 LINE",
"105 112 LINE",
"60 227 LINE",
"60 297 LINE",
"60 366 LINE",
"95 488 LINE",
"157 589 LINE",
"242 669 LINE",
"340 725 LINE",
"449 754 LINE",
"505 754 LINE",
"574 754 LINE",
"687 708 LINE",
"767 625 LINE",
"810 510 LINE",
"810 441 LINE",
"810 373 LINE",
"777 253 LINE",
"718 151 LINE",
"636 71 LINE",
"537 15 LINE",
"425 -15 LINE"
);
},
{
closed = 1;
nodes = (
"384 149 LINE",
"417 149 LINE",
"479 170 LINE",
"534 207 LINE",
"580 259 LINE",
"612 320 LINE",
"631 390 LINE",
"631 426 LINE",
"631 462 LINE",
"611 522 LINE",
"573 566 LINE",
"518 590 LINE",
"484 590 LINE",
"434 590 LINE",
"344 544 LINE",
"277 467 LINE",
"237 367 LINE",
"237 313 LINE",
"237 276 LINE",
"257 216 LINE",
"296 173 LINE",
"350 149 LINE"
);
},
{
closed = 1;
nodes = (
"722 828 LINE",
"386 828 LINE",
"386 933 LINE",
"722 933 LINE"
);
},
{
closed = 1;
nodes = (
"0 760 LINE",
"780 760 LINE",
"780 0 LINE",
"0 0 LINE"
);
}
);
};
components = (
{
name = O;
},
{
name = macroncomb;
transform = "{1, 0, 0, 1, 297, 234}";
}
);
layerId = "8956C7A5-95B5-4256-B2D2-E489185594C4";
width = 780;
},
{
background = {
paths = (
{
closed = 1;
nodes = (
"365 -15 LINE",
"299 -15 LINE",
"187 30 LINE",
"105 112 LINE",
"60 227 LINE",
"60 297 LINE",
"60 366 LINE",
"95 488 LINE",
"157 589 LINE",
"242 669 LINE",
"340 725 LINE",
"449 754 LINE",
"505 754 LINE",
"574 754 LINE",
"687 708 LINE",
"767 625 LINE",
"810 510 LINE",
"810 441 LINE",
"810 373 LINE",
"777 253 LINE",
"718 151 LINE",
"636 71 LINE",
"537 15 LINE",
"425 -15 LINE"
);
},
{
closed = 1;
nodes = (
"384 149 LINE",
"417 149 LINE",
"479 170 LINE",
"534 207 LINE",
"580 259 LINE",
"612 320 LINE",
"631 390 LINE",
"631 426 LINE",
"631 462 LINE",
"611 522 LINE",
"573 566 LINE",
"518 590 LINE",
"484 590 LINE",
"434 590 LINE",
"344 544 LINE",
"277 467 LINE",
"237 367 LINE",
"237 313 LINE",
"237 276 LINE",
"257 216 LINE",
"296 173 LINE",
"350 149 LINE"
);
},
{
closed = 1;
nodes = (
"722 828 LINE",
"386 828 LINE",
"386 933 LINE",
"722 933 LINE"
);
},
{
closed = 1;
nodes = (
"0 760 LINE",
"780 760 LINE",
"780 0 LINE",
"0 0 LINE"
);
}
);
};
components = (
{
name = O;
},
{
name = macroncomb;
transform = "{1, 0, 0, 1, 243, 234}";
}
);
layerId = "EEC59083-BA83-4EFB-8B50-D01213A5FD15";
width = 770;
}
);
leftKerningGroup = O;
rightKerningGroup = O;
unicode = 014C;
},
{
color = 6;
glyphname = OE;
layers = (
{
background = {
paths = (
{
closed = 1;
nodes = (
"384 0 LINE",
"315 0 LINE",
"204 50 LINE",
"126 134 LINE",
"84 247 LINE",
"84 310 LINE",
"84 399 LINE",
"154 555 LINE",
"275 672 LINE",
"439 740 LINE",
"533 740 LINE",
"1139 740 LINE",
"1081 488 LINE",
"910 488 LINE",
"937 605 LINE",
"737 605 LINE",
"700 447 LINE",
"849 447 LINE",
"814 305 LINE",
"667 305 LINE",
"628 134 LINE",
"815 134 LINE",
"845 265 LINE",
"1017 265 LINE",
"956 0 LINE"
);
},
{
closed = 1;
nodes = (
"259 327 LINE",
"259 288 LINE",
"280 218 LINE",
"317 165 LINE",
"371 134 LINE",
"404 134 LINE",
"466 134 LINE",
"575 606 LINE",
"531 606 LINE",
"481 606 LINE",
"384 563 LINE",
"307 487 LINE",
"259 385 LINE"
);
},
{
closed = 1;
nodes = (
"24 760 LINE",
"1054 760 LINE",
"1054 0 LINE",
"24 0 LINE"
);
}
);
};
layerId = "8956C7A5-95B5-4256-B2D2-E489185594C4";
paths = (
{
closed = 1;
nodes = (
"956 0 LINE",
"1017 265 LINE",
"845 265 LINE",
"815 134 LINE",
"404 134 LINE SMOOTH",
"316 134 OFFCURVE",
"259 224 OFFCURVE",
"259 327 CURVE SMOOTH",
"259 483 OFFCURVE",
"399 606 OFFCURVE",
"531 606 CURVE SMOOTH",
"937 605 LINE",
"910 488 LINE",
"1081 488 LINE",
"1139 740 LINE",
"533 740 LINE SMOOTH",
"283 740 OFFCURVE",
"84 547 OFFCURVE",
"84 310 CURVE SMOOTH",
"84 142 OFFCURVE",
"199 0 OFFCURVE",
"384 0 CURVE SMOOTH"
);
},
{
closed = 1;
nodes = (
"611 61 LINE",
"751 665 LINE",
"589 665 LINE",
"449 61 LINE"
);
},
{
closed = 1;
nodes = (
"554 305 LINE",
"814 305 LINE",
"849 447 LINE",
"587 447 LINE"
);
}
);
width = 1030;
},
{
background = {
paths = (
{
closed = 1;
nodes = (
"384 0 LINE",
"315 0 LINE",
"204 50 LINE",
"126 134 LINE",
"84 247 LINE",
"84 310 LINE",
"84 399 LINE",
"154 555 LINE",
"275 672 LINE",
"439 740 LINE",
"533 740 LINE",
"1139 740 LINE",
"1081 488 LINE",
"910 488 LINE",
"937 605 LINE",
"737 605 LINE",
"700 447 LINE",
"849 447 LINE",
"814 305 LINE",
"667 305 LINE",
"628 134 LINE",
"815 134 LINE",
"845 265 LINE",
"1017 265 LINE",
"956 0 LINE"
);
},
{
closed = 1;
nodes = (
"259 327 LINE",
"259 288 LINE",
"280 218 LINE",
"317 165 LINE",
"371 134 LINE",
"404 134 LINE",
"466 134 LINE",
"575 606 LINE",
"531 606 LINE",
"481 606 LINE",
"384 563 LINE",
"307 487 LINE",
"259 385 LINE"
);
},
{
closed = 1;
nodes = (
"24 760 LINE",
"1054 760 LINE",
"1054 0 LINE",
"24 0 LINE"
);
}
);
};
layerId = "EEC59083-BA83-4EFB-8B50-D01213A5FD15";
paths = (
{
closed = 1;
nodes = (
"912 0 LINE",
"961 211 LINE",
"859 211 LINE",
"829 84 LINE",
"369 84 LINE SMOOTH",
"239 84 OFFCURVE",
"165 189 OFFCURVE",
"165 320 CURVE SMOOTH",
"165 507 OFFCURVE",
"332 656 OFFCURVE",
"491 656 CURVE SMOOTH",
"961 656 LINE",
"933 529 LINE",
"1033 529 LINE",
"1081 740 LINE",
"503 740 LINE SMOOTH",
"269 740 OFFCURVE",
"61 549 OFFCURVE",
"61 312 CURVE SMOOTH",
"61 145 OFFCURVE",
"174 0 OFFCURVE",
"360 0 CURVE SMOOTH"
);
},
{
closed = 1;
nodes = (
"561 51 LINE",
"707 685 LINE",
"611 685 LINE",
"465 51 LINE"
);
},
{
closed = 1;
nodes = (
"584 335 LINE",
"848 335 LINE",
"868 419 LINE",
"604 419 LINE"
);
}
);
width = 1009;
}
);
leftKerningGroup = O;
rightKerningGroup = E;
unicode = 0152;
},
{
glyphname = P;
layers = (
{
anchors = (
{
name = bottom;
position = "{223, 0}";
},
{
name = top;
position = "{393, 740}";
}
);
layerId = "EEC59083-BA83-4EFB-8B50-D01213A5FD15";
paths = (
{
closed = 1;
nodes = (
"130 656 LINE",
"202 656 LINE",
"70 84 LINE",
"6 84 LINE",
"-13 0 LINE",
"227 0 LINE",
"246 84 LINE",
"172 84 LINE",
"226 321 LINE",
"347 321 LINE SMOOTH",
"535 321 OFFCURVE",
"638 421 OFFCURVE",
"638 555 CURVE SMOOTH",
"638 657 OFFCURVE",
"560 740 OFFCURVE",
"447 740 CURVE SMOOTH",
"150 740 LINE"
);
},
{
closed = 1;
nodes = (
"419 656 LINE",
"500 656 OFFCURVE",
"535 604 OFFCURVE",
"535 549 CURVE SMOOTH",
"535 456 OFFCURVE",
"464 405 OFFCURVE",
"358 405 CURVE SMOOTH",
"246 405 LINE",
"303 656 LINE"
);
}
);
width = 641;
},
{
anchors = (
{
name = bottom;
position = "{223, 0}";
},
{
name = top;
position = "{393, 740}";
}
);
layerId = "8956C7A5-95B5-4256-B2D2-E489185594C4";
paths = (
{
closed = 1;
nodes = (
"111 606 LINE",
"196 606 LINE",
"87 134 LINE",
"11 134 LINE",
"-20 0 LINE",
"310 0 LINE",
"341 134 LINE",
"258 134 LINE",
"290 275 LINE",
"378 275 LINE SMOOTH",
"614 275 OFFCURVE",
"701 398 OFFCURVE",
"701 541 CURVE SMOOTH",
"701 653 OFFCURVE",
"622 740 OFFCURVE",
"486 740 CURVE SMOOTH",
"142 740 LINE"
);
},
{
closed = 1;
nodes = (
"419 606 LINE",
"486 606 OFFCURVE",
"520 574 OFFCURVE",
"520 525 CURVE SMOOTH",
"520 445 OFFCURVE",
"461 407 OFFCURVE",
"373 407 CURVE SMOOTH",
"321 407 LINE",
"367 606 LINE"
);
}
);
width = 661;
}
);
leftKerningGroup = I;
rightKerningGroup = P;
unicode = 0050;
},
{
glyphname = Thorn;
layers = (
{
layerId = "EEC59083-BA83-4EFB-8B50-D01213A5FD15";
paths = (
{
closed = 1;
nodes = (
"217 0 LINE",
"236 84 LINE",
"168 84 LINE",
"192 189 LINE",
"347 189 LINE SMOOTH",
"511 189 OFFCURVE",
"615 286 OFFCURVE",
"615 422 CURVE SMOOTH",
"615 528 OFFCURVE",
"532 590 OFFCURVE",
"417 590 CURVE SMOOTH",
"284 590 LINE",
"299 656 LINE",
"368 656 LINE",
"388 740 LINE",
"148 740 LINE",
"128 656 LINE",
"198 656 LINE",
"66 84 LINE",
"-4 84 LINE",
"-23 0 LINE"
);
},
{
closed = 1;
nodes = (
"265 506 LINE",
"396 506 LINE",
"477 506 OFFCURVE",
"512 469 OFFCURVE",
"512 414 CURVE SMOOTH",
"512 321 OFFCURVE",
"443 273 OFFCURVE",
"354 273 CURVE SMOOTH",
"211 273 LINE"
);
}
);
width = 649;
},
{
guideLines = (
{
position = "{326, 294}";
},
{
position = "{355, 160}";
},
{
position = "{49, 134}";
},
{
angle = 180;
position = "{154, 606}";
}
);
layerId = "8956C7A5-95B5-4256-B2D2-E489185594C4";
paths = (
{
closed = 1;
nodes = (
"227 0 LINE",
"258 134 LINE",
"258 134 LINE",
"264 162 LINE",
"353 162 LINE SMOOTH",
"523 162 OFFCURVE",
"669 241 OFFCURVE",
"669 395 CURVE SMOOTH",
"669 504 OFFCURVE",
"588 586 OFFCURVE",
"453 586 CURVE SMOOTH",
"363 586 LINE",
"368 606 LINE",
"368 606 LINE",
"398 740 LINE",
"142 740 LINE",
"111 606 LINE",
"196 606 LINE",
"87 134 LINE",
"11 134 LINE",
"-20 0 LINE"
);
},
{
closed = 1;
nodes = (
"331 452 LINE",
"391 452 LINE",
"460 452 OFFCURVE",
"490 427 OFFCURVE",
"490 386 CURVE SMOOTH",
"490 317 OFFCURVE",
"435 294 OFFCURVE",
"357 294 CURVE SMOOTH",
"295 294 LINE"
);
}
);
width = 660;
}
);
leftKerningGroup = I;
rightKerningGroup = P;
rightMetricsKey = P;
unicode = 00DE;
},
{
glyphname = Q;
layers = (
{
anchors = (
{
name = bottom;
position = "{351, 0}";
},
{
name = top;
position = "{501, 740}";
}
);
layerId = "EEC59083-BA83-4EFB-8B50-D01213A5FD15";
paths = (
{
closed = 1;
nodes = (
"301 -99 LINE",
"307 -97 OFFCURVE",
"317 -95 OFFCURVE",
"326 -94 CURVE SMOOTH",
"400 -82 OFFCURVE",
"440 -159 OFFCURVE",
"537 -159 CURVE SMOOTH",
"599 -159 OFFCURVE",
"682 -122 OFFCURVE",
"715 -49 CURVE",
"649 -15 LINE",
"631 -53 OFFCURVE",
"594 -72 OFFCURVE",
"557 -72 CURVE",
"492 -72 OFFCURVE",
"466 -31 OFFCURVE",
"411 -14 CURVE",
"631 3 OFFCURVE",
"795 181 OFFCURVE",
"795 430 CURVE SMOOTH",
"795 635 OFFCURVE",
"651 754 OFFCURVE",
"484 754 CURVE SMOOTH",
"254 754 OFFCURVE",
"65 575 OFFCURVE",
"65 320 CURVE SMOOTH",
"65 139 OFFCURVE",
"179 15 OFFCURVE",
"321 -10 CURVE"
);
},
{
closed = 1;
nodes = (
"263 84 OFFCURVE",
"174 189 OFFCURVE",
"174 328 CURVE SMOOTH",
"174 517 OFFCURVE",
"312 655 OFFCURVE",
"473 655 CURVE SMOOTH",
"597 655 OFFCURVE",
"686 564 OFFCURVE",
"686 422 CURVE SMOOTH",
"686 231 OFFCURVE",
"556 84 OFFCURVE",
"387 84 CURVE SMOOTH"
);
}
);
width = 761;
},
{
anchors = (
{
name = bottom;
position = "{345, 0}";
},
{
name = top;
position = "{515, 740}";
}
);
layerId = "8956C7A5-95B5-4256-B2D2-E489185594C4";
paths = (
{
closed = 1;
nodes = (
"297 -129 LINE",
"313 -124 OFFCURVE",
"323 -123 OFFCURVE",
"339 -123 CURVE SMOOTH",
"414 -123 OFFCURVE",
"470 -193 OFFCURVE",
"544 -193 CURVE SMOOTH",
"639 -193 OFFCURVE",
"733 -131 OFFCURVE",
"766 -36 CURVE",
"669 18 LINE",
"650 -32 OFFCURVE",
"606 -52 OFFCURVE",
"566 -52 CURVE",
"523 -51 OFFCURVE",
"491 -26 OFFCURVE",
"453 -9 CURVE",
"658 25 OFFCURVE",
"823 199 OFFCURVE",
"823 441 CURVE SMOOTH",
"823 626 OFFCURVE",
"703 754 OFFCURVE",
"518 754 CURVE SMOOTH",
"296 754 OFFCURVE",
"73 574 OFFCURVE",
"73 297 CURVE SMOOTH",
"73 130 OFFCURVE",
"176 11 OFFCURVE",
"325 -11 CURVE"
);
},
{
closed = 1;
nodes = (
"307 149 OFFCURVE",
"250 216 OFFCURVE",
"250 313 CURVE SMOOTH",
"250 457 OFFCURVE",
"364 590 OFFCURVE",
"497 590 CURVE SMOOTH",
"588 590 OFFCURVE",
"644 523 OFFCURVE",
"644 426 CURVE SMOOTH",
"644 281 OFFCURVE",
"528 149 OFFCURVE",
"397 149 CURVE SMOOTH"
);
}
);
width = 760;
}
);
leftKerningGroup = O;
rightKerningGroup = O;
unicode = 0051;
},
{
glyphname = R;
layers = (
{
anchors = (
{
name = bottom;
position = "{273, 0}";
},
{
name = top;
position = "{401, 740}";
}
);
layerId = "EEC59083-BA83-4EFB-8B50-D01213A5FD15";
paths = (
{
closed = 1;
nodes = (
"130 656 LINE",
"203 656 LINE",
"71 84 LINE",
"6 84 LINE",
"-13 0 LINE",
"227 0 LINE",
"246 84 LINE",
"173 84 LINE",
"232 343 LINE",
"312 343 LINE SMOOTH",
"384 343 OFFCURVE",
"420 306 OFFCURVE",
"421 225 CURVE SMOOTH",
"424 0 LINE",
"567 0 LINE",
"586 84 LINE",
"523 84 LINE",
"520 254 LINE SMOOTH",
"519 304 OFFCURVE",
"499 342 OFFCURVE",
"473 360 CURVE",
"562 388 OFFCURVE",
"639 461 OFFCURVE",
"639 567 CURVE SMOOTH",
"639 669 OFFCURVE",
"564 740 OFFCURVE",
"451 740 CURVE SMOOTH",
"150 740 LINE"
);
},
{
closed = 1;
nodes = (
"419 656 LINE",
"500 656 OFFCURVE",
"536 617 OFFCURVE",
"536 562 CURVE SMOOTH",
"536 469 OFFCURVE",
"465 425 OFFCURVE",
"367 425 CURVE SMOOTH",
"251 425 LINE",
"304 656 LINE"
);
}
);
width = 702;
},
{
anchors = (
{
name = bottom;
position = "{284, 0}";
},
{
name = top;
position = "{445, 740}";
}
);
layerId = "8956C7A5-95B5-4256-B2D2-E489185594C4";
paths = (
{
closed = 1;
nodes = (
"111 606 LINE",
"196 606 LINE",
"86 134 LINE",
"21 134 LINE",
"-10 0 LINE",
"289 0 LINE",
"320 134 LINE",
"257 134 LINE",
"295 295 LINE",
"342 295 LINE SMOOTH",
"421 295 OFFCURVE",
"448 260 OFFCURVE",
"442 176 CURVE SMOOTH",
"430 0 LINE",
"650 0 LINE",
"681 134 LINE",
"611 134 LINE",
"608 240 LINE SMOOTH",
"606 287 OFFCURVE",
"592 318 OFFCURVE",
"571 337 CURVE",
"678 382 OFFCURVE",
"724 447 OFFCURVE",
"724 551 CURVE SMOOTH",
"724 644 OFFCURVE",
"667 740 OFFCURVE",
"536 740 CURVE SMOOTH",
"142 740 LINE"
);
},
{
closed = 1;
nodes = (
"464 606 LINE",
"527 606 OFFCURVE",
"552 576 OFFCURVE",
"552 530 CURVE SMOOTH",
"552 459 OFFCURVE",
"499 427 OFFCURVE",
"418 427 CURVE SMOOTH",
"325 427 LINE",
"367 606 LINE"
);
}
);
width = 724;
}
);
leftKerningGroup = I;
rightKerningGroup = R;
unicode = 0052;
},
{
color = 6;
glyphname = Racute;
layers = (
{
background = {
paths = (
{
closed = 1;
nodes = (
"182 740 LINE",
"576 740 LINE",
"625 740 LINE",
"696 707 LINE",
"742 654 LINE",
"764 586 LINE",
"764 551 LINE",
"764 503 LINE",
"737 428 LINE",
"679 369 LINE",
"624 342 LINE",
"612 336 LINE",
"617 332 LINE",
"633 312 LINE",
"647 270 LINE",
"648 240 LINE",
"651 134 LINE",
"721 134 LINE",
"690 0 LINE",
"470 0 LINE",
"482 176 LINE",
"484 207 LINE",
"476 252 LINE",
"452 281 LINE",
"412 295 LINE",
"382 295 LINE",
"335 295 LINE",
"297 134 LINE",
"360 134 LINE",
"329 0 LINE",
"30 0 LINE",
"61 134 LINE",
"126 134 LINE",
"236 606 LINE",
"151 606 LINE"
);
},
{
closed = 1;
nodes = (
"407 606 LINE",
"365 427 LINE",
"458 427 LINE",
"488 427 LINE",
"538 439 LINE",
"573 464 LINE",
"592 503 LINE",
"592 530 LINE",
"592 564 LINE",
"551 606 LINE",
"504 606 LINE"
);
},
{
closed = 1;
nodes = (
"516 961 LINE",
"675 961 LINE",
"675 949 LINE",
"526 809 LINE",
"411 809 LINE"
);
},
{
closed = 1;
nodes = (
"0 760 LINE",
"724 760 LINE",
"724 0 LINE",
"0 0 LINE"
);
}
);
};
components = (
{
name = R;
},
{
name = acutecomb;
transform = "{1, 0, 0, 1, 348, 234}";
}
);
layerId = "8956C7A5-95B5-4256-B2D2-E489185594C4";
width = 724;
},
{
background = {
paths = (
{
closed = 1;
nodes = (
"182 740 LINE",
"576 740 LINE",
"625 740 LINE",
"696 707 LINE",
"742 654 LINE",
"764 586 LINE",
"764 551 LINE",
"764 503 LINE",
"737 428 LINE",
"679 369 LINE",
"624 342 LINE",
"612 336 LINE",
"617 332 LINE",
"633 312 LINE",
"647 270 LINE",
"648 240 LINE",
"651 134 LINE",
"721 134 LINE",
"690 0 LINE",
"470 0 LINE",
"482 176 LINE",
"484 207 LINE",
"476 252 LINE",
"452 281 LINE",
"412 295 LINE",
"382 295 LINE",
"335 295 LINE",
"297 134 LINE",
"360 134 LINE",
"329 0 LINE",
"30 0 LINE",
"61 134 LINE",
"126 134 LINE",
"236 606 LINE",
"151 606 LINE"
);
},
{
closed = 1;
nodes = (
"407 606 LINE",
"365 427 LINE",
"458 427 LINE",
"488 427 LINE",
"538 439 LINE",
"573 464 LINE",
"592 503 LINE",
"592 530 LINE",
"592 564 LINE",
"551 606 LINE",
"504 606 LINE"
);
},
{
closed = 1;
nodes = (
"516 961 LINE",
"675 961 LINE",
"675 949 LINE",
"526 809 LINE",
"411 809 LINE"
);
},
{
closed = 1;
nodes = (
"0 760 LINE",
"724 760 LINE",
"724 0 LINE",
"0 0 LINE"
);
}
);
};
components = (
{
name = R;
},
{
name = acute;
transform = "{1, 0, 0, 1, 227, 234}";
}
);
layerId = "EEC59083-BA83-4EFB-8B50-D01213A5FD15";
width = 702;
}
);
leftKerningGroup = I;
rightKerningGroup = R;
unicode = 0154;
},
{
color = 6;
glyphname = Rcaron;
layers = (
{
background = {
paths = (
{
closed = 1;
nodes = (
"182 740 LINE",
"576 740 LINE",
"625 740 LINE",
"696 707 LINE",
"742 654 LINE",
"764 586 LINE",
"764 551 LINE",
"764 503 LINE",
"737 428 LINE",
"679 369 LINE",
"624 342 LINE",
"612 336 LINE",
"617 332 LINE",
"633 312 LINE",
"647 270 LINE",
"648 240 LINE",
"651 134 LINE",
"721 134 LINE",
"690 0 LINE",
"470 0 LINE",
"482 176 LINE",
"484 207 LINE",
"476 252 LINE",
"452 281 LINE",
"412 295 LINE",
"382 295 LINE",
"335 295 LINE",
"297 134 LINE",
"360 134 LINE",
"329 0 LINE",
"30 0 LINE",
"61 134 LINE",
"126 134 LINE",
"236 606 LINE",
"151 606 LINE"
);
},
{
closed = 1;
nodes = (
"407 606 LINE",
"365 427 LINE",
"458 427 LINE",
"488 427 LINE",
"538 439 LINE",
"573 464 LINE",
"592 503 LINE",
"592 530 LINE",
"592 564 LINE",
"551 606 LINE",
"504 606 LINE"
);
},
{
closed = 1;
nodes = (
"723 968 LINE",
"549 809 LINE",
"432 809 LINE",
"336 968 LINE",
"457 968 LINE",
"504 891 LINE",
"588 968 LINE"
);
},
{
closed = 1;
nodes = (
"0 760 LINE",
"724 760 LINE",
"724 0 LINE",
"0 0 LINE"
);
}
);
};
components = (
{
name = R;
},
{
name = caron;
transform = "{1, 0, 0, 1, 94, 234}";
}
);
layerId = "8956C7A5-95B5-4256-B2D2-E489185594C4";
width = 724;
},
{
background = {
paths = (
{
closed = 1;
nodes = (
"182 740 LINE",
"576 740 LINE",
"625 740 LINE",
"696 707 LINE",
"742 654 LINE",
"764 586 LINE",
"764 551 LINE",
"764 503 LINE",
"737 428 LINE",
"679 369 LINE",
"624 342 LINE",
"612 336 LINE",
"617 332 LINE",
"633 312 LINE",
"647 270 LINE",
"648 240 LINE",
"651 134 LINE",
"721 134 LINE",
"690 0 LINE",
"470 0 LINE",
"482 176 LINE",
"484 207 LINE",
"476 252 LINE",
"452 281 LINE",
"412 295 LINE",
"382 295 LINE",
"335 295 LINE",
"297 134 LINE",
"360 134 LINE",
"329 0 LINE",
"30 0 LINE",
"61 134 LINE",
"126 134 LINE",
"236 606 LINE",
"151 606 LINE"
);
},
{
closed = 1;
nodes = (
"407 606 LINE",
"365 427 LINE",
"458 427 LINE",
"488 427 LINE",
"538 439 LINE",
"573 464 LINE",
"592 503 LINE",
"592 530 LINE",
"592 564 LINE",
"551 606 LINE",
"504 606 LINE"
);
},
{
closed = 1;
nodes = (
"723 968 LINE",
"549 809 LINE",
"432 809 LINE",
"336 968 LINE",
"457 968 LINE",
"504 891 LINE",
"588 968 LINE"
);
},
{
closed = 1;
nodes = (
"0 760 LINE",
"724 760 LINE",
"724 0 LINE",
"0 0 LINE"
);
}
);
};
components = (
{
name = R;
},
{
name = caron;
transform = "{1, 0, 0, 1, 110, 234}";
}
);
layerId = "EEC59083-BA83-4EFB-8B50-D01213A5FD15";
width = 702;
}
);
leftKerningGroup = I;
rightKerningGroup = R;
unicode = 0158;
},
{
color = 6;
glyphname = Rcommaaccent;
layers = (
{
background = {
paths = (
{
closed = 1;
nodes = (
"182 740 LINE",
"576 740 LINE",
"625 740 LINE",
"696 707 LINE",
"742 654 LINE",
"764 586 LINE",
"764 551 LINE",
"764 503 LINE",
"737 428 LINE",
"679 369 LINE",
"624 342 LINE",
"612 336 LINE",
"617 332 LINE",
"633 312 LINE",
"647 270 LINE",
"648 240 LINE",
"651 134 LINE",
"721 134 LINE",
"690 0 LINE",
"470 0 LINE",
"482 176 LINE",
"484 207 LINE",
"476 252 LINE",
"452 281 LINE",
"412 295 LINE",
"382 295 LINE",
"335 295 LINE",
"297 134 LINE",
"360 134 LINE",
"329 0 LINE",
"30 0 LINE",
"61 134 LINE",
"126 134 LINE",
"236 606 LINE",
"151 606 LINE"
);
},
{
closed = 1;
nodes = (
"407 606 LINE",
"365 427 LINE",
"458 427 LINE",
"488 427 LINE",
"538 439 LINE",
"573 464 LINE",
"592 503 LINE",
"592 530 LINE",
"592 564 LINE",
"551 606 LINE",
"504 606 LINE"
);
},
{
closed = 1;
nodes = (
"319 -14 LINE",
"460 -65 LINE",
"364 -230 LINE",
"263 -195 LINE"
);
},
{
closed = 1;
nodes = (
"0 760 LINE",
"724 760 LINE",
"724 0 LINE",
"0 0 LINE"
);
}
);
};
components = (
{
name = R;
},
{
name = commaaccentcomb;
transform = "{1, 0, 0, 1, 238, 0}";
}
);
layerId = "8956C7A5-95B5-4256-B2D2-E489185594C4";
width = 724;
},
{
background = {
paths = (
{
closed = 1;
nodes = (
"182 740 LINE",
"576 740 LINE",
"625 740 LINE",
"696 707 LINE",
"742 654 LINE",
"764 586 LINE",
"764 551 LINE",
"764 503 LINE",
"737 428 LINE",
"679 369 LINE",
"624 342 LINE",
"612 336 LINE",
"617 332 LINE",
"633 312 LINE",
"647 270 LINE",
"648 240 LINE",
"651 134 LINE",
"721 134 LINE",
"690 0 LINE",
"470 0 LINE",
"482 176 LINE",
"484 207 LINE",
"476 252 LINE",
"452 281 LINE",
"412 295 LINE",
"382 295 LINE",
"335 295 LINE",
"297 134 LINE",
"360 134 LINE",
"329 0 LINE",
"30 0 LINE",
"61 134 LINE",
"126 134 LINE",
"236 606 LINE",
"151 606 LINE"
);
},
{
closed = 1;
nodes = (
"407 606 LINE",
"365 427 LINE",
"458 427 LINE",
"488 427 LINE",
"538 439 LINE",
"573 464 LINE",
"592 503 LINE",
"592 530 LINE",
"592 564 LINE",
"551 606 LINE",
"504 606 LINE"
);
},
{
closed = 1;
nodes = (
"319 -14 LINE",
"460 -65 LINE",
"364 -230 LINE",
"263 -195 LINE"
);
},
{
closed = 1;
nodes = (
"0 760 LINE",
"724 760 LINE",
"724 0 LINE",
"0 0 LINE"
);
}
);
};
components = (
{
name = R;
},
{
name = commaaccentcomb;
transform = "{1, 0, 0, 1, 228, 0}";
}
);
layerId = "EEC59083-BA83-4EFB-8B50-D01213A5FD15";
width = 702;
}
);
leftKerningGroup = I;
rightKerningGroup = R;
unicode = 0156;
},
{
glyphname = S;
layers = (
{
anchors = (
{
name = bottom;
position = "{239, 0}";
},
{
name = top;
position = "{393, 740}";
}
);
layerId = "EEC59083-BA83-4EFB-8B50-D01213A5FD15";
paths = (
{
closed = 1;
nodes = (
"499 546 LINE",
"626 546 LINE",
"645 624 LINE",
"596 624 LINE",
"573 700 OFFCURVE",
"497 751 OFFCURVE",
"387 751 CURVE SMOOTH",
"211 751 OFFCURVE",
"106 650 OFFCURVE",
"106 517 CURVE SMOOTH",
"106 431 OFFCURVE",
"153 376 OFFCURVE",
"241 348 CURVE",
"326 321 LINE",
"384 302 OFFCURVE",
"432 275 OFFCURVE",
"432 213 CURVE SMOOTH",
"432 132 OFFCURVE",
"361 74 OFFCURVE",
"264 74 CURVE SMOOTH",
"169 74 OFFCURVE",
"115 108 OFFCURVE",
"124 179 CURVE",
"133 215 LINE",
"0 215 LINE",
"-19 137 LINE",
"27 137 LINE",
"36 57 OFFCURVE",
"93 -15 OFFCURVE",
"247 -15 CURVE SMOOTH",
"419 -15 OFFCURVE",
"536 83 OFFCURVE",
"536 228 CURVE SMOOTH",
"536 319 OFFCURVE",
"489 371 OFFCURVE",
"395 403 CURVE",
"304 436 LINE SMOOTH",
"261 451 OFFCURVE",
"206 463 OFFCURVE",
"206 528 CURVE SMOOTH",
"206 601 OFFCURVE",
"270 663 OFFCURVE",
"378 663 CURVE SMOOTH",
"453 663 OFFCURVE",
"516 624 OFFCURVE",
"501 555 CURVE"
);
}
);
width = 624;
},
{
anchors = (
{
name = bottom;
position = "{258, 0}";
},
{
name = top;
position = "{396, 740}";
}
);
layerId = "8956C7A5-95B5-4256-B2D2-E489185594C4";
paths = (
{
closed = 1;
nodes = (
"472 498 LINE",
"649 498 LINE",
"678 623 LINE",
"622 623 LINE",
"612 693 OFFCURVE",
"528 753 OFFCURVE",
"404 753 CURVE SMOOTH",
"226 753 OFFCURVE",
"100 673 OFFCURVE",
"100 512 CURVE SMOOTH",
"100 422 OFFCURVE",
"154 354 OFFCURVE",
"232 328 CURVE",
"316 299 LINE",
"361 284 OFFCURVE",
"400 267 OFFCURVE",
"400 224 CURVE SMOOTH",
"400 168 OFFCURVE",
"355 127 OFFCURVE",
"282 127 CURVE SMOOTH",
"205 127 OFFCURVE",
"172 165 OFFCURVE",
"181 223 CURVE",
"190 260 LINE",
"12 260 LINE",
"-17 135 LINE",
"38 135 LINE",
"49 45 OFFCURVE",
"135 -12 OFFCURVE",
"259 -12 CURVE SMOOTH",
"443 -12 OFFCURVE",
"576 84 OFFCURVE",
"576 245 CURVE SMOOTH",
"576 332 OFFCURVE",
"539 394 OFFCURVE",
"456 424 CURVE",
"355 461 LINE SMOOTH",
"316 475 OFFCURVE",
"268 485 OFFCURVE",
"268 535 CURVE SMOOTH",
"268 593 OFFCURVE",
"322 617 OFFCURVE",
"386 617 CURVE SMOOTH",
"448 617 OFFCURVE",
"493 581 OFFCURVE",
"477 519 CURVE"
);
}
);
width = 619;
}
);
leftKerningGroup = S;
rightKerningGroup = S;
unicode = 0053;
},
{
color = 6;
glyphname = Sacute;
layers = (
{
background = {
paths = (
{
closed = 1;
nodes = (
"39 260 LINE",
"217 260 LINE",
"204 210 LINE",
"211 169 LINE",
"236 142 LINE",
"279 127 LINE",
"309 127 LINE",
"336 127 LINE",
"380 142 LINE",
"411 167 LINE",
"427 203 LINE",
"427 224 LINE",
"427 240 LINE",
"413 264 LINE",
"390 281 LINE",
"360 293 LINE",
"343 299 LINE",
"259 328 LINE",
"229 338 LINE",
"181 373 LINE",
"146 419 LINE",
"127 479 LINE",
"127 512 LINE",
"127 572 LINE",
"172 663 LINE",
"252 723 LINE",
"364 753 LINE",
"431 753 LINE",
"479 753 LINE",
"559 730 LINE",
"616 693 LINE",
"646 646 LINE",
"649 623 LINE",
"705 623 LINE",
"676 498 LINE",
"499 498 LINE",
"509 543 LINE",
"500 579 LINE",
"475 604 LINE",
"437 617 LINE",
"413 617 LINE",
"389 617 LINE",
"346 608 LINE",
"314 588 LINE",
"295 557 LINE",
"295 535 LINE",
"295 516 LINE",
"311 492 LINE",
"347 474 LINE",
"382 461 LINE",
"483 424 LINE",
"545 401 LINE",
"603 311 LINE",
"603 245 LINE",
"603 185 LINE",
"556 89 LINE",
"472 23 LINE",
"355 -12 LINE",
"286 -12 LINE",
"235 -12 LINE",
"150 13 LINE",
"92 60 LINE",
"67 112 LINE",
"64 135 LINE",
"10 135 LINE"
);
},
{
closed = 1;
nodes = (
"460 961 LINE",
"619 961 LINE",
"619 949 LINE",
"470 809 LINE",
"355 809 LINE"
);
},
{
closed = 1;
nodes = (
"0 760 LINE",
"619 760 LINE",
"619 0 LINE",
"0 0 LINE"
);
}
);
};
components = (
{
name = S;
},
{
name = acute;
transform = "{1, 0, 0, 1, 225, 234}";
}
);
layerId = "8956C7A5-95B5-4256-B2D2-E489185594C4";
width = 619;
},
{
background = {
paths = (
{
closed = 1;
nodes = (
"39 260 LINE",
"217 260 LINE",
"204 210 LINE",
"211 169 LINE",
"236 142 LINE",
"279 127 LINE",
"309 127 LINE",
"336 127 LINE",
"380 142 LINE",
"411 167 LINE",
"427 203 LINE",
"427 224 LINE",
"427 240 LINE",
"413 264 LINE",
"390 281 LINE",
"360 293 LINE",
"343 299 LINE",
"259 328 LINE",
"229 338 LINE",
"181 373 LINE",
"146 419 LINE",
"127 479 LINE",
"127 512 LINE",
"127 572 LINE",
"172 663 LINE",
"252 723 LINE",
"364 753 LINE",
"431 753 LINE",
"479 753 LINE",
"559 730 LINE",
"616 693 LINE",
"646 646 LINE",
"649 623 LINE",
"705 623 LINE",
"676 498 LINE",
"499 498 LINE",
"509 543 LINE",
"500 579 LINE",
"475 604 LINE",
"437 617 LINE",
"413 617 LINE",
"389 617 LINE",
"346 608 LINE",
"314 588 LINE",
"295 557 LINE",
"295 535 LINE",
"295 516 LINE",
"311 492 LINE",
"347 474 LINE",
"382 461 LINE",
"483 424 LINE",
"545 401 LINE",
"603 311 LINE",
"603 245 LINE",
"603 185 LINE",
"556 89 LINE",
"472 23 LINE",
"355 -12 LINE",
"286 -12 LINE",
"235 -12 LINE",
"150 13 LINE",
"92 60 LINE",
"67 112 LINE",
"64 135 LINE",
"10 135 LINE"
);
},
{
closed = 1;
nodes = (
"460 961 LINE",
"619 961 LINE",
"619 949 LINE",
"470 809 LINE",
"355 809 LINE"
);
},
{
closed = 1;
nodes = (
"0 760 LINE",
"619 760 LINE",
"619 0 LINE",
"0 0 LINE"
);
}
);
};
components = (
{
name = S;
},
{
name = acute;
transform = "{1, 0, 0, 1, 219, 234}";
}
);
layerId = "EEC59083-BA83-4EFB-8B50-D01213A5FD15";
width = 624;
}
);
leftKerningGroup = S;
rightKerningGroup = S;
unicode = 015A;
},
{
color = 6;
glyphname = Scedilla;
layers = (
{
background = {
paths = (
{
closed = 1;
nodes = (
"39 260 LINE",
"217 260 LINE",
"204 210 LINE",
"211 169 LINE",
"236 142 LINE",
"279 127 LINE",
"309 127 LINE",
"336 127 LINE",
"380 142 LINE",
"411 167 LINE",
"427 203 LINE",
"427 224 LINE",
"427 240 LINE",
"413 264 LINE",
"390 281 LINE",
"360 293 LINE",
"343 299 LINE",
"259 328 LINE",
"229 338 LINE",
"181 373 LINE",
"146 419 LINE",
"127 479 LINE",
"127 512 LINE",
"127 572 LINE",
"172 663 LINE",
"252 723 LINE",
"364 753 LINE",
"431 753 LINE",
"479 753 LINE",
"559 730 LINE",
"616 693 LINE",
"646 646 LINE",
"649 623 LINE",
"705 623 LINE",
"676 498 LINE",
"499 498 LINE",
"509 543 LINE",
"500 579 LINE",
"475 604 LINE",
"437 617 LINE",
"413 617 LINE",
"389 617 LINE",
"346 608 LINE",
"314 588 LINE",
"295 557 LINE",
"295 535 LINE",
"295 516 LINE",
"311 492 LINE",
"347 474 LINE",
"382 461 LINE",
"483 424 LINE",
"545 401 LINE",
"603 311 LINE",
"603 245 LINE",
"603 185 LINE",
"556 89 LINE",
"472 23 LINE",
"355 -12 LINE",
"286 -12 LINE",
"235 -12 LINE",
"150 13 LINE",
"92 60 LINE",
"67 112 LINE",
"64 135 LINE",
"10 135 LINE"
);
},
{
closed = 1;
nodes = (
"115 -141 LINE",
"140 -135 LINE",
"178 -115 LINE",
"205 -86 LINE",
"224 -48 LINE",
"230 -23 LINE",
"359 -68 LINE",
"345 -102 LINE",
"303 -155 LINE",
"249 -193 LINE",
"185 -217 LINE",
"149 -221 LINE"
);
},
{
closed = 1;
nodes = (
"0 760 LINE",
"619 760 LINE",
"619 0 LINE",
"0 0 LINE"
);
}
);
};
components = (
{
name = S;
},
{
name = cedilla;
transform = "{1, 0, 0, 1, 129, 0}";
}
);
layerId = "8956C7A5-95B5-4256-B2D2-E489185594C4";
width = 619;
},
{
background = {
paths = (
{
closed = 1;
nodes = (
"39 260 LINE",
"217 260 LINE",
"204 210 LINE",
"211 169 LINE",
"236 142 LINE",
"279 127 LINE",
"309 127 LINE",
"336 127 LINE",
"380 142 LINE",
"411 167 LINE",
"427 203 LINE",
"427 224 LINE",
"427 240 LINE",
"413 264 LINE",
"390 281 LINE",
"360 293 LINE",
"343 299 LINE",
"259 328 LINE",
"229 338 LINE",
"181 373 LINE",
"146 419 LINE",
"127 479 LINE",
"127 512 LINE",
"127 572 LINE",
"172 663 LINE",
"252 723 LINE",
"364 753 LINE",
"431 753 LINE",
"479 753 LINE",
"559 730 LINE",
"616 693 LINE",
"646 646 LINE",
"649 623 LINE",
"705 623 LINE",
"676 498 LINE",
"499 498 LINE",
"509 543 LINE",
"500 579 LINE",
"475 604 LINE",
"437 617 LINE",
"413 617 LINE",
"389 617 LINE",
"346 608 LINE",
"314 588 LINE",
"295 557 LINE",
"295 535 LINE",
"295 516 LINE",
"311 492 LINE",
"347 474 LINE",
"382 461 LINE",
"483 424 LINE",
"545 401 LINE",
"603 311 LINE",
"603 245 LINE",
"603 185 LINE",
"556 89 LINE",
"472 23 LINE",
"355 -12 LINE",
"286 -12 LINE",
"235 -12 LINE",
"150 13 LINE",
"92 60 LINE",
"67 112 LINE",
"64 135 LINE",
"10 135 LINE"
);
},
{
closed = 1;
nodes = (
"115 -141 LINE",
"140 -135 LINE",
"178 -115 LINE",
"205 -86 LINE",
"224 -48 LINE",
"230 -23 LINE",
"359 -68 LINE",
"345 -102 LINE",
"303 -155 LINE",
"249 -193 LINE",
"185 -217 LINE",
"149 -221 LINE"
);
},
{
closed = 1;
nodes = (
"0 760 LINE",
"619 760 LINE",
"619 0 LINE",
"0 0 LINE"
);
}
);
};
components = (
{
name = S;
},
{
name = cedilla;
transform = "{1, 0, 0, 1, 117, 0}";
}
);
layerId = "EEC59083-BA83-4EFB-8B50-D01213A5FD15";
width = 624;
}
);
leftKerningGroup = S;
rightKerningGroup = S;
unicode = 015E;
},
{
color = 6;
glyphname = Scommaaccent;
layers = (
{
background = {
paths = (
{
closed = 1;
nodes = (
"39 260 LINE",
"217 260 LINE",
"204 210 LINE",
"211 169 LINE",
"236 142 LINE",
"279 127 LINE",
"309 127 LINE",
"336 127 LINE",
"380 142 LINE",
"411 167 LINE",
"427 203 LINE",
"427 224 LINE",
"427 240 LINE",
"413 264 LINE",
"390 281 LINE",
"360 293 LINE",
"343 299 LINE",
"259 328 LINE",
"229 338 LINE",
"181 373 LINE",
"146 419 LINE",
"127 479 LINE",
"127 512 LINE",
"127 572 LINE",
"172 663 LINE",
"252 723 LINE",
"364 753 LINE",
"431 753 LINE",
"479 753 LINE",
"559 730 LINE",
"616 693 LINE",
"646 646 LINE",
"649 623 LINE",
"705 623 LINE",
"676 498 LINE",
"499 498 LINE",
"509 543 LINE",
"500 579 LINE",
"475 604 LINE",
"437 617 LINE",
"413 617 LINE",
"389 617 LINE",
"346 608 LINE",
"314 588 LINE",
"295 557 LINE",
"295 535 LINE",
"295 516 LINE",
"311 492 LINE",
"347 474 LINE",
"382 461 LINE",
"483 424 LINE",
"545 401 LINE",
"603 311 LINE",
"603 245 LINE",
"603 185 LINE",
"556 89 LINE",
"472 23 LINE",
"355 -12 LINE",
"286 -12 LINE",
"235 -12 LINE",
"150 13 LINE",
"92 60 LINE",
"67 112 LINE",
"64 135 LINE",
"10 135 LINE"
);
},
{
closed = 1;
nodes = (
"267 -14 LINE",
"408 -65 LINE",
"312 -230 LINE",
"211 -195 LINE"
);
},
{
closed = 1;
nodes = (
"0 760 LINE",
"619 760 LINE",
"619 0 LINE",
"0 0 LINE"
);
}
);
};
components = (
{
name = S;
},
{
name = commaaccentcomb;
transform = "{1, 0, 0, 1, 212, 0}";
}
);
layerId = "8956C7A5-95B5-4256-B2D2-E489185594C4";
width = 619;
},
{
background = {
paths = (
{
closed = 1;
nodes = (
"39 260 LINE",
"217 260 LINE",
"204 210 LINE",
"211 169 LINE",
"236 142 LINE",
"279 127 LINE",
"309 127 LINE",
"336 127 LINE",
"380 142 LINE",
"411 167 LINE",
"427 203 LINE",
"427 224 LINE",
"427 240 LINE",
"413 264 LINE",
"390 281 LINE",
"360 293 LINE",
"343 299 LINE",
"259 328 LINE",
"229 338 LINE",
"181 373 LINE",
"146 419 LINE",
"127 479 LINE",
"127 512 LINE",
"127 572 LINE",
"172 663 LINE",
"252 723 LINE",
"364 753 LINE",
"431 753 LINE",
"479 753 LINE",
"559 730 LINE",
"616 693 LINE",
"646 646 LINE",
"649 623 LINE",
"705 623 LINE",
"676 498 LINE",
"499 498 LINE",
"509 543 LINE",
"500 579 LINE",
"475 604 LINE",
"437 617 LINE",
"413 617 LINE",
"389 617 LINE",
"346 608 LINE",
"314 588 LINE",
"295 557 LINE",
"295 535 LINE",
"295 516 LINE",
"311 492 LINE",
"347 474 LINE",
"382 461 LINE",
"483 424 LINE",
"545 401 LINE",
"603 311 LINE",
"603 245 LINE",
"603 185 LINE",
"556 89 LINE",
"472 23 LINE",
"355 -12 LINE",
"286 -12 LINE",
"235 -12 LINE",
"150 13 LINE",
"92 60 LINE",
"67 112 LINE",
"64 135 LINE",
"10 135 LINE"
);
},
{
closed = 1;
nodes = (
"267 -14 LINE",
"408 -65 LINE",
"312 -230 LINE",
"211 -195 LINE"
);
},
{
closed = 1;
nodes = (
"0 760 LINE",
"619 760 LINE",
"619 0 LINE",
"0 0 LINE"
);
}
);
};
components = (
{
name = S;
},
{
name = commaaccentcomb;
transform = "{1, 0, 0, 1, 194, 0}";
}
);
layerId = "EEC59083-BA83-4EFB-8B50-D01213A5FD15";
width = 624;
}
);
leftKerningGroup = S;
rightKerningGroup = S;
unicode = 0218;
},
{
glyphname = T;
layers = (
{
anchors = (
{
name = bottom;
position = "{346, 0}";
},
{
name = center;
position = "{431, 370}";
},
{
name = top;
position = "{516, 740}";
}
);
layerId = "EEC59083-BA83-4EFB-8B50-D01213A5FD15";
paths = (
{
closed = 1;
nodes = (
"218 0 LINE",
"458 0 LINE",
"477 84 LINE",
"407 84 LINE",
"539 660 LINE",
"719 660 LINE",
"693 545 LINE",
"793 545 LINE",
"838 740 LINE",
"178 740 LINE",
"133 545 LINE",
"233 545 LINE",
"259 660 LINE",
"438 660 LINE",
"305 84 LINE",
"237 84 LINE"
);
}
);
width = 665;
},
{
anchors = (
{
name = bottom;
position = "{336, 0}";
},
{
name = center;
position = "{441, 370}";
},
{
name = top;
position = "{526, 740}";
}
);
layerId = "8956C7A5-95B5-4256-B2D2-E489185594C4";
paths = (
{
closed = 1;
nodes = (
"196 0 LINE",
"526 0 LINE",
"557 134 LINE",
"475 134 LINE",
"584 606 LINE",
"679 606 LINE",
"658 515 LINE",
"826 515 LINE",
"878 740 LINE",
"182 740 LINE",
"130 515 LINE",
"298 515 LINE",
"319 606 LINE",
"414 606 LINE",
"304 134 LINE",
"227 134 LINE"
);
}
);
width = 668;
}
);
leftKerningGroup = T;
rightKerningGroup = T;
unicode = 0054;
},
{
color = 6;
glyphname = Tcaron;
layers = (
{
background = {
paths = (
{
closed = 1;
nodes = (
"167 134 LINE",
"244 134 LINE",
"354 606 LINE",
"259 606 LINE",
"238 515 LINE",
"70 515 LINE",
"122 740 LINE",
"818 740 LINE",
"766 515 LINE",
"598 515 LINE",
"619 606 LINE",
"524 606 LINE",
"415 134 LINE",
"497 134 LINE",
"466 0 LINE",
"136 0 LINE"
);
},
{
closed = 1;
nodes = (
"692 968 LINE",
"518 809 LINE",
"401 809 LINE",
"305 968 LINE",
"426 968 LINE",
"473 891 LINE",
"557 968 LINE"
);
},
{
closed = 1;
nodes = (
"0 760 LINE",
"668 760 LINE",
"668 0 LINE",
"0 0 LINE"
);
}
);
};
components = (
{
name = T;
},
{
name = caroncomb;
transform = "{1, 0, 0, 1, 286, 234}";
}
);
layerId = "8956C7A5-95B5-4256-B2D2-E489185594C4";
width = 668;
},
{
background = {
paths = (
{
closed = 1;
nodes = (
"167 134 LINE",
"244 134 LINE",
"354 606 LINE",
"259 606 LINE",
"238 515 LINE",
"70 515 LINE",
"122 740 LINE",
"818 740 LINE",
"766 515 LINE",
"598 515 LINE",
"619 606 LINE",
"524 606 LINE",
"415 134 LINE",
"497 134 LINE",
"466 0 LINE",
"136 0 LINE"
);
},
{
closed = 1;
nodes = (
"692 968 LINE",
"518 809 LINE",
"401 809 LINE",
"305 968 LINE",
"426 968 LINE",
"473 891 LINE",
"557 968 LINE"
);
},
{
closed = 1;
nodes = (
"0 760 LINE",
"668 760 LINE",
"668 0 LINE",
"0 0 LINE"
);
}
);
};
components = (
{
name = T;
},
{
name = caroncomb;
transform = "{1, 0, 0, 1, 250, 234}";
}
);
layerId = "EEC59083-BA83-4EFB-8B50-D01213A5FD15";
width = 665;
}
);
leftKerningGroup = T;
rightKerningGroup = T;
unicode = 0164;
},
{
color = 6;
glyphname = Tcommaaccent;
layers = (
{
background = {
paths = (
{
closed = 1;
nodes = (
"167 134 LINE",
"244 134 LINE",
"354 606 LINE",
"259 606 LINE",
"238 515 LINE",
"70 515 LINE",
"122 740 LINE",
"818 740 LINE",
"766 515 LINE",
"598 515 LINE",
"619 606 LINE",
"524 606 LINE",
"415 134 LINE",
"497 134 LINE",
"466 0 LINE",
"136 0 LINE"
);
},
{
closed = 1;
nodes = (
"231 -14 LINE",
"372 -65 LINE",
"276 -230 LINE",
"175 -195 LINE"
);
},
{
closed = 1;
nodes = (
"0 760 LINE",
"668 760 LINE",
"668 0 LINE",
"0 0 LINE"
);
}
);
};
components = (
{
name = T;
},
{
name = commaaccentcomb;
transform = "{1, 0, 0, 1, 290, 0}";
}
);
layerId = "8956C7A5-95B5-4256-B2D2-E489185594C4";
width = 668;
},
{
background = {
paths = (
{
closed = 1;
nodes = (
"167 134 LINE",
"244 134 LINE",
"354 606 LINE",
"259 606 LINE",
"238 515 LINE",
"70 515 LINE",
"122 740 LINE",
"818 740 LINE",
"766 515 LINE",
"598 515 LINE",
"619 606 LINE",
"524 606 LINE",
"415 134 LINE",
"497 134 LINE",
"466 0 LINE",
"136 0 LINE"
);
},
{
closed = 1;
nodes = (
"231 -14 LINE",
"372 -65 LINE",
"276 -230 LINE",
"175 -195 LINE"
);
},
{
closed = 1;
nodes = (
"0 760 LINE",
"668 760 LINE",
"668 0 LINE",
"0 0 LINE"
);
}
);
};
components = (
{
name = T;
},
{
name = commaaccentcomb;
transform = "{1, 0, 0, 1, 301, 0}";
}
);
layerId = "EEC59083-BA83-4EFB-8B50-D01213A5FD15";
width = 665;
}
);
leftKerningGroup = T;
rightKerningGroup = T;
unicode = 021A;
},
{
glyphname = U;
layers = (
{
anchors = (
{
name = top;
position = "{554, 740}";
}
);
layerId = "EEC59083-BA83-4EFB-8B50-D01213A5FD15";
paths = (
{
closed = 1;
nodes = (
"189 656 LINE",
"259 656 LINE",
"180 312 LINE",
"173 280 OFFCURVE",
"169 251 OFFCURVE",
"169 222 CURVE SMOOTH",
"166 74 OFFCURVE",
"273 -12 OFFCURVE",
"415 -12 CURVE SMOOTH",
"576 -12 OFFCURVE",
"694 80 OFFCURVE",
"745 303 CURVE",
"826 656 LINE",
"891 656 LINE",
"910 740 LINE",
"670 740 LINE",
"651 656 LINE",
"725 656 LINE",
"646 312 LINE SMOOTH",
"607 143 OFFCURVE",
"532 86 OFFCURVE",
"424 86 CURVE SMOOTH",
"317 86 OFFCURVE",
"271 160 OFFCURVE",
"272 232 CURVE SMOOTH",
"272 264 OFFCURVE",
"277 289 OFFCURVE",
"282 312 CURVE SMOOTH",
"361 656 LINE",
"429 656 LINE",
"448 740 LINE",
"208 740 LINE"
);
}
);
width = 771;
},
{
anchors = (
{
name = top;
position = "{570, 740}";
}
);
layerId = "8956C7A5-95B5-4256-B2D2-E489185594C4";
paths = (
{
closed = 1;
nodes = (
"181 606 LINE",
"254 606 LINE",
"185 309 LINE",
"178 277 OFFCURVE",
"175 247 OFFCURVE",
"175 221 CURVE SMOOTH",
"175 74 OFFCURVE",
"280 -15 OFFCURVE",
"427 -15 CURVE SMOOTH",
"606 -15 OFFCURVE",
"717 71 OFFCURVE",
"764 277 CURVE",
"840 606 LINE",
"903 606 LINE",
"934 740 LINE",
"635 740 LINE",
"604 606 LINE",
"671 606 LINE",
"600 299 LINE SMOOTH",
"572 179 OFFCURVE",
"527 139 OFFCURVE",
"452 139 CURVE SMOOTH",
"374 139 OFFCURVE",
"346 190 OFFCURVE",
"346 247 CURVE SMOOTH",
"346 264 OFFCURVE",
"348 281 OFFCURVE",
"352 299 CURVE SMOOTH",
"423 606 LINE",
"480 606 LINE",
"511 740 LINE",
"212 740 LINE"
);
}
);
width = 749;
}
);
leftKerningGroup = U;
rightKerningGroup = U;
unicode = 0055;
},
{
glyphname = Uhorn;
layers = (
{
anchors = (
{
name = _topright;
position = "{863.584, 740}";
},
{
name = bottom;
position = "{358, 0}";
},
{
name = ogonek;
position = "{637, 10}";
},
{
name = top;
position = "{483, 740}";
},
{
name = topright;
position = "{864, 740}";
}
);
layerId = "EEC59083-BA83-4EFB-8B50-D01213A5FD15";
paths = (
{
closed = 1;
nodes = (
"118 656 LINE",
"188 656 LINE",
"109 312 LINE",
"102 280 OFFCURVE",
"98 251 OFFCURVE",
"98 222 CURVE SMOOTH",
"95 74 OFFCURVE",
"202 -12 OFFCURVE",
"344 -12 CURVE SMOOTH",
"505 -12 OFFCURVE",
"623 80 OFFCURVE",
"674 303 CURVE",
"755 656 LINE",
"773 740 LINE",
"599 740 LINE",
"580 656 LINE",
"654 656 LINE",
"575 312 LINE SMOOTH",
"536 143 OFFCURVE",
"461 86 OFFCURVE",
"353 86 CURVE SMOOTH",
"246 86 OFFCURVE",
"200 160 OFFCURVE",
"201 232 CURVE SMOOTH",
"201 264 OFFCURVE",
"206 289 OFFCURVE",
"211 312 CURVE SMOOTH",
"290 656 LINE",
"358 656 LINE",
"377 740 LINE",
"137 740 LINE"
);
},
{
closed = 1;
nodes = (
"798 673 OFFCURVE",
"889 729 OFFCURVE",
"910 837 CURVE",
"831 837 LINE",
"819 774 OFFCURVE",
"782 740 OFFCURVE",
"726 740 CURVE",
"713 673 LINE"
);
}
);
width = 755;
},
{
anchors = (
{
name = bottom;
position = "{357, 0}";
},
{
name = ogonek;
position = "{616, 10}";
},
{
name = top;
position = "{495, 740}";
}
);
layerId = "8956C7A5-95B5-4256-B2D2-E489185594C4";
paths = (
{
closed = 1;
nodes = (
"106 606 LINE",
"179 606 LINE",
"110 309 LINE",
"103 277 OFFCURVE",
"100 247 OFFCURVE",
"100 221 CURVE SMOOTH",
"100 74 OFFCURVE",
"205 -15 OFFCURVE",
"352 -15 CURVE SMOOTH",
"531 -15 OFFCURVE",
"642 71 OFFCURVE",
"689 277 CURVE",
"765 606 LINE",
"797 740 LINE",
"560 740 LINE",
"529 606 LINE",
"596 606 LINE",
"525 299 LINE SMOOTH",
"497 179 OFFCURVE",
"452 139 OFFCURVE",
"377 139 CURVE SMOOTH",
"299 139 OFFCURVE",
"271 190 OFFCURVE",
"271 247 CURVE SMOOTH",
"271 264 OFFCURVE",
"273 281 OFFCURVE",
"277 299 CURVE SMOOTH",
"348 606 LINE",
"405 606 LINE",
"436 740 LINE",
"137 740 LINE"
);
},
{
closed = 1;
nodes = (
"792 654 OFFCURVE",
"914 703 OFFCURVE",
"940 837 CURVE",
"829 837 LINE",
"817 774 OFFCURVE",
"780 740 OFFCURVE",
"724 740 CURVE",
"707 654 LINE"
);
}
);
width = 775;
}
);
leftKerningGroup = U;
rightKerningGroup = Uhorn;
unicode = 01AF;
},
{
color = 6;
glyphname = Uhungarumlaut;
layers = (
{
background = {
paths = (
{
closed = 1;
nodes = (
"137 740 LINE",
"436 740 LINE",
"405 606 LINE",
"348 606 LINE",
"277 299 LINE",
"267 250 LINE",
"275 196 LINE",
"305 157 LINE",
"348 139 LINE",
"377 139 LINE",
"405 139 LINE",
"451 155 LINE",
"487 193 LINE",
"515 254 LINE",
"525 299 LINE",
"596 606 LINE",
"529 606 LINE",
"560 740 LINE",
"859 740 LINE",
"828 606 LINE",
"765 606 LINE",
"689 277 LINE",
"671 200 LINE",
"612 89 LINE",
"528 18 LINE",
"419 -15 LINE",
"352 -15 LINE",
"297 -15 LINE",
"205 18 LINE",
"138 77 LINE",
"103 160 LINE",
"98 254 LINE",
"110 309 LINE",
"179 606 LINE",
"106 606 LINE"
);
},
{
closed = 1;
nodes = (
"836 974 LINE",
"699 817 LINE",
"607 817 LINE",
"709 974 LINE"
);
},
{
closed = 1;
nodes = (
"642 974 LINE",
"517 817 LINE",
"426 817 LINE",
"516 974 LINE"
);
},
{
closed = 1;
nodes = (
"0 760 LINE",
"749 760 LINE",
"749 0 LINE",
"0 0 LINE"
);
}
);
};
components = (
{
name = U;
},
{
name = hungarumlautcomb;
transform = "{1, 0, 0, 1, 385, 234}";
}
);
layerId = "8956C7A5-95B5-4256-B2D2-E489185594C4";
width = 749;
},
{
background = {
paths = (
{
closed = 1;
nodes = (
"137 740 LINE",
"436 740 LINE",
"405 606 LINE",
"348 606 LINE",
"277 299 LINE",
"267 250 LINE",
"275 196 LINE",
"305 157 LINE",
"348 139 LINE",
"377 139 LINE",
"405 139 LINE",
"451 155 LINE",
"487 193 LINE",
"515 254 LINE",
"525 299 LINE",
"596 606 LINE",
"529 606 LINE",
"560 740 LINE",
"859 740 LINE",
"828 606 LINE",
"765 606 LINE",
"689 277 LINE",
"671 200 LINE",
"612 89 LINE",
"528 18 LINE",
"419 -15 LINE",
"352 -15 LINE",
"297 -15 LINE",
"205 18 LINE",
"138 77 LINE",
"103 160 LINE",
"98 254 LINE",
"110 309 LINE",
"179 606 LINE",
"106 606 LINE"
);
},
{
closed = 1;
nodes = (
"836 974 LINE",
"699 817 LINE",
"607 817 LINE",
"709 974 LINE"
);
},
{
closed = 1;
nodes = (
"642 974 LINE",
"517 817 LINE",
"426 817 LINE",
"516 974 LINE"
);
},
{
closed = 1;
nodes = (
"0 760 LINE",
"749 760 LINE",
"749 0 LINE",
"0 0 LINE"
);
}
);
};
components = (
{
name = U;
},
{
name = hungarumlautcomb;
transform = "{1, 0, 0, 1, 443, 234}";
}
);
layerId = "EEC59083-BA83-4EFB-8B50-D01213A5FD15";
width = 771;
}
);
leftKerningGroup = U;
rightKerningGroup = U;
unicode = 0170;
},
{
color = 6;
glyphname = Umacron;
layers = (
{
background = {
paths = (
{
closed = 1;
nodes = (
"137 740 LINE",
"436 740 LINE",
"405 606 LINE",
"348 606 LINE",
"277 299 LINE",
"267 250 LINE",
"275 196 LINE",
"305 157 LINE",
"348 139 LINE",
"377 139 LINE",
"405 139 LINE",
"451 155 LINE",
"487 193 LINE",
"515 254 LINE",
"525 299 LINE",
"596 606 LINE",
"529 606 LINE",
"560 740 LINE",
"859 740 LINE",
"828 606 LINE",
"765 606 LINE",
"689 277 LINE",
"671 200 LINE",
"612 89 LINE",
"528 18 LINE",
"419 -15 LINE",
"352 -15 LINE",
"297 -15 LINE",
"205 18 LINE",
"138 77 LINE",
"103 160 LINE",
"98 254 LINE",
"110 309 LINE",
"179 606 LINE",
"106 606 LINE"
);
},
{
closed = 1;
nodes = (
"667 809 LINE",
"331 809 LINE",
"331 914 LINE",
"667 914 LINE"
);
},
{
closed = 1;
nodes = (
"0 760 LINE",
"749 760 LINE",
"749 0 LINE",
"0 0 LINE"
);
}
);
};
components = (
{
name = U;
},
{
name = macroncomb;
transform = "{1, 0, 0, 1, 344, 234}";
}
);
layerId = "8956C7A5-95B5-4256-B2D2-E489185594C4";
width = 749;
},
{
background = {
paths = (
{
closed = 1;
nodes = (
"137 740 LINE",
"436 740 LINE",
"405 606 LINE",
"348 606 LINE",
"277 299 LINE",
"267 250 LINE",
"275 196 LINE",
"305 157 LINE",
"348 139 LINE",
"377 139 LINE",
"405 139 LINE",
"451 155 LINE",
"487 193 LINE",
"515 254 LINE",
"525 299 LINE",
"596 606 LINE",
"529 606 LINE",
"560 740 LINE",
"859 740 LINE",
"828 606 LINE",
"765 606 LINE",
"689 277 LINE",
"671 200 LINE",
"612 89 LINE",
"528 18 LINE",
"419 -15 LINE",
"352 -15 LINE",
"297 -15 LINE",
"205 18 LINE",
"138 77 LINE",
"103 160 LINE",
"98 254 LINE",
"110 309 LINE",
"179 606 LINE",
"106 606 LINE"
);
},
{
closed = 1;
nodes = (
"667 809 LINE",
"331 809 LINE",
"331 914 LINE",
"667 914 LINE"
);
},
{
closed = 1;
nodes = (
"0 760 LINE",
"749 760 LINE",
"749 0 LINE",
"0 0 LINE"
);
}
);
};
components = (
{
name = U;
},
{
name = macroncomb;
transform = "{1, 0, 0, 1, 309, 234}";
}
);
layerId = "EEC59083-BA83-4EFB-8B50-D01213A5FD15";
width = 771;
}
);
leftKerningGroup = U;
rightKerningGroup = U;
unicode = 016A;
},
{
color = 6;
glyphname = Uogonek;
layers = (
{
background = {
paths = (
{
closed = 1;
nodes = (
"635 740 LINE",
"934 740 LINE",
"903 606 LINE",
"839 606 LINE",
"764 277 LINE",
"749 213 LINE",
"710 124 LINE",
"656 60 LINE",
"585 15 LINE",
"539 -4 LINE",
"521 -12 LINE",
"475 -33 LINE",
"434 -58 LINE",
"407 -89 LINE",
"407 -105 LINE",
"407 -124 LINE",
"431 -138 LINE",
"442 -138 LINE",
"461 -138 LINE",
"487 -132 LINE",
"497 -127 LINE",
"521 -210 LINE",
"510 -216 LINE",
"460 -230 LINE",
"434 -230 LINE",
"404 -230 LINE",
"353 -216 LINE",
"314 -190 LINE",
"292 -152 LINE",
"292 -127 LINE",
"292 -89 LINE",
"334 -31 LINE",
"366 -9 LINE",
"323 -1 LINE",
"253 37 LINE",
"203 96 LINE",
"175 174 LINE",
"175 221 LINE",
"175 241 LINE",
"180 285 LINE",
"185 309 LINE",
"254 606 LINE",
"181 606 LINE",
"212 740 LINE",
"511 740 LINE",
"480 606 LINE",
"423 606 LINE",
"352 299 LINE",
"349 285 LINE",
"346 260 LINE",
"346 247 LINE",
"346 226 LINE",
"357 187 LINE",
"382 157 LINE",
"423 139 LINE",
"452 139 LINE",
"480 139 LINE",
"526 155 LINE",
"562 193 LINE",
"589 254 LINE",
"600 299 LINE",
"671 606 LINE",
"604 606 LINE"
);
},
{
closed = 1;
nodes = (
"75 760 LINE",
"824 760 LINE",
"824 0 LINE",
"75 0 LINE"
);
}
);
};
layerId = "8956C7A5-95B5-4256-B2D2-E489185594C4";
paths = (
{
closed = 1;
nodes = (
"500 47 LINE",
"426 31 OFFCURVE",
"292 -27 OFFCURVE",
"292 -127 CURVE SMOOTH",
"292 -193 OFFCURVE",
"355 -230 OFFCURVE",
"434 -230 CURVE SMOOTH",
"469 -230 OFFCURVE",
"507 -218 OFFCURVE",
"521 -210 CURVE",
"497 -127 LINE",
"484 -133 OFFCURVE",
"467 -138 OFFCURVE",
"442 -138 CURVE SMOOTH",
"428 -138 OFFCURVE",
"407 -130 OFFCURVE",
"407 -105 CURVE SMOOTH",
"407 -61 OFFCURVE",
"495 -24 OFFCURVE",
"569 9 CURVE"
);
},
{
closed = 1;
nodes = (
"181 606 LINE",
"480 606 LINE",
"511 740 LINE",
"212 740 LINE"
);
},
{
closed = 1;
nodes = (
"604 606 LINE",
"903 606 LINE",
"934 740 LINE",
"635 740 LINE"
);
},
{
closed = 1;
nodes = (
"675 624 LINE",
"600 299 LINE SMOOTH",
"572 179 OFFCURVE",
"527 139 OFFCURVE",
"452 139 CURVE SMOOTH",
"374 139 OFFCURVE",
"346 190 OFFCURVE",
"346 247 CURVE SMOOTH",
"346 264 OFFCURVE",
"348 281 OFFCURVE",
"352 299 CURVE SMOOTH",
"427 622 LINE",
"258 622 LINE",
"185 309 LINE SMOOTH",
"178 277 OFFCURVE",
"175 247 OFFCURVE",
"175 221 CURVE SMOOTH",
"175 74 OFFCURVE",
"280 -15 OFFCURVE",
"427 -15 CURVE SMOOTH",
"606 -15 OFFCURVE",
"717 71 OFFCURVE",
"764 277 CURVE SMOOTH",
"844 625 LINE"
);
}
);
width = 749;
},
{
background = {
paths = (
{
closed = 1;
nodes = (
"630 740 LINE",
"929 740 LINE",
"898 606 LINE",
"834 606 LINE",
"759 277 LINE",
"744 213 LINE",
"705 124 LINE",
"651 60 LINE",
"580 15 LINE",
"534 -4 LINE",
"516 -12 LINE",
"470 -33 LINE",
"429 -58 LINE",
"402 -89 LINE",
"402 -105 LINE",
"402 -124 LINE",
"426 -138 LINE",
"437 -138 LINE",
"456 -138 LINE",
"482 -132 LINE",
"492 -127 LINE",
"516 -210 LINE",
"505 -216 LINE",
"455 -230 LINE",
"429 -230 LINE",
"399 -230 LINE",
"348 -216 LINE",
"309 -190 LINE",
"287 -152 LINE",
"287 -127 LINE",
"287 -89 LINE",
"329 -31 LINE",
"361 -9 LINE",
"318 -1 LINE",
"248 37 LINE",
"198 96 LINE",
"170 174 LINE",
"170 221 LINE",
"170 241 LINE",
"175 285 LINE",
"180 309 LINE",
"249 606 LINE",
"176 606 LINE",
"207 740 LINE",
"506 740 LINE",
"475 606 LINE",
"418 606 LINE",
"347 299 LINE",
"344 285 LINE",
"341 260 LINE",
"341 247 LINE",
"341 226 LINE",
"352 187 LINE",
"377 157 LINE",
"418 139 LINE",
"447 139 LINE",
"475 139 LINE",
"521 155 LINE",
"557 193 LINE",
"584 254 LINE",
"595 299 LINE",
"666 606 LINE",
"599 606 LINE"
);
},
{
closed = 1;
nodes = (
"70 760 LINE",
"819 760 LINE",
"819 0 LINE",
"70 0 LINE"
);
}
);
};
layerId = "EEC59083-BA83-4EFB-8B50-D01213A5FD15";
paths = (
{
closed = 1;
nodes = (
"494 47 LINE",
"437 32 OFFCURVE",
"300 -27 OFFCURVE",
"300 -127 CURVE SMOOTH",
"300 -193 OFFCURVE",
"358 -230 OFFCURVE",
"437 -230 CURVE SMOOTH",
"474 -230 OFFCURVE",
"507 -219 OFFCURVE",
"524 -209 CURVE",
"503 -147 LINE",
"490 -153 OFFCURVE",
"465 -158 OFFCURVE",
"440 -158 CURVE SMOOTH",
"407 -158 OFFCURVE",
"385 -137 OFFCURVE",
"385 -110 CURVE SMOOTH",
"385 -61 OFFCURVE",
"448 -22 OFFCURVE",
"536 9 CURVE"
);
},
{
closed = 1;
nodes = (
"189 656 LINE",
"429 656 LINE",
"448 740 LINE",
"208 740 LINE"
);
},
{
closed = 1;
nodes = (
"651 656 LINE",
"891 656 LINE",
"910 740 LINE",
"670 740 LINE"
);
},
{
closed = 1;
nodes = (
"737 706 LINE",
"646 312 LINE SMOOTH",
"607 143 OFFCURVE",
"532 86 OFFCURVE",
"424 86 CURVE SMOOTH",
"317 86 OFFCURVE",
"271 160 OFFCURVE",
"272 232 CURVE SMOOTH",
"272 264 OFFCURVE",
"277 289 OFFCURVE",
"282 312 CURVE SMOOTH",
"372 704 LINE",
"270 702 LINE",
"180 312 LINE SMOOTH",
"173 280 OFFCURVE",
"169 251 OFFCURVE",
"169 222 CURVE SMOOTH",
"166 74 OFFCURVE",
"273 -12 OFFCURVE",
"415 -12 CURVE SMOOTH",
"576 -12 OFFCURVE",
"694 80 OFFCURVE",
"745 303 CURVE SMOOTH",
"838 707 LINE"
);
}
);
width = 771;
}
);
leftKerningGroup = U;
rightKerningGroup = U;
unicode = 0172;
},
{
color = 6;
glyphname = Uring;
layers = (
{
background = {
paths = (
{
closed = 1;
nodes = (
"212 740 LINE",
"511 740 LINE",
"480 606 LINE",
"423 606 LINE",
"352 299 LINE",
"342 250 LINE",
"350 196 LINE",
"380 157 LINE",
"423 139 LINE",
"452 139 LINE",
"480 139 LINE",
"526 155 LINE",
"562 193 LINE",
"590 254 LINE",
"600 299 LINE",
"671 606 LINE",
"604 606 LINE",
"635 740 LINE",
"934 740 LINE",
"903 606 LINE",
"840 606 LINE",
"764 277 LINE",
"746 200 LINE",
"687 89 LINE",
"603 18 LINE",
"494 -15 LINE",
"427 -15 LINE",
"372 -15 LINE",
"280 18 LINE",
"213 77 LINE",
"178 160 LINE",
"173 254 LINE",
"185 309 LINE",
"254 606 LINE",
"181 606 LINE"
);
},
{
closed = 1;
nodes = (
"697 989 LINE",
"729 989 LINE",
"785 965 LINE",
"828 923 LINE",
"852 866 LINE",
"852 834 LINE",
"852 803 LINE",
"828 746 LINE",
"785 704 LINE",
"729 679 LINE",
"697 679 LINE",
"665 679 LINE",
"609 704 LINE",
"567 746 LINE",
"542 803 LINE",
"542 834 LINE",
"542 866 LINE",
"567 923 LINE",
"609 965 LINE",
"665 989 LINE"
);
},
{
closed = 1;
nodes = (
"636 834 LINE",
"636 822 LINE",
"646 799 LINE",
"662 783 LINE",
"684 773 LINE",
"697 773 LINE",
"710 773 LINE",
"732 783 LINE",
"748 799 LINE",
"757 822 LINE",
"757 834 LINE",
"757 847 LINE",
"748 869 LINE",
"732 885 LINE",
"710 895 LINE",
"697 895 LINE",
"684 895 LINE",
"662 885 LINE",
"646 869 LINE",
"636 847 LINE"
);
},
{
closed = 1;
nodes = (
"75 760 LINE",
"824 760 LINE",
"824 0 LINE",
"75 0 LINE"
);
},
{
closed = 1;
nodes = (
"-737 0 LINE",
"-438 0 LINE",
"-407 134 LINE",
"-706 134 LINE"
);
},
{
closed = 1;
nodes = (
"-275 0 LINE",
"24 0 LINE",
"55 134 LINE",
"-244 134 LINE"
);
},
{
closed = 1;
nodes = (
"-514 236 LINE",
"-158 236 LINE",
"-184 377 LINE",
"-429 377 LINE"
);
},
{
closed = 1;
nodes = (
"-660 104 LINE",
"-485 104 LINE",
"-236 573 LINE",
"-201 106 LINE",
"-36 106 LINE",
"-94 740 LINE",
"-307 740 LINE"
);
},
{
closed = 1;
nodes = (
"-258 841 OFFCURVE",
"-231 867 OFFCURVE",
"-197 867 CURVE SMOOTH",
"-163 867 OFFCURVE",
"-137 841 OFFCURVE",
"-137 807 CURVE SMOOTH",
"-137 773 OFFCURVE",
"-163 746 OFFCURVE",
"-197 746 CURVE SMOOTH",
"-231 746 OFFCURVE",
"-258 773 OFFCURVE",
"-258 807 CURVE SMOOTH"
);
},
{
closed = 1;
nodes = (
"-282 962 OFFCURVE",
"-352 892 OFFCURVE",
"-352 807 CURVE SMOOTH",
"-352 722 OFFCURVE",
"-282 652 OFFCURVE",
"-197 652 CURVE SMOOTH",
"-112 652 OFFCURVE",
"-42 722 OFFCURVE",
"-42 807 CURVE SMOOTH",
"-42 892 OFFCURVE",
"-112 962 OFFCURVE",
"-197 962 CURVE SMOOTH"
);
},
{
closed = 1;
nodes = (
"1340 134 LINE",
"1414 134 LINE",
"1380 240 LINE",
"1153 240 LINE",
"1120 134 LINE",
"1198 134 LINE",
"1198 0 LINE",
"917 0 LINE",
"917 134 LINE",
"972 134 LINE",
"1166 716 LINE",
"1141 738 LINE",
"1112 799 LINE",
"1112 834 LINE",
"1112 866 LINE",
"1137 922 LINE",
"1179 964 LINE",
"1235 989 LINE",
"1267 989 LINE",
"1299 989 LINE",
"1355 964 LINE",
"1397 922 LINE",
"1422 866 LINE",
"1422 834 LINE",
"1422 802 LINE",
"1397 744 LINE",
"1375 723 LINE",
"1567 134 LINE",
"1621 134 LINE",
"1621 0 LINE",
"1340 0 LINE"
);
},
{
closed = 1;
nodes = (
"1191 365 LINE",
"1341 365 LINE",
"1266 606 LINE"
);
},
{
closed = 1;
nodes = (
"1206 834 LINE",
"1206 808 LINE",
"1241 773 LINE",
"1267 773 LINE",
"1293 773 LINE",
"1327 808 LINE",
"1327 834 LINE",
"1327 860 LINE",
"1293 894 LINE",
"1267 894 LINE",
"1241 894 LINE",
"1206 860 LINE"
);
}
);
};
layerId = "8956C7A5-95B5-4256-B2D2-E489185594C4";
paths = (
{
closed = 1;
nodes = (
"181 606 LINE",
"254 606 LINE",
"185 309 LINE SMOOTH",
"178 277 OFFCURVE",
"175 247 OFFCURVE",
"175 221 CURVE SMOOTH",
"175 74 OFFCURVE",
"280 -15 OFFCURVE",
"427 -15 CURVE SMOOTH",
"606 -15 OFFCURVE",
"717 71 OFFCURVE",
"764 277 CURVE SMOOTH",
"839 606 LINE",
"903 606 LINE",
"934 740 LINE",
"701 740 LINE",
"670 606 LINE",
"668 598 LINE",
"600 299 LINE SMOOTH",
"572 179 OFFCURVE",
"527 139 OFFCURVE",
"452 139 CURVE SMOOTH",
"374 139 OFFCURVE",
"346 190 OFFCURVE",
"346 247 CURVE SMOOTH",
"346 264 OFFCURVE",
"348 281 OFFCURVE",
"352 299 CURVE SMOOTH",
"421 598 LINE",
"423 606 LINE",
"454 740 LINE",
"212 740 LINE"
);
},
{
closed = 1;
nodes = (
"520 877 OFFCURVE",
"546 903 OFFCURVE",
"580 903 CURVE SMOOTH",
"614 903 OFFCURVE",
"640 877 OFFCURVE",
"640 843 CURVE SMOOTH",
"640 809 OFFCURVE",
"614 783 OFFCURVE",
"580 783 CURVE SMOOTH",
"546 783 OFFCURVE",
"520 809 OFFCURVE",
"520 843 CURVE SMOOTH"
);
},
{
closed = 1;
nodes = (
"500 989 OFFCURVE",
"434 923 OFFCURVE",
"434 843 CURVE SMOOTH",
"434 763 OFFCURVE",
"500 697 OFFCURVE",
"580 697 CURVE SMOOTH",
"660 697 OFFCURVE",
"726 763 OFFCURVE",
"726 843 CURVE SMOOTH",
"726 923 OFFCURVE",
"660 989 OFFCURVE",
"580 989 CURVE SMOOTH"
);
}
);
width = 749;
},
{
background = {
paths = (
{
closed = 1;
nodes = (
"207 740 LINE",
"506 740 LINE",
"475 606 LINE",
"418 606 LINE",
"347 299 LINE",
"337 250 LINE",
"345 196 LINE",
"375 157 LINE",
"418 139 LINE",
"447 139 LINE",
"475 139 LINE",
"521 155 LINE",
"557 193 LINE",
"585 254 LINE",
"595 299 LINE",
"666 606 LINE",
"599 606 LINE",
"630 740 LINE",
"929 740 LINE",
"898 606 LINE",
"835 606 LINE",
"759 277 LINE",
"741 200 LINE",
"682 89 LINE",
"598 18 LINE",
"489 -15 LINE",
"422 -15 LINE",
"367 -15 LINE",
"275 18 LINE",
"208 77 LINE",
"173 160 LINE",
"168 254 LINE",
"180 309 LINE",
"249 606 LINE",
"176 606 LINE"
);
},
{
closed = 1;
nodes = (
"692 989 LINE",
"724 989 LINE",
"780 965 LINE",
"823 923 LINE",
"847 866 LINE",
"847 834 LINE",
"847 803 LINE",
"823 746 LINE",
"780 704 LINE",
"724 679 LINE",
"692 679 LINE",
"660 679 LINE",
"604 704 LINE",
"562 746 LINE",
"537 803 LINE",
"537 834 LINE",
"537 866 LINE",
"562 923 LINE",
"604 965 LINE",
"660 989 LINE"
);
},
{
closed = 1;
nodes = (
"631 834 LINE",
"631 822 LINE",
"641 799 LINE",
"657 783 LINE",
"679 773 LINE",
"692 773 LINE",
"705 773 LINE",
"727 783 LINE",
"743 799 LINE",
"752 822 LINE",
"752 834 LINE",
"752 847 LINE",
"743 869 LINE",
"727 885 LINE",
"705 895 LINE",
"692 895 LINE",
"679 895 LINE",
"657 885 LINE",
"641 869 LINE",
"631 847 LINE"
);
},
{
closed = 1;
nodes = (
"70 760 LINE",
"819 760 LINE",
"819 0 LINE",
"70 0 LINE"
);
},
{
closed = 1;
nodes = (
"-3 0 LINE",
"237 0 LINE",
"256 84 LINE",
"16 84 LINE"
);
},
{
closed = 1;
nodes = (
"500 0 LINE",
"740 0 LINE",
"759 84 LINE",
"519 84 LINE"
);
},
{
closed = 1;
nodes = (
"248 251 LINE",
"612 251 LINE",
"599 335 LINE",
"296 335 LINE"
);
},
{
closed = 1;
nodes = (
"55 40 LINE",
"165 40 LINE",
"517 671 LINE",
"586 42 LINE",
"691 42 LINE",
"609 740 LINE",
"451 740 LINE"
);
},
{
closed = 1;
nodes = (
"481 827 OFFCURVE",
"505 851 OFFCURVE",
"532 851 CURVE SMOOTH",
"559 851 OFFCURVE",
"583 827 OFFCURVE",
"583 800 CURVE SMOOTH",
"583 773 OFFCURVE",
"559 749 OFFCURVE",
"532 749 CURVE SMOOTH",
"505 749 OFFCURVE",
"481 773 OFFCURVE",
"481 800 CURVE SMOOTH"
);
},
{
closed = 1;
nodes = (
"464 925 OFFCURVE",
"407 868 OFFCURVE",
"407 800 CURVE SMOOTH",
"407 732 OFFCURVE",
"464 675 OFFCURVE",
"532 675 CURVE SMOOTH",
"600 675 OFFCURVE",
"657 732 OFFCURVE",
"657 800 CURVE SMOOTH",
"657 868 OFFCURVE",
"600 925 OFFCURVE",
"532 925 CURVE SMOOTH"
);
},
{
closed = 1;
nodes = (
"506 134 LINE",
"580 134 LINE",
"546 240 LINE",
"319 240 LINE",
"286 134 LINE",
"364 134 LINE",
"364 0 LINE",
"83 0 LINE",
"83 134 LINE",
"138 134 LINE",
"332 716 LINE",
"307 738 LINE",
"278 799 LINE",
"278 834 LINE",
"278 866 LINE",
"303 922 LINE",
"345 964 LINE",
"401 989 LINE",
"433 989 LINE",
"465 989 LINE",
"521 964 LINE",
"563 922 LINE",
"588 866 LINE",
"588 834 LINE",
"588 802 LINE",
"563 744 LINE",
"541 723 LINE",
"733 134 LINE",
"787 134 LINE",
"787 0 LINE",
"506 0 LINE"
);
},
{
closed = 1;
nodes = (
"357 365 LINE",
"507 365 LINE",
"432 606 LINE"
);
},
{
closed = 1;
nodes = (
"372 834 LINE",
"372 808 LINE",
"407 773 LINE",
"433 773 LINE",
"459 773 LINE",
"493 808 LINE",
"493 834 LINE",
"493 860 LINE",
"459 894 LINE",
"433 894 LINE",
"407 894 LINE",
"372 860 LINE"
);
}
);
};
layerId = "EEC59083-BA83-4EFB-8B50-D01213A5FD15";
paths = (
{
closed = 1;
nodes = (
"189 656 LINE",
"259 656 LINE",
"180 312 LINE SMOOTH",
"173 280 OFFCURVE",
"169 251 OFFCURVE",
"169 222 CURVE SMOOTH",
"166 74 OFFCURVE",
"273 -12 OFFCURVE",
"415 -12 CURVE SMOOTH",
"576 -12 OFFCURVE",
"694 80 OFFCURVE",
"745 303 CURVE SMOOTH",
"826 656 LINE",
"891 656 LINE",
"910 740 LINE",
"670 740 LINE",
"651 656 LINE",
"725 656 LINE",
"646 312 LINE SMOOTH",
"607 143 OFFCURVE",
"532 86 OFFCURVE",
"424 86 CURVE SMOOTH",
"317 86 OFFCURVE",
"271 160 OFFCURVE",
"272 232 CURVE SMOOTH",
"272 264 OFFCURVE",
"277 289 OFFCURVE",
"282 312 CURVE SMOOTH",
"361 656 LINE",
"429 656 LINE",
"448 740 LINE",
"208 740 LINE"
);
},
{
closed = 1;
nodes = (
"522 917 OFFCURVE",
"546 941 OFFCURVE",
"573 941 CURVE SMOOTH",
"600 941 OFFCURVE",
"624 917 OFFCURVE",
"624 890 CURVE SMOOTH",
"624 863 OFFCURVE",
"600 839 OFFCURVE",
"573 839 CURVE SMOOTH",
"546 839 OFFCURVE",
"522 863 OFFCURVE",
"522 890 CURVE SMOOTH"
);
},
{
closed = 1;
nodes = (
"505 1015 OFFCURVE",
"448 958 OFFCURVE",
"448 890 CURVE SMOOTH",
"448 822 OFFCURVE",
"505 765 OFFCURVE",
"573 765 CURVE SMOOTH",
"641 765 OFFCURVE",
"698 822 OFFCURVE",
"698 890 CURVE SMOOTH",
"698 958 OFFCURVE",
"641 1015 OFFCURVE",
"573 1015 CURVE SMOOTH"
);
}
);
width = 771;
}
);
leftKerningGroup = U;
rightKerningGroup = U;
unicode = 016E;
},
{
glyphname = V;
layers = (
{
anchors = (
{
name = bottom;
position = "{392, 0}";
},
{
name = top;
position = "{542, 740}";
}
);
layerId = "EEC59083-BA83-4EFB-8B50-D01213A5FD15";
paths = (
{
closed = 1;
nodes = (
"647 656 LINE",
"713 656 LINE",
"398 85 LINE",
"349 656 LINE",
"418 656 LINE",
"437 740 LINE",
"197 740 LINE",
"178 656 LINE",
"246 656 LINE",
"309 0 LINE",
"458 0 LINE",
"822 656 LINE",
"887 656 LINE",
"906 740 LINE",
"666 740 LINE"
);
}
);
width = 717;
},
{
anchors = (
{
name = bottom;
position = "{365, 0}";
},
{
name = top;
position = "{545, 740}";
}
);
layerId = "8956C7A5-95B5-4256-B2D2-E489185594C4";
paths = (
{
closed = 1;
nodes = (
"594 606 LINE",
"651 606 LINE",
"435 223 LINE",
"405 606 LINE",
"460 606 LINE",
"491 740 LINE",
"192 740 LINE",
"161 606 LINE",
"237 606 LINE",
"289 0 LINE",
"488 0 LINE",
"834 606 LINE",
"893 606 LINE",
"924 740 LINE",
"625 740 LINE"
);
}
);
width = 683;
}
);
leftKerningGroup = V;
rightKerningGroup = V;
unicode = 0056;
},
{
glyphname = W;
layers = (
{
anchors = (
{
name = bottom;
position = "{588, 0}";
},
{
name = top;
position = "{758, 740}";
}
);
layerId = "EEC59083-BA83-4EFB-8B50-D01213A5FD15";
paths = (
{
closed = 1;
nodes = (
"1058 656 LINE",
"1132 656 LINE",
"837 95 LINE",
"813 740 LINE",
"709 740 LINE",
"387 95 LINE",
"353 656 LINE",
"418 656 LINE",
"437 740 LINE",
"197 740 LINE",
"178 656 LINE",
"253 656 LINE",
"297 0 LINE",
"436 0 LINE",
"722 572 LINE",
"748 0 LINE",
"887 0 LINE",
"1230 656 LINE",
"1298 656 LINE",
"1317 740 LINE",
"1077 740 LINE"
);
}
);
width = 1108;
},
{
anchors = (
{
name = bottom;
position = "{573, 0}";
},
{
name = top;
position = "{753, 740}";
}
);
layerId = "8956C7A5-95B5-4256-B2D2-E489185594C4";
paths = (
{
closed = 1;
nodes = (
"985 606 LINE",
"1061 606 LINE",
"858 203 LINE",
"850 740 LINE",
"674 740 LINE",
"415 201 LINE",
"396 606 LINE",
"457 606 LINE",
"488 740 LINE",
"189 740 LINE",
"158 606 LINE",
"238 606 LINE",
"272 0 LINE",
"472 0 LINE",
"705 476 LINE",
"709 0 LINE",
"909 0 LINE",
"1226 606 LINE",
"1284 606 LINE",
"1315 740 LINE",
"1016 740 LINE"
);
}
);
width = 1129;
}
);
leftKerningGroup = V;
rightKerningGroup = V;
unicode = 0057;
},
{
glyphname = X;
layers = (
{
anchors = (
{
name = bottom;
position = "{248, 0}";
},
{
name = top;
position = "{408, 740}";
}
);
layerId = "EEC59083-BA83-4EFB-8B50-D01213A5FD15";
paths = (
{
closed = 1;
nodes = (
"466 656 LINE",
"531 656 LINE",
"344 459 LINE",
"250 656 LINE",
"314 656 LINE",
"334 740 LINE",
"94 740 LINE",
"74 656 LINE",
"145 656 LINE",
"276 387 LINE",
"-12 84 LINE",
"-71 84 LINE",
"-90 0 LINE",
"150 0 LINE",
"169 84 LINE",
"111 84 LINE",
"318 302 LINE",
"424 84 LINE",
"358 84 LINE",
"339 0 LINE",
"579 0 LINE",
"598 84 LINE",
"525 84 LINE",
"386 373 LINE",
"655 656 LINE",
"706 656 LINE",
"726 740 LINE",
"486 740 LINE"
);
}
);
width = 726;
},
{
anchors = (
{
name = bottom;
position = "{279, 0}";
},
{
name = top;
position = "{469, 740}";
}
);
layerId = "8956C7A5-95B5-4256-B2D2-E489185594C4";
paths = (
{
closed = 1;
nodes = (
"501 606 LINE",
"550 606 LINE",
"417 489 LINE",
"341 606 LINE",
"398 606 LINE",
"429 740 LINE",
"99 740 LINE",
"68 606 LINE",
"152 606 LINE",
"297 384 LINE",
"12 134 LINE",
"-47 134 LINE",
"-78 0 LINE",
"252 0 LINE",
"283 134 LINE",
"234 134 LINE",
"378 261 LINE",
"461 134 LINE",
"403 134 LINE",
"372 0 LINE",
"702 0 LINE",
"733 134 LINE",
"650 134 LINE",
"498 366 LINE",
"770 606 LINE",
"831 606 LINE",
"862 740 LINE",
"532 740 LINE"
);
}
);
width = 790;
}
);
leftKerningGroup = X;
rightKerningGroup = X;
unicode = 0058;
},
{
glyphname = Y;
layers = (
{
anchors = (
{
name = bottom;
position = "{356, 0}";
},
{
name = top;
position = "{521, 740}";
},
{
name = topleft;
position = "{223, 740}";
}
);
layerId = "EEC59083-BA83-4EFB-8B50-D01213A5FD15";
paths = (
{
closed = 1;
nodes = (
"178 656 LINE",
"250 656 LINE",
"376 337 LINE",
"318 84 LINE",
"249 84 LINE",
"230 0 LINE",
"470 0 LINE",
"489 84 LINE",
"420 84 LINE",
"479 335 LINE",
"765 656 LINE",
"825 656 LINE",
"844 740 LINE",
"604 740 LINE",
"585 656 LINE",
"644 656 LINE",
"444 425 LINE",
"358 656 LINE",
"418 656 LINE",
"437 740 LINE",
"197 740 LINE"
);
}
);
width = 645;
},
{
anchors = (
{
name = bottom;
position = "{399, 0}";
},
{
name = top;
position = "{560, 740}";
},
{
name = topleft;
position = "{213, 740}";
}
);
layerId = "8956C7A5-95B5-4256-B2D2-E489185594C4";
paths = (
{
closed = 1;
nodes = (
"171 606 LINE",
"236 606 LINE",
"373 310 LINE",
"333 134 LINE",
"255 134 LINE",
"224 0 LINE",
"554 0 LINE",
"585 134 LINE",
"502 134 LINE",
"540 300 LINE",
"831 606 LINE",
"880 606 LINE",
"911 740 LINE",
"612 740 LINE",
"581 606 LINE",
"624 606 LINE",
"484 446 LINE",
"419 606 LINE",
"470 606 LINE",
"501 740 LINE",
"202 740 LINE"
);
}
);
width = 680;
}
);
leftKerningGroup = Y;
rightKerningGroup = Y;
unicode = 0059;
},
{
glyphname = Z;
layers = (
{
anchors = (
{
name = top;
position = "{350, 740}";
}
);
layerId = "EEC59083-BA83-4EFB-8B50-D01213A5FD15";
paths = (
{
closed = 1;
nodes = (
"645 740 LINE",
"107 740 LINE",
"58 528 LINE",
"159 528 LINE",
"188 654 LINE",
"510 654 LINE",
"-44 113 LINE",
"-69 0 LINE",
"473 0 LINE",
"521 210 LINE",
"420 210 LINE",
"392 87 LINE",
"59 87 LINE",
"622 634 LINE"
);
}
);
width = 633;
},
{
anchors = (
{
name = top;
position = "{421, 740}";
}
);
layerId = "8956C7A5-95B5-4256-B2D2-E489185594C4";
paths = (
{
closed = 1;
nodes = (
"690 740 LINE",
"122 740 LINE",
"61 478 LINE",
"229 478 LINE",
"258 606 LINE",
"456 606 LINE",
"-11 153 LINE",
"-46 0 LINE",
"528 0 LINE",
"588 260 LINE",
"418 260 LINE",
"389 134 LINE",
"179 134 LINE",
"655 587 LINE"
);
}
);
width = 645;
}
);
leftKerningGroup = Z;
rightKerningGroup = Z;
unicode = 005A;
},
{
color = 6;
glyphname = Zacute;
layers = (
{
background = {
paths = (
{
closed = 1;
nodes = (
"710 587 LINE",
"235 134 LINE",
"445 134 LINE",
"474 260 LINE",
"644 260 LINE",
"583 0 LINE",
"10 0 LINE",
"44 153 LINE",
"511 606 LINE",
"313 606 LINE",
"285 478 LINE",
"117 478 LINE",
"178 740 LINE",
"746 740 LINE"
);
},
{
closed = 1;
nodes = (
"473 961 LINE",
"632 961 LINE",
"632 949 LINE",
"483 809 LINE",
"368 809 LINE"
);
},
{
closed = 1;
nodes = (
"0 760 LINE",
"621 760 LINE",
"621 0 LINE",
"0 0 LINE"
);
}
);
};
components = (
{
name = Z;
},
{
name = acute;
transform = "{1, 0, 0, 1, 250, 234}";
}
);
layerId = "8956C7A5-95B5-4256-B2D2-E489185594C4";
width = 645;
},
{
background = {
paths = (
{
closed = 1;
nodes = (
"710 587 LINE",
"235 134 LINE",
"445 134 LINE",
"474 260 LINE",
"644 260 LINE",
"583 0 LINE",
"10 0 LINE",
"44 153 LINE",
"511 606 LINE",
"313 606 LINE",
"285 478 LINE",
"117 478 LINE",
"178 740 LINE",
"746 740 LINE"
);
},
{
closed = 1;
nodes = (
"473 961 LINE",
"632 961 LINE",
"632 949 LINE",
"483 809 LINE",
"368 809 LINE"
);
},
{
closed = 1;
nodes = (
"0 760 LINE",
"621 760 LINE",
"621 0 LINE",
"0 0 LINE"
);
}
);
};
components = (
{
name = Z;
},
{
name = acute;
transform = "{1, 0, 0, 1, 176, 234}";
}
);
layerId = "EEC59083-BA83-4EFB-8B50-D01213A5FD15";
width = 633;
}
);
leftKerningGroup = Z;
rightKerningGroup = Z;
unicode = 0179;
},
{
color = 6;
glyphname = Zdotaccent;
layers = (
{
background = {
paths = (
{
closed = 1;
nodes = (
"710 587 LINE",
"235 134 LINE",
"445 134 LINE",
"474 260 LINE",
"644 260 LINE",
"583 0 LINE",
"10 0 LINE",
"44 153 LINE",
"511 606 LINE",
"313 606 LINE",
"285 478 LINE",
"117 478 LINE",
"178 740 LINE",
"746 740 LINE"
);
},
{
closed = 1;
nodes = (
"354 903 LINE",
"354 921 LINE",
"367 953 LINE",
"391 976 LINE",
"422 990 LINE",
"441 990 LINE",
"458 990 LINE",
"490 976 LINE",
"513 953 LINE",
"527 921 LINE",
"527 903 LINE",
"527 885 LINE",
"513 853 LINE",
"490 830 LINE",
"458 816 LINE",
"441 816 LINE",
"422 816 LINE",
"391 830 LINE",
"367 853 LINE",
"354 885 LINE"
);
},
{
closed = 1;
nodes = (
"0 760 LINE",
"621 760 LINE",
"621 0 LINE",
"0 0 LINE"
);
}
);
};
components = (
{
name = Z;
},
{
name = dotaccentcomb;
transform = "{1, 0, 0, 1, 224, 234}";
}
);
layerId = "8956C7A5-95B5-4256-B2D2-E489185594C4";
width = 645;
},
{
background = {
paths = (
{
closed = 1;
nodes = (
"710 587 LINE",
"235 134 LINE",
"445 134 LINE",
"474 260 LINE",
"644 260 LINE",
"583 0 LINE",
"10 0 LINE",
"44 153 LINE",
"511 606 LINE",
"313 606 LINE",
"285 478 LINE",
"117 478 LINE",
"178 740 LINE",
"746 740 LINE"
);
},
{
closed = 1;
nodes = (
"354 903 LINE",
"354 921 LINE",
"367 953 LINE",
"391 976 LINE",
"422 990 LINE",
"441 990 LINE",
"458 990 LINE",
"490 976 LINE",
"513 953 LINE",
"527 921 LINE",
"527 903 LINE",
"527 885 LINE",
"513 853 LINE",
"490 830 LINE",
"458 816 LINE",
"441 816 LINE",
"422 816 LINE",
"391 830 LINE",
"367 853 LINE",
"354 885 LINE"
);
},
{
closed = 1;
nodes = (
"0 760 LINE",
"621 760 LINE",
"621 0 LINE",
"0 0 LINE"
);
}
);
};
components = (
{
name = Z;
},
{
name = dotaccentcomb;
transform = "{1, 0, 0, 1, 165, 234}";
}
);
layerId = "EEC59083-BA83-4EFB-8B50-D01213A5FD15";
width = 633;
}
);
leftKerningGroup = Z;
rightKerningGroup = Z;
unicode = 017B;
},
{
glyphname = a;
layers = (
{
anchors = (
{
name = top;
position = "{360, 506}";
}
);
layerId = "EEC59083-BA83-4EFB-8B50-D01213A5FD15";
paths = (
{
closed = 1;
nodes = (
"483 506 LINE",
"476 479 LINE",
"449 503 OFFCURVE",
"404 519 OFFCURVE",
"355 519 CURVE SMOOTH",
"184 519 OFFCURVE",
"42 387 OFFCURVE",
"42 198 CURVE SMOOTH",
"42 82 OFFCURVE",
"129 -9 OFFCURVE",
"240 -9 CURVE SMOOTH",
"286 -9 OFFCURVE",
"330 5 OFFCURVE",
"374 35 CURVE",
"366 0 LINE",
"543 0 LINE",
"562 84 LINE",
"483 84 LINE",
"581 506 LINE"
);
},
{
closed = 1;
nodes = (
"192 75 OFFCURVE",
"143 125 OFFCURVE",
"143 208 CURVE SMOOTH",
"143 351 OFFCURVE",
"248 435 OFFCURVE",
"348 435 CURVE SMOOTH",
"405 435 OFFCURVE",
"441 417 OFFCURVE",
"457 396 CURVE",
"395 125 LINE",
"364 100 OFFCURVE",
"312 75 OFFCURVE",
"263 75 CURVE SMOOTH"
);
}
);
width = 638;
},
{
anchors = (
{
name = top;
position = "{369, 506}";
}
);
layerId = "8956C7A5-95B5-4256-B2D2-E489185594C4";
paths = (
{
closed = 1;
nodes = (
"492 506 LINE",
"486 481 LINE",
"461 501 OFFCURVE",
"411 518 OFFCURVE",
"364 518 CURVE SMOOTH",
"203 518 OFFCURVE",
"50 402 OFFCURVE",
"50 214 CURVE SMOOTH",
"50 69 OFFCURVE",
"156 -8 OFFCURVE",
"261 -8 CURVE SMOOTH",
"316 -8 OFFCURVE",
"359 13 OFFCURVE",
"384 39 CURVE",
"375 0 LINE",
"634 0 LINE",
"665 134 LINE",
"572 134 LINE",
"658 506 LINE"
);
},
{
closed = 1;
nodes = (
"257 143 OFFCURVE",
"215 175 OFFCURVE",
"215 237 CURVE SMOOTH",
"215 311 OFFCURVE",
"276 370 OFFCURVE",
"346 370 CURVE SMOOTH",
"389 370 OFFCURVE",
"431 350 OFFCURVE",
"448 314 CURVE",
"423 208 LINE",
"396 164 OFFCURVE",
"349 143 OFFCURVE",
"307 143 CURVE SMOOTH"
);
}
);
width = 679;
}
);
leftKerningGroup = a;
rightKerningGroup = n;
unicode = 0061;
},
{
color = 6;
glyphname = amacron;
layers = (
{
background = {
paths = (
{
closed = 1;
nodes = (
"384 39 LINE",
"366 20 LINE",
"336 6 LINE",
"304 -8 LINE",
"261 -8 LINE",
"222 -8 LINE",
"146 21 LINE",
"86 77 LINE",
"50 160 LINE",
"50 214 LINE",
"50 261 LINE",
"74 342 LINE",
"117 410 LINE",
"176 463 LINE",
"246 499 LINE",
"324 518 LINE",
"364 518 LINE",
"386 518 LINE",
"418 512 LINE",
"459 500 LINE",
"486 481 LINE",
"492 506 LINE",
"658 506 LINE",
"572 134 LINE",
"665 134 LINE",
"634 0 LINE",
"375 0 LINE"
);
},
{
closed = 1;
nodes = (
"402 182 LINE",
"423 208 LINE",
"448 314 LINE",
"442 325 LINE",
"423 346 LINE",
"396 362 LINE",
"363 370 LINE",
"346 370 LINE",
"320 370 LINE",
"272 349 LINE",
"236 313 LINE",
"215 265 LINE",
"215 237 LINE",
"215 213 LINE",
"229 178 LINE",
"255 155 LINE",
"288 143 LINE",
"307 143 LINE",
"323 143 LINE",
"357 151 LINE",
"388 168 LINE"
);
},
{
closed = 1;
nodes = (
"537 574 LINE",
"201 574 LINE",
"201 679 LINE",
"537 679 LINE"
);
},
{
closed = 1;
nodes = (
"0 760 LINE",
"679 760 LINE",
"679 0 LINE",
"0 0 LINE"
);
}
);
};
components = (
{
name = a;
},
{
name = macroncomb;
transform = "{1, 0, 0, 1, 143, 0}";
}
);
layerId = "8956C7A5-95B5-4256-B2D2-E489185594C4";
width = 679;
},
{
background = {
paths = (
{
closed = 1;
nodes = (
"384 39 LINE",
"366 20 LINE",
"336 6 LINE",
"304 -8 LINE",
"261 -8 LINE",
"222 -8 LINE",
"146 21 LINE",
"86 77 LINE",
"50 160 LINE",
"50 214 LINE",
"50 261 LINE",
"74 342 LINE",
"117 410 LINE",
"176 463 LINE",
"246 499 LINE",
"324 518 LINE",
"364 518 LINE",
"386 518 LINE",
"418 512 LINE",
"459 500 LINE",
"486 481 LINE",
"492 506 LINE",
"658 506 LINE",
"572 134 LINE",
"665 134 LINE",
"634 0 LINE",
"375 0 LINE"
);
},
{
closed = 1;
nodes = (
"402 182 LINE",
"423 208 LINE",
"448 314 LINE",
"442 325 LINE",
"423 346 LINE",
"396 362 LINE",
"363 370 LINE",
"346 370 LINE",
"320 370 LINE",
"272 349 LINE",
"236 313 LINE",
"215 265 LINE",
"215 237 LINE",
"215 213 LINE",
"229 178 LINE",
"255 155 LINE",
"288 143 LINE",
"307 143 LINE",
"323 143 LINE",
"357 151 LINE",
"388 168 LINE"
);
},
{
closed = 1;
nodes = (
"537 574 LINE",
"201 574 LINE",
"201 679 LINE",
"537 679 LINE"
);
},
{
closed = 1;
nodes = (
"0 760 LINE",
"679 760 LINE",
"679 0 LINE",
"0 0 LINE"
);
}
);
};
components = (
{
name = a;
},
{
name = macroncomb;
transform = "{1, 0, 0, 1, 115, 0}";
}
);
layerId = "EEC59083-BA83-4EFB-8B50-D01213A5FD15";
width = 638;
}
);
leftKerningGroup = a;
rightKerningGroup = a;
unicode = 0101;
},
{
color = 6;
glyphname = aogonek;
layers = (
{
background = {
paths = (
{
closed = 1;
nodes = (
"658 506 LINE",
"572 134 LINE",
"665 134 LINE",
"634 0 LINE",
"575 0 LINE",
"547 0 LINE",
"484 -18 LINE",
"432 -48 LINE",
"397 -86 LINE",
"397 -106 LINE",
"397 -125 LINE",
"424 -139 LINE",
"435 -139 LINE",
"454 -139 LINE",
"477 -133 LINE",
"487 -128 LINE",
"511 -211 LINE",
"500 -217 LINE",
"450 -231 LINE",
"424 -231 LINE",
"394 -231 LINE",
"343 -217 LINE",
"304 -191 LINE",
"282 -153 LINE",
"282 -128 LINE",
"282 -89 LINE",
"335 -23 LINE",
"375 0 LINE",
"384 38 LINE",
"365 18 LINE",
"303 -8 LINE",
"261 -8 LINE",
"222 -8 LINE",
"146 21 LINE",
"86 77 LINE",
"50 160 LINE",
"50 214 LINE",
"50 284 LINE",
"103 397 LINE",
"190 476 LINE",
"304 518 LINE",
"364 518 LINE",
"399 518 LINE",
"467 497 LINE",
"486 481 LINE",
"492 506 LINE"
);
},
{
closed = 1;
nodes = (
"307 143 LINE",
"338 143 LINE",
"402 174 LINE",
"423 208 LINE",
"447 314 LINE",
"434 341 LINE",
"378 370 LINE",
"346 370 LINE",
"320 370 LINE",
"272 349 LINE",
"236 313 LINE",
"215 265 LINE",
"215 237 LINE",
"215 190 LINE",
"269 143 LINE"
);
},
{
closed = 1;
nodes = (
"0 760 LINE",
"679 760 LINE",
"679 0 LINE",
"0 0 LINE"
);
}
);
};
layerId = "8956C7A5-95B5-4256-B2D2-E489185594C4";
paths = (
{
closed = 1;
nodes = (
"535 46 LINE",
"429 46 OFFCURVE",
"282 -28 OFFCURVE",
"282 -128 CURVE SMOOTH",
"282 -194 OFFCURVE",
"345 -231 OFFCURVE",
"424 -231 CURVE SMOOTH",
"459 -231 OFFCURVE",
"497 -219 OFFCURVE",
"511 -211 CURVE",
"487 -128 LINE",
"474 -134 OFFCURVE",
"460 -139 OFFCURVE",
"435 -139 CURVE SMOOTH",
"421 -139 OFFCURVE",
"397 -131 OFFCURVE",
"397 -106 CURVE SMOOTH",
"397 -53 OFFCURVE",
"500 0 OFFCURVE",
"575 0 CURVE"
);
},
{
closed = 1;
nodes = (
"488 480 LINE",
"463 501 OFFCURVE",
"412 518 OFFCURVE",
"364 518 CURVE SMOOTH",
"203 518 OFFCURVE",
"50 402 OFFCURVE",
"50 214 CURVE SMOOTH",
"50 69 OFFCURVE",
"156 -8 OFFCURVE",
"261 -8 CURVE SMOOTH",
"318 -8 OFFCURVE",
"362 14 OFFCURVE",
"386 41 CURVE",
"426 213 LINE",
"399 165 OFFCURVE",
"350 143 OFFCURVE",
"307 143 CURVE SMOOTH",
"257 143 OFFCURVE",
"215 175 OFFCURVE",
"215 237 CURVE SMOOTH",
"215 311 OFFCURVE",
"276 370 OFFCURVE",
"346 370 CURVE SMOOTH",
"391 370 OFFCURVE",
"435 348 OFFCURVE",
"450 308 CURVE"
);
},
{
closed = 1;
nodes = (
"492 506 LINE",
"375 0 LINE",
"541 0 LINE",
"658 506 LINE"
);
},
{
closed = 1;
nodes = (
"434 0 LINE",
"634 0 LINE",
"665 134 LINE",
"465 134 LINE"
);
}
);
width = 679;
},
{
background = {
paths = (
{
closed = 1;
nodes = (
"655 506 LINE",
"569 134 LINE",
"662 134 LINE",
"631 0 LINE",
"572 0 LINE",
"544 0 LINE",
"481 -18 LINE",
"429 -48 LINE",
"394 -86 LINE",
"394 -106 LINE",
"394 -125 LINE",
"421 -139 LINE",
"432 -139 LINE",
"451 -139 LINE",
"474 -133 LINE",
"484 -128 LINE",
"508 -211 LINE",
"497 -217 LINE",
"447 -231 LINE",
"421 -231 LINE",
"391 -231 LINE",
"340 -217 LINE",
"301 -191 LINE",
"279 -153 LINE",
"279 -128 LINE",
"279 -89 LINE",
"332 -23 LINE",
"372 0 LINE",
"381 38 LINE",
"362 18 LINE",
"300 -8 LINE",
"258 -8 LINE",
"219 -8 LINE",
"143 21 LINE",
"83 77 LINE",
"47 160 LINE",
"47 214 LINE",
"47 284 LINE",
"100 397 LINE",
"187 476 LINE",
"301 518 LINE",
"361 518 LINE",
"396 518 LINE",
"464 497 LINE",
"483 481 LINE",
"489 506 LINE"
);
},
{
closed = 1;
nodes = (
"304 143 LINE",
"335 143 LINE",
"399 174 LINE",
"420 208 LINE",
"444 314 LINE",
"431 341 LINE",
"375 370 LINE",
"343 370 LINE",
"317 370 LINE",
"269 349 LINE",
"233 313 LINE",
"212 265 LINE",
"212 237 LINE",
"212 190 LINE",
"266 143 LINE"
);
},
{
closed = 1;
nodes = (
"-3 760 LINE",
"676 760 LINE",
"676 0 LINE",
"-3 0 LINE"
);
}
);
};
layerId = "EEC59083-BA83-4EFB-8B50-D01213A5FD15";
paths = (
{
closed = 1;
nodes = (
"461 38 LINE",
"404 23 OFFCURVE",
"288 -27 OFFCURVE",
"288 -127 CURVE SMOOTH",
"288 -193 OFFCURVE",
"346 -230 OFFCURVE",
"425 -230 CURVE SMOOTH",
"462 -230 OFFCURVE",
"495 -219 OFFCURVE",
"512 -209 CURVE",
"491 -147 LINE",
"478 -153 OFFCURVE",
"453 -158 OFFCURVE",
"428 -158 CURVE SMOOTH",
"395 -158 OFFCURVE",
"373 -137 OFFCURVE",
"373 -110 CURVE SMOOTH",
"373 -61 OFFCURVE",
"441 0 OFFCURVE",
"505 0 CURVE"
);
},
{
closed = 1;
nodes = (
"502 458 LINE",
"481 492 OFFCURVE",
"424 519 OFFCURVE",
"361 519 CURVE SMOOTH",
"190 519 OFFCURVE",
"48 387 OFFCURVE",
"48 198 CURVE SMOOTH",
"48 82 OFFCURVE",
"135 -9 OFFCURVE",
"246 -9 CURVE SMOOTH",
"307 -9 OFFCURVE",
"363 15 OFFCURVE",
"420 66 CURVE",
"416 139 LINE",
"389 110 OFFCURVE",
"327 75 OFFCURVE",
"269 75 CURVE SMOOTH",
"198 75 OFFCURVE",
"149 125 OFFCURVE",
"149 208 CURVE SMOOTH",
"149 351 OFFCURVE",
"254 435 OFFCURVE",
"354 435 CURVE SMOOTH",
"422 435 OFFCURVE",
"459 410 OFFCURVE",
"471 384 CURVE"
);
},
{
closed = 1;
nodes = (
"489 506 LINE",
"372 0 LINE",
"470 0 LINE",
"587 506 LINE"
);
},
{
closed = 1;
nodes = (
"404 0 LINE",
"549 0 LINE",
"568 84 LINE",
"423 84 LINE"
);
}
);
width = 644;
}
);
leftKerningGroup = a;
rightKerningGroup = a;
unicode = 0105;
},
{
glyphname = ae;
layers = (
{
layerId = "EEC59083-BA83-4EFB-8B50-D01213A5FD15";
paths = (
{
closed = 1;
nodes = (
"123 296 OFFCURVE",
"-29 264 OFFCURVE",
"-29 120 CURVE SMOOTH",
"-29 27 OFFCURVE",
"44 -14 OFFCURVE",
"138 -14 CURVE SMOOTH",
"219 -14 OFFCURVE",
"297 22 OFFCURVE",
"348 91 CURVE",
"386 23 OFFCURVE",
"458 -15 OFFCURVE",
"541 -15 CURVE SMOOTH",
"629 -15 OFFCURVE",
"711 22 OFFCURVE",
"755 80 CURVE",
"731 98 OFFCURVE",
"707 115 OFFCURVE",
"683 133 CURVE",
"651 93 OFFCURVE",
"601 71 OFFCURVE",
"549 71 CURVE SMOOTH",
"471 71 OFFCURVE",
"415 133 OFFCURVE",
"415 215 CURVE SMOOTH",
"415 221 OFFCURVE",
"415 227 OFFCURVE",
"416 236 CURVE",
"805 236 LINE",
"810 262 OFFCURVE",
"814 294 OFFCURVE",
"814 327 CURVE SMOOTH",
"814 427 OFFCURVE",
"739 521 OFFCURVE",
"610 521 CURVE SMOOTH",
"536 521 OFFCURVE",
"469 494 OFFCURVE",
"418 449 CURVE",
"396 496 OFFCURVE",
"348 517 OFFCURVE",
"277 517 CURVE SMOOTH",
"213 517 OFFCURVE",
"138 494 OFFCURVE",
"83 463 CURVE",
"88 442 OFFCURVE",
"93 421 OFFCURVE",
"98 400 CURVE",
"132 419 OFFCURVE",
"189 437 OFFCURVE",
"250 437 CURVE SMOOTH",
"315 437 OFFCURVE",
"352 404 OFFCURVE",
"335 332 CURVE SMOOTH",
"331 316 OFFCURVE",
"328 301 OFFCURVE",
"324 286 CURVE",
"299 292 OFFCURVE",
"266 296 OFFCURVE",
"222 296 CURVE SMOOTH"
);
},
{
closed = 1;
nodes = (
"96 62 OFFCURVE",
"63 85 OFFCURVE",
"63 133 CURVE SMOOTH",
"63 195 OFFCURVE",
"125 233 OFFCURVE",
"205 233 CURVE SMOOTH",
"317 233 LINE",
"317 228 OFFCURVE",
"317 222 OFFCURVE",
"317 217 CURVE SMOOTH",
"317 192 OFFCURVE",
"320 170 OFFCURVE",
"325 149 CURVE",
"278 94 OFFCURVE",
"214 62 OFFCURVE",
"147 62 CURVE SMOOTH"
);
},
{
closed = 1;
nodes = (
"671 438 OFFCURVE",
"722 396 OFFCURVE",
"720 315 CURVE",
"432 315 LINE",
"458 385 OFFCURVE",
"519 438 OFFCURVE",
"597 438 CURVE SMOOTH"
);
}
);
width = 857;
},
{
layerId = "8956C7A5-95B5-4256-B2D2-E489185594C4";
paths = (
{
closed = 1;
nodes = (
"89 311 OFFCURVE",
"-4 238 OFFCURVE",
"-4 131 CURVE SMOOTH",
"-4 55 OFFCURVE",
"53 -12 OFFCURVE",
"168 -12 CURVE SMOOTH",
"265 -12 OFFCURVE",
"325 23 OFFCURVE",
"376 75 CURVE",
"418 19 OFFCURVE",
"487 -13 OFFCURVE",
"565 -13 CURVE SMOOTH",
"663 -13 OFFCURVE",
"752 19 OFFCURVE",
"817 89 CURVE",
"781 120 OFFCURVE",
"746 152 OFFCURVE",
"710 183 CURVE",
"674 152 OFFCURVE",
"640 130 OFFCURVE",
"588 130 CURVE SMOOTH",
"546 130 OFFCURVE",
"519 146 OFFCURVE",
"505 171 CURVE SMOOTH",
"498 184 OFFCURVE",
"494 199 OFFCURVE",
"493 215 CURVE",
"854 215 LINE",
"863 243 OFFCURVE",
"869 285 OFFCURVE",
"869 311 CURVE SMOOTH",
"869 421 OFFCURVE",
"774 521 OFFCURVE",
"643 521 CURVE SMOOTH",
"577 521 OFFCURVE",
"515 501 OFFCURVE",
"464 466 CURVE",
"430 501 OFFCURVE",
"374 517 OFFCURVE",
"310 517 CURVE SMOOTH",
"231 517 OFFCURVE",
"157 491 OFFCURVE",
"87 447 CURVE",
"95 415 OFFCURVE",
"104 384 OFFCURVE",
"112 352 CURVE",
"161 375 OFFCURVE",
"207 387 OFFCURVE",
"268 387 CURVE SMOOTH",
"327 387 OFFCURVE",
"360 365 OFFCURVE",
"348 314 CURVE SMOOTH",
"347 309 OFFCURVE",
"346 304 OFFCURVE",
"345 299 CURVE",
"314 306 OFFCURVE",
"279 311 OFFCURVE",
"235 311 CURVE SMOOTH"
);
},
{
closed = 1;
nodes = (
"154 103 OFFCURVE",
"137 121 OFFCURVE",
"137 146 CURVE SMOOTH",
"137 198 OFFCURVE",
"188 206 OFFCURVE",
"235 206 CURVE SMOOTH",
"334 206 LINE",
"334 200 OFFCURVE",
"334 194 OFFCURVE",
"335 188 CURVE SMOOTH",
"336 177 OFFCURVE",
"337 166 OFFCURVE",
"340 155 CURVE",
"299 124 OFFCURVE",
"251 103 OFFCURVE",
"192 103 CURVE SMOOTH"
);
},
{
closed = 1;
nodes = (
"681 395 OFFCURVE",
"719 360 OFFCURVE",
"722 325 CURVE",
"510 325 LINE",
"528 370 OFFCURVE",
"575 395 OFFCURVE",
"627 395 CURVE SMOOTH"
);
}
);
width = 903;
}
);
leftKerningGroup = a;
rightKerningGroup = e;
unicode = 00E6;
},
{
glyphname = b;
layers = (
{
anchors = (
{
name = top;
position = "{301, 760}";
}
);
layerId = "EEC59083-BA83-4EFB-8B50-D01213A5FD15";
paths = (
{
closed = 1;
nodes = (
"140 676 LINE",
"233 676 LINE",
"78 0 LINE",
"176 0 LINE",
"183 31 LINE",
"210 8 OFFCURVE",
"256 -9 OFFCURVE",
"306 -9 CURVE SMOOTH",
"477 -9 OFFCURVE",
"619 123 OFFCURVE",
"619 312 CURVE SMOOTH",
"619 428 OFFCURVE",
"532 519 OFFCURVE",
"421 519 CURVE SMOOTH",
"373 519 OFFCURVE",
"329 504 OFFCURVE",
"285 474 CURVE",
"351 760 LINE",
"160 760 LINE"
);
},
{
closed = 1;
nodes = (
"469 435 OFFCURVE",
"518 385 OFFCURVE",
"518 302 CURVE SMOOTH",
"518 159 OFFCURVE",
"413 75 OFFCURVE",
"313 75 CURVE SMOOTH",
"255 75 OFFCURVE",
"219 93 OFFCURVE",
"202 115 CURVE",
"264 383 LINE",
"303 415 OFFCURVE",
"352 435 OFFCURVE",
"398 435 CURVE SMOOTH"
);
}
);
width = 621;
},
{
anchors = (
{
name = top;
position = "{335, 760}";
}
);
layerId = "8956C7A5-95B5-4256-B2D2-E489185594C4";
paths = (
{
closed = 1;
nodes = (
"136 626 LINE",
"232 626 LINE",
"88 0 LINE",
"254 0 LINE",
"260 28 LINE",
"286 8 OFFCURVE",
"335 -8 OFFCURVE",
"382 -8 CURVE SMOOTH",
"556 -8 OFFCURVE",
"696 117 OFFCURVE",
"696 296 CURVE SMOOTH",
"696 441 OFFCURVE",
"595 518 OFFCURVE",
"485 518 CURVE SMOOTH",
"430 518 OFFCURVE",
"388 498 OFFCURVE",
"363 472 CURVE",
"429 760 LINE",
"167 760 LINE"
);
},
{
closed = 1;
nodes = (
"489 367 OFFCURVE",
"531 335 OFFCURVE",
"531 273 CURVE SMOOTH",
"531 199 OFFCURVE",
"470 140 OFFCURVE",
"400 140 CURVE SMOOTH",
"357 140 OFFCURVE",
"316 159 OFFCURVE",
"299 195 CURVE",
"324 303 LINE",
"351 347 OFFCURVE",
"398 367 OFFCURVE",
"439 367 CURVE SMOOTH"
);
}
);
width = 648;
}
);
leftKerningGroup = I;
rightKerningGroup = o;
unicode = 0062;
},
{
glyphname = c;
layers = (
{
anchors = (
{
name = bottom;
position = "{274, 0}";
},
{
name = top;
position = "{350, 506}";
}
);
layerId = "EEC59083-BA83-4EFB-8B50-D01213A5FD15";
paths = (
{
closed = 1;
nodes = (
"552 357 LINE",
"566 441 LINE",
"505 441 LINE",
"464 496 OFFCURVE",
"397 521 OFFCURVE",
"332 521 CURVE SMOOTH",
"193 521 OFFCURVE",
"47 396 OFFCURVE",
"47 219 CURVE SMOOTH",
"47 89 OFFCURVE",
"144 -12 OFFCURVE",
"277 -12 CURVE SMOOTH",
"350 -12 OFFCURVE",
"429 14 OFFCURVE",
"480 86 CURVE",
"409 139 LINE",
"371 91 OFFCURVE",
"333 75 OFFCURVE",
"281 75 CURVE SMOOTH",
"210 75 OFFCURVE",
"149 127 OFFCURVE",
"149 225 CURVE SMOOTH",
"149 359 OFFCURVE",
"252 435 OFFCURVE",
"323 435 CURVE SMOOTH",
"379 435 OFFCURVE",
"429 409 OFFCURVE",
"450 357 CURVE"
);
}
);
width = 554;
},
{
anchors = (
{
name = bottom;
position = "{272, 0}";
},
{
name = top;
position = "{355, 506}";
}
);
layerId = "8956C7A5-95B5-4256-B2D2-E489185594C4";
paths = (
{
closed = 1;
nodes = (
"577 326 LINE",
"608 460 LINE",
"514 460 LINE",
"475 497 OFFCURVE",
"422 521 OFFCURVE",
"359 521 CURVE SMOOTH",
"194 521 OFFCURVE",
"50 399 OFFCURVE",
"50 213 CURVE SMOOTH",
"50 89 OFFCURVE",
"148 -12 OFFCURVE",
"279 -12 CURVE SMOOTH",
"401 -12 OFFCURVE",
"499 51 OFFCURVE",
"540 132 CURVE",
"407 204 LINE",
"384 164 OFFCURVE",
"349 136 OFFCURVE",
"295 136 CURVE SMOOTH",
"249 136 OFFCURVE",
"209 173 OFFCURVE",
"209 231 CURVE SMOOTH",
"209 309 OFFCURVE",
"269 372 OFFCURVE",
"342 372 CURVE SMOOTH",
"374 372 OFFCURVE",
"406 353 OFFCURVE",
"416 326 CURVE"
);
}
);
width = 572;
}
);
leftKerningGroup = o;
rightKerningGroup = c;
unicode = 0063;
},
{
color = 6;
glyphname = cacute;
layers = (
{
background = {
paths = (
{
closed = 1;
nodes = (
"416 326 LINE",
"408 347 LINE",
"366 372 LINE",
"342 372 LINE",
"314 372 LINE",
"266 350 LINE",
"230 312 LINE",
"209 260 LINE",
"209 231 LINE",
"209 209 LINE",
"223 174 LINE",
"247 149 LINE",
"278 136 LINE",
"295 136 LINE",
"335 136 LINE",
"390 174 LINE",
"407 204 LINE",
"540 132 LINE",
"524 102 LINE",
"474 49 LINE",
"406 10 LINE",
"325 -12 LINE",
"279 -12 LINE",
"229 -12 LINE",
"146 23 LINE",
"84 84 LINE",
"50 167 LINE",
"50 213 LINE",
"50 283 LINE",
"100 396 LINE",
"185 477 LINE",
"297 521 LINE",
"359 521 LINE",
"398 521 LINE",
"464 499 LINE",
"491 479 LINE",
"503 470 LINE",
"514 460 LINE",
"608 460 LINE",
"577 326 LINE"
);
},
{
closed = 1;
nodes = (
"313 742 LINE",
"472 742 LINE",
"472 730 LINE",
"323 590 LINE",
"208 590 LINE"
);
},
{
closed = 1;
nodes = (
"0 760 LINE",
"572 760 LINE",
"572 0 LINE",
"0 0 LINE"
);
}
);
};
components = (
{
name = c;
},
{
name = acutecomb;
transform = "{1, 0, 0, 1, 258, 0}";
}
);
layerId = "8956C7A5-95B5-4256-B2D2-E489185594C4";
width = 572;
},
{
background = {
paths = (
{
closed = 1;
nodes = (
"416 326 LINE",
"408 347 LINE",
"366 372 LINE",
"342 372 LINE",
"314 372 LINE",
"266 350 LINE",
"230 312 LINE",
"209 260 LINE",
"209 231 LINE",
"209 209 LINE",
"223 174 LINE",
"247 149 LINE",
"278 136 LINE",
"295 136 LINE",
"335 136 LINE",
"390 174 LINE",
"407 204 LINE",
"540 132 LINE",
"524 102 LINE",
"474 49 LINE",
"406 10 LINE",
"325 -12 LINE",
"279 -12 LINE",
"229 -12 LINE",
"146 23 LINE",
"84 84 LINE",
"50 167 LINE",
"50 213 LINE",
"50 283 LINE",
"100 396 LINE",
"185 477 LINE",
"297 521 LINE",
"359 521 LINE",
"398 521 LINE",
"464 499 LINE",
"491 479 LINE",
"503 470 LINE",
"514 460 LINE",
"608 460 LINE",
"577 326 LINE"
);
},
{
closed = 1;
nodes = (
"313 742 LINE",
"472 742 LINE",
"472 730 LINE",
"323 590 LINE",
"208 590 LINE"
);
},
{
closed = 1;
nodes = (
"0 760 LINE",
"572 760 LINE",
"572 0 LINE",
"0 0 LINE"
);
}
);
};
components = (
{
name = c;
},
{
name = acutecomb;
transform = "{1, 0, 0, 1, 185, 0}";
}
);
layerId = "EEC59083-BA83-4EFB-8B50-D01213A5FD15";
width = 554;
}
);
leftKerningGroup = o;
rightKerningGroup = c;
unicode = 0107;
},
{
glyphname = d;
layers = (
{
anchors = (
{
name = bottom;
position = "{250, 0}";
},
{
name = center;
position = "{504, 603}";
},
{
name = top;
position = "{542, 760}";
},
{
name = topright;
position = "{663, 506}";
}
);
layerId = "EEC59083-BA83-4EFB-8B50-D01213A5FD15";
paths = (
{
closed = 1;
nodes = (
"430 676 LINE",
"515 676 LINE",
"470 479 LINE",
"437 505 OFFCURVE",
"391 521 OFFCURVE",
"339 521 CURVE SMOOTH",
"173 521 OFFCURVE",
"36 387 OFFCURVE",
"36 208 CURVE SMOOTH",
"36 85 OFFCURVE",
"128 -10 OFFCURVE",
"243 -10 CURVE SMOOTH",
"290 -10 OFFCURVE",
"331 7 OFFCURVE",
"367 33 CURVE",
"360 0 LINE",
"542 0 LINE",
"561 84 LINE",
"477 84 LINE",
"633 760 LINE",
"450 760 LINE"
);
},
{
closed = 1;
nodes = (
"191 75 OFFCURVE",
"137 130 OFFCURVE",
"137 217 CURVE SMOOTH",
"137 350 OFFCURVE",
"235 435 OFFCURVE",
"333 435 CURVE SMOOTH",
"388 435 OFFCURVE",
"426 419 OFFCURVE",
"450 391 CURVE",
"390 129 LINE",
"354 94 OFFCURVE",
"307 75 OFFCURVE",
"266 75 CURVE SMOOTH"
);
}
);
width = 627;
},
{
anchors = (
{
name = bottom;
position = "{285, 0}";
},
{
name = center;
position = "{560, 574}";
},
{
name = top;
position = "{596, 760}";
},
{
name = topright;
position = "{724, 506}";
}
);
layerId = "8956C7A5-95B5-4256-B2D2-E489185594C4";
paths = (
{
closed = 1;
nodes = (
"418 626 LINE",
"519 626 LINE",
"486 483 LINE",
"460 504 OFFCURVE",
"408 518 OFFCURVE",
"364 518 CURVE SMOOTH",
"203 518 OFFCURVE",
"50 402 OFFCURVE",
"50 214 CURVE SMOOTH",
"50 94 OFFCURVE",
"128 -9 OFFCURVE",
"261 -9 CURVE SMOOTH",
"317 -9 OFFCURVE",
"360 13 OFFCURVE",
"384 38 CURVE",
"375 0 LINE",
"634 0 LINE",
"665 134 LINE",
"572 134 LINE",
"716 760 LINE",
"449 760 LINE"
);
},
{
closed = 1;
nodes = (
"258 150 OFFCURVE",
"221 186 OFFCURVE",
"221 242 CURVE SMOOTH",
"221 316 OFFCURVE",
"279 373 OFFCURVE",
"349 373 CURVE SMOOTH",
"389 373 OFFCURVE",
"432 355 OFFCURVE",
"449 321 CURVE",
"423 211 LINE",
"396 173 OFFCURVE",
"351 150 OFFCURVE",
"306 150 CURVE SMOOTH"
);
}
);
width = 686;
}
);
leftKerningGroup = a;
rightKerningGroup = d;
unicode = 0064;
},
{
glyphname = eth;
layers = (
{
layerId = "EEC59083-BA83-4EFB-8B50-D01213A5FD15";
paths = (
{
closed = 1;
nodes = (
"307 563 OFFCURVE",
"337 575 OFFCURVE",
"368 588 CURVE",
"388 561 OFFCURVE",
"405 532 OFFCURVE",
"421 502 CURVE",
"390 514 OFFCURVE",
"354 521 OFFCURVE",
"321 521 CURVE SMOOTH",
"168 521 OFFCURVE",
"35 387 OFFCURVE",
"35 219 CURVE SMOOTH",
"35 89 OFFCURVE",
"128 -12 OFFCURVE",
"269 -12 CURVE SMOOTH",
"415 -12 OFFCURVE",
"563 111 OFFCURVE",
"563 318 CURVE SMOOTH",
"563 410 OFFCURVE",
"530 526 OFFCURVE",
"459 625 CURVE",
"478 633 OFFCURVE",
"498 641 OFFCURVE",
"517 649 CURVE",
"506 675 OFFCURVE",
"495 701 OFFCURVE",
"484 727 CURVE",
"456 715 OFFCURVE",
"429 704 OFFCURVE",
"401 692 CURVE",
"375 717 OFFCURVE",
"346 740 OFFCURVE",
"314 760 CURVE",
"189 760 LINE",
"237 726 OFFCURVE",
"277 691 OFFCURVE",
"311 655 CURVE",
"289 646 OFFCURVE",
"267 637 OFFCURVE",
"244 628 CURVE",
"255 602 OFFCURVE",
"266 576 OFFCURVE",
"276 550 CURVE"
);
},
{
closed = 1;
nodes = (
"461 155 OFFCURVE",
"362 74 OFFCURVE",
"274 74 CURVE SMOOTH",
"178 74 OFFCURVE",
"137 143 OFFCURVE",
"137 226 CURVE SMOOTH",
"137 310 OFFCURVE",
"200 435 OFFCURVE",
"323 435 CURVE SMOOTH",
"393 435 OFFCURVE",
"445 393 OFFCURVE",
"460 308 CURVE",
"460 311 OFFCURVE",
"461 313 OFFCURVE",
"461 315 CURVE SMOOTH",
"461 305 OFFCURVE",
"461 295 OFFCURVE",
"461 286 CURVE SMOOTH"
);
}
);
width = 611;
},
{
layerId = "8956C7A5-95B5-4256-B2D2-E489185594C4";
paths = (
{
closed = 1;
nodes = (
"305 546 OFFCURVE",
"332 555 OFFCURVE",
"360 564 CURVE",
"371 548 OFFCURVE",
"382 531 OFFCURVE",
"391 514 CURVE",
"376 515 OFFCURVE",
"358 514 OFFCURVE",
"335 514 CURVE SMOOTH",
"209 514 OFFCURVE",
"64 399 OFFCURVE",
"64 213 CURVE SMOOTH",
"64 89 OFFCURVE",
"162 -12 OFFCURVE",
"293 -12 CURVE SMOOTH",
"526 -12 OFFCURVE",
"601 182 OFFCURVE",
"601 295 CURVE SMOOTH",
"601 418 OFFCURVE",
"575 526 OFFCURVE",
"515 615 CURVE",
"527 619 OFFCURVE",
"538 623 OFFCURVE",
"550 627 CURVE",
"536 669 OFFCURVE",
"522 712 OFFCURVE",
"509 754 CURVE",
"478 744 OFFCURVE",
"447 734 OFFCURVE",
"416 724 CURVE",
"401 736 OFFCURVE",
"385 748 OFFCURVE",
"367 760 CURVE",
"169 760 LINE",
"204 732 OFFCURVE",
"237 704 OFFCURVE",
"267 674 CURVE",
"257 671 OFFCURVE",
"246 667 OFFCURVE",
"235 664 CURVE",
"249 622 OFFCURVE",
"263 580 OFFCURVE",
"277 537 CURVE"
);
},
{
closed = 1;
nodes = (
"442 196 OFFCURVE",
"372 134 OFFCURVE",
"309 134 CURVE SMOOTH",
"243 134 OFFCURVE",
"223 186 OFFCURVE",
"223 231 CURVE SMOOTH",
"223 313 OFFCURVE",
"282 375 OFFCURVE",
"356 375 CURVE SMOOTH",
"387 375 OFFCURVE",
"419 359 OFFCURVE",
"441 316 CURVE",
"441 309 OFFCURVE",
"442 302 OFFCURVE",
"442 296 CURVE SMOOTH",
"442 290 OFFCURVE",
"442 283 OFFCURVE",
"442 277 CURVE SMOOTH"
);
}
);
width = 577;
}
);
leftKerningGroup = o;
rightKerningGroup = o;
unicode = 00F0;
},
{
color = 6;
glyphname = dcaron;
layers = (
{
background = {
paths = (
{
closed = 1;
nodes = (
"449 760 LINE",
"716 760 LINE",
"572 134 LINE",
"665 134 LINE",
"634 0 LINE",
"375 0 LINE",
"384 38 LINE",
"376 29 LINE",
"365 21 LINE",
"353 13 LINE",
"321 -1 LINE",
"283 -9 LINE",
"261 -9 LINE",
"211 -9 LINE",
"133 27 LINE",
"79 88 LINE",
"50 169 LINE",
"50 214 LINE",
"50 261 LINE",
"74 342 LINE",
"117 410 LINE",
"176 463 LINE",
"246 499 LINE",
"324 518 LINE",
"364 518 LINE",
"381 518 LINE",
"417 513 LINE",
"451 503 LINE",
"465 496 LINE",
"478 490 LINE",
"486 483 LINE",
"519 626 LINE",
"418 626 LINE"
);
},
{
closed = 1;
nodes = (
"374 167 LINE",
"403 184 LINE",
"423 211 LINE",
"449 321 LINE",
"444 330 LINE",
"437 338 LINE",
"427 350 LINE",
"398 365 LINE",
"366 373 LINE",
"349 373 LINE",
"323 373 LINE",
"276 353 LINE",
"241 318 LINE",
"221 270 LINE",
"221 242 LINE",
"221 221 LINE",
"234 187 LINE",
"257 163 LINE",
"288 150 LINE",
"306 150 LINE",
"341 150 LINE"
);
},
{
closed = 1;
nodes = (
"0 760 LINE",
"800 760 LINE",
"800 0 LINE",
"0 0 LINE"
);
}
);
};
components = (
{
alignment = -1;
name = d;
},
{
alignment = -1;
name = caroncomb.alt;
transform = "{1, 0, 0, 1, 620, 0}";
}
);
layerId = "8956C7A5-95B5-4256-B2D2-E489185594C4";
width = 800;
},
{
background = {
paths = (
{
closed = 1;
nodes = (
"449 760 LINE",
"716 760 LINE",
"572 134 LINE",
"665 134 LINE",
"634 0 LINE",
"375 0 LINE",
"384 38 LINE",
"376 29 LINE",
"365 21 LINE",
"353 13 LINE",
"321 -1 LINE",
"283 -9 LINE",
"261 -9 LINE",
"211 -9 LINE",
"133 27 LINE",
"79 88 LINE",
"50 169 LINE",
"50 214 LINE",
"50 261 LINE",
"74 342 LINE",
"117 410 LINE",
"176 463 LINE",
"246 499 LINE",
"324 518 LINE",
"364 518 LINE",
"381 518 LINE",
"417 513 LINE",
"451 503 LINE",
"465 496 LINE",
"478 490 LINE",
"486 483 LINE",
"519 626 LINE",
"418 626 LINE"
);
},
{
closed = 1;
nodes = (
"374 167 LINE",
"403 184 LINE",
"423 211 LINE",
"449 321 LINE",
"444 330 LINE",
"437 338 LINE",
"427 350 LINE",
"398 365 LINE",
"366 373 LINE",
"349 373 LINE",
"323 373 LINE",
"276 353 LINE",
"241 318 LINE",
"221 270 LINE",
"221 242 LINE",
"221 221 LINE",
"234 187 LINE",
"257 163 LINE",
"288 150 LINE",
"306 150 LINE",
"341 150 LINE"
);
},
{
closed = 1;
nodes = (
"0 760 LINE",
"800 760 LINE",
"800 0 LINE",
"0 0 LINE"
);
}
);
};
components = (
{
alignment = -1;
name = d;
},
{
alignment = -1;
name = quotesingle;
transform = "{1, 0, 0, 1, 579, 0}";
}
);
layerId = "EEC59083-BA83-4EFB-8B50-D01213A5FD15";
width = 679;
}
);
leftKerningGroup = a;
rightKerningGroup = d;
unicode = 010F;
},
{
glyphname = e;
layers = (
{
anchors = (
{
name = top;
position = "{361, 506}";
}
);
layerId = "EEC59083-BA83-4EFB-8B50-D01213A5FD15";
paths = (
{
closed = 1;
nodes = (
"545 236 LINE",
"550 262 OFFCURVE",
"554 294 OFFCURVE",
"554 327 CURVE SMOOTH",
"554 427 OFFCURVE",
"479 521 OFFCURVE",
"350 521 CURVE SMOOTH",
"183 521 OFFCURVE",
"57 385 OFFCURVE",
"57 217 CURVE SMOOTH",
"57 71 OFFCURVE",
"156 -15 OFFCURVE",
"281 -15 CURVE SMOOTH",
"369 -15 OFFCURVE",
"451 22 OFFCURVE",
"495 80 CURVE",
"471 98 OFFCURVE",
"447 115 OFFCURVE",
"423 133 CURVE",
"391 93 OFFCURVE",
"341 71 OFFCURVE",
"289 71 CURVE SMOOTH",
"211 71 OFFCURVE",
"155 133 OFFCURVE",
"155 215 CURVE SMOOTH",
"155 221 OFFCURVE",
"155 227 OFFCURVE",
"156 236 CURVE"
);
},
{
closed = 1;
nodes = (
"411 438 OFFCURVE",
"462 396 OFFCURVE",
"460 315 CURVE",
"171 315 LINE",
"198 385 OFFCURVE",
"259 438 OFFCURVE",
"337 438 CURVE SMOOTH"
);
}
);
width = 571;
},
{
anchors = (
{
name = top;
position = "{354, 506}";
}
);
layerId = "8956C7A5-95B5-4256-B2D2-E489185594C4";
paths = (
{
closed = 1;
nodes = (
"569 215 LINE",
"578 243 OFFCURVE",
"584 285 OFFCURVE",
"584 311 CURVE SMOOTH",
"584 421 OFFCURVE",
"489 521 OFFCURVE",
"358 521 CURVE SMOOTH",
"193 521 OFFCURVE",
"49 397 OFFCURVE",
"49 211 CURVE SMOOTH",
"49 73 OFFCURVE",
"153 -13 OFFCURVE",
"280 -13 CURVE SMOOTH",
"378 -13 OFFCURVE",
"467 19 OFFCURVE",
"532 89 CURVE",
"497 120 OFFCURVE",
"460 152 OFFCURVE",
"425 183 CURVE",
"389 152 OFFCURVE",
"355 130 OFFCURVE",
"303 130 CURVE SMOOTH",
"261 130 OFFCURVE",
"234 146 OFFCURVE",
"220 171 CURVE SMOOTH",
"213 184 OFFCURVE",
"209 199 OFFCURVE",
"208 215 CURVE"
);
},
{
closed = 1;
nodes = (
"396 395 OFFCURVE",
"434 360 OFFCURVE",
"437 325 CURVE",
"226 325 LINE",
"244 370 OFFCURVE",
"290 395 OFFCURVE",
"342 395 CURVE SMOOTH"
);
}
);
width = 575;
}
);
leftKerningGroup = o;
rightKerningGroup = e;
unicode = 0065;
},
{
color = 6;
glyphname = ecaron;
layers = (
{
background = {
paths = (
{
closed = 1;
nodes = (
"209 215 LINE",
"210 203 LINE",
"213 192 LINE",
"218 174 LINE",
"241 146 LINE",
"278 130 LINE",
"304 130 LINE",
"324 130 LINE",
"356 138 LINE",
"386 152 LINE",
"413 171 LINE",
"426 183 LINE",
"533 89 LINE",
"484 36 LINE",
"355 -13 LINE",
"281 -13 LINE",
"233 -13 LINE",
"149 18 LINE",
"86 76 LINE",
"50 159 LINE",
"50 211 LINE",
"50 281 LINE",
"100 395 LINE",
"185 477 LINE",
"297 521 LINE",
"359 521 LINE",
"408 521 LINE",
"491 486 LINE",
"551 428 LINE",
"585 352 LINE",
"585 311 LINE",
"585 301 LINE",
"583 277 LINE",
"579 251 LINE",
"573 226 LINE",
"570 215 LINE"
);
},
{
closed = 1;
nodes = (
"230 332 LINE",
"228 329 LINE",
"227 325 LINE",
"438 325 LINE",
"437 338 LINE",
"422 363 LINE",
"397 383 LINE",
"363 395 LINE",
"343 395 LINE",
"318 395 LINE",
"274 380 LINE",
"240 353 LINE"
);
},
{
closed = 1;
nodes = (
"598 734 LINE",
"424 575 LINE",
"307 575 LINE",
"211 734 LINE",
"332 734 LINE",
"379 657 LINE",
"463 734 LINE"
);
},
{
closed = 1;
nodes = (
"0 760 LINE",
"575 760 LINE",
"575 0 LINE",
"0 0 LINE"
);
}
);
};
components = (
{
name = e;
},
{
name = caroncomb;
transform = "{1, 0, 0, 1, 114, 0}";
}
);
layerId = "8956C7A5-95B5-4256-B2D2-E489185594C4";
width = 575;
},
{
background = {
paths = (
{
closed = 1;
nodes = (
"209 215 LINE",
"210 203 LINE",
"213 192 LINE",
"218 174 LINE",
"241 146 LINE",
"278 130 LINE",
"304 130 LINE",
"324 130 LINE",
"356 138 LINE",
"386 152 LINE",
"413 171 LINE",
"426 183 LINE",
"533 89 LINE",
"484 36 LINE",
"355 -13 LINE",
"281 -13 LINE",
"233 -13 LINE",
"149 18 LINE",
"86 76 LINE",
"50 159 LINE",
"50 211 LINE",
"50 281 LINE",
"100 395 LINE",
"185 477 LINE",
"297 521 LINE",
"359 521 LINE",
"408 521 LINE",
"491 486 LINE",
"551 428 LINE",
"585 352 LINE",
"585 311 LINE",
"585 301 LINE",
"583 277 LINE",
"579 251 LINE",
"573 226 LINE",
"570 215 LINE"
);
},
{
closed = 1;
nodes = (
"230 332 LINE",
"228 329 LINE",
"227 325 LINE",
"438 325 LINE",
"437 338 LINE",
"422 363 LINE",
"397 383 LINE",
"363 395 LINE",
"343 395 LINE",
"318 395 LINE",
"274 380 LINE",
"240 353 LINE"
);
},
{
closed = 1;
nodes = (
"598 734 LINE",
"424 575 LINE",
"307 575 LINE",
"211 734 LINE",
"332 734 LINE",
"379 657 LINE",
"463 734 LINE"
);
},
{
closed = 1;
nodes = (
"0 760 LINE",
"575 760 LINE",
"575 0 LINE",
"0 0 LINE"
);
}
);
};
components = (
{
name = e;
},
{
name = caroncomb;
transform = "{1, 0, 0, 1, 95, 0}";
}
);
layerId = "EEC59083-BA83-4EFB-8B50-D01213A5FD15";
width = 571;
}
);
leftKerningGroup = o;
rightKerningGroup = e;
unicode = 011B;
},
{
color = 6;
glyphname = edotaccent;
layers = (
{
background = {
paths = (
{
closed = 1;
nodes = (
"209 215 LINE",
"210 203 LINE",
"213 192 LINE",
"218 174 LINE",
"241 146 LINE",
"278 130 LINE",
"304 130 LINE",
"324 130 LINE",
"356 138 LINE",
"386 152 LINE",
"413 171 LINE",
"426 183 LINE",
"533 89 LINE",
"484 36 LINE",
"355 -13 LINE",
"281 -13 LINE",
"233 -13 LINE",
"149 18 LINE",
"86 76 LINE",
"50 159 LINE",
"50 211 LINE",
"50 281 LINE",
"100 395 LINE",
"185 477 LINE",
"297 521 LINE",
"359 521 LINE",
"408 521 LINE",
"491 486 LINE",
"551 428 LINE",
"585 352 LINE",
"585 311 LINE",
"585 301 LINE",
"583 277 LINE",
"579 251 LINE",
"573 226 LINE",
"570 215 LINE"
);
},
{
closed = 1;
nodes = (
"230 332 LINE",
"228 329 LINE",
"227 325 LINE",
"438 325 LINE",
"437 338 LINE",
"422 363 LINE",
"397 383 LINE",
"363 395 LINE",
"343 395 LINE",
"318 395 LINE",
"274 380 LINE",
"240 353 LINE"
);
},
{
closed = 1;
nodes = (
"272 669 LINE",
"272 687 LINE",
"285 719 LINE",
"309 742 LINE",
"340 756 LINE",
"359 756 LINE",
"376 756 LINE",
"408 742 LINE",
"431 719 LINE",
"445 687 LINE",
"445 669 LINE",
"445 651 LINE",
"431 619 LINE",
"408 596 LINE",
"376 582 LINE",
"359 582 LINE",
"340 582 LINE",
"309 596 LINE",
"285 619 LINE",
"272 651 LINE"
);
},
{
closed = 1;
nodes = (
"0 760 LINE",
"575 760 LINE",
"575 0 LINE",
"0 0 LINE"
);
}
);
};
components = (
{
name = e;
},
{
name = dotaccent;
transform = "{1, 0, 0, 1, 120, 0}";
}
);
layerId = "8956C7A5-95B5-4256-B2D2-E489185594C4";
width = 575;
},
{
background = {
paths = (
{
closed = 1;
nodes = (
"209 215 LINE",
"210 203 LINE",
"213 192 LINE",
"218 174 LINE",
"241 146 LINE",
"278 130 LINE",
"304 130 LINE",
"324 130 LINE",
"356 138 LINE",
"386 152 LINE",
"413 171 LINE",
"426 183 LINE",
"533 89 LINE",
"484 36 LINE",
"355 -13 LINE",
"281 -13 LINE",
"233 -13 LINE",
"149 18 LINE",
"86 76 LINE",
"50 159 LINE",
"50 211 LINE",
"50 281 LINE",
"100 395 LINE",
"185 477 LINE",
"297 521 LINE",
"359 521 LINE",
"408 521 LINE",
"491 486 LINE",
"551 428 LINE",
"585 352 LINE",
"585 311 LINE",
"585 301 LINE",
"583 277 LINE",
"579 251 LINE",
"573 226 LINE",
"570 215 LINE"
);
},
{
closed = 1;
nodes = (
"230 332 LINE",
"228 329 LINE",
"227 325 LINE",
"438 325 LINE",
"437 338 LINE",
"422 363 LINE",
"397 383 LINE",
"363 395 LINE",
"343 395 LINE",
"318 395 LINE",
"274 380 LINE",
"240 353 LINE"
);
},
{
closed = 1;
nodes = (
"272 669 LINE",
"272 687 LINE",
"285 719 LINE",
"309 742 LINE",
"340 756 LINE",
"359 756 LINE",
"376 756 LINE",
"408 742 LINE",
"431 719 LINE",
"445 687 LINE",
"445 669 LINE",
"445 651 LINE",
"431 619 LINE",
"408 596 LINE",
"376 582 LINE",
"359 582 LINE",
"340 582 LINE",
"309 596 LINE",
"285 619 LINE",
"272 651 LINE"
);
},
{
closed = 1;
nodes = (
"0 760 LINE",
"575 760 LINE",
"575 0 LINE",
"0 0 LINE"
);
}
);
};
components = (
{
name = e;
},
{
name = dotaccent;
transform = "{1, 0, 0, 1, 146, 0}";
}
);
layerId = "EEC59083-BA83-4EFB-8B50-D01213A5FD15";
width = 571;
}
);
leftKerningGroup = o;
rightKerningGroup = e;
unicode = 0117;
},
{
color = 6;
glyphname = emacron;
layers = (
{
background = {
paths = (
{
closed = 1;
nodes = (
"209 215 LINE",
"210 203 LINE",
"213 192 LINE",
"218 174 LINE",
"241 146 LINE",
"278 130 LINE",
"304 130 LINE",
"324 130 LINE",
"356 138 LINE",
"386 152 LINE",
"413 171 LINE",
"426 183 LINE",
"533 89 LINE",
"484 36 LINE",
"355 -13 LINE",
"281 -13 LINE",
"233 -13 LINE",
"149 18 LINE",
"86 76 LINE",
"50 159 LINE",
"50 211 LINE",
"50 281 LINE",
"100 395 LINE",
"185 477 LINE",
"297 521 LINE",
"359 521 LINE",
"408 521 LINE",
"491 486 LINE",
"551 428 LINE",
"585 352 LINE",
"585 311 LINE",
"585 301 LINE",
"583 277 LINE",
"579 251 LINE",
"573 226 LINE",
"570 215 LINE"
);
},
{
closed = 1;
nodes = (
"230 332 LINE",
"228 329 LINE",
"227 325 LINE",
"438 325 LINE",
"437 338 LINE",
"422 363 LINE",
"397 383 LINE",
"363 395 LINE",
"343 395 LINE",
"318 395 LINE",
"274 380 LINE",
"240 353 LINE"
);
},
{
closed = 1;
nodes = (
"531 574 LINE",
"195 574 LINE",
"195 679 LINE",
"531 679 LINE"
);
},
{
closed = 1;
nodes = (
"0 760 LINE",
"575 760 LINE",
"575 0 LINE",
"0 0 LINE"
);
}
);
};
components = (
{
name = e;
},
{
name = macroncomb;
transform = "{1, 0, 0, 1, 128, 0}";
}
);
layerId = "8956C7A5-95B5-4256-B2D2-E489185594C4";
width = 575;
},
{
background = {
paths = (
{
closed = 1;
nodes = (
"209 215 LINE",
"210 203 LINE",
"213 192 LINE",
"218 174 LINE",
"241 146 LINE",
"278 130 LINE",
"304 130 LINE",
"324 130 LINE",
"356 138 LINE",
"386 152 LINE",
"413 171 LINE",
"426 183 LINE",
"533 89 LINE",
"484 36 LINE",
"355 -13 LINE",
"281 -13 LINE",
"233 -13 LINE",
"149 18 LINE",
"86 76 LINE",
"50 159 LINE",
"50 211 LINE",
"50 281 LINE",
"100 395 LINE",
"185 477 LINE",
"297 521 LINE",
"359 521 LINE",
"408 521 LINE",
"491 486 LINE",
"551 428 LINE",
"585 352 LINE",
"585 311 LINE",
"585 301 LINE",
"583 277 LINE",
"579 251 LINE",
"573 226 LINE",
"570 215 LINE"
);
},
{
closed = 1;
nodes = (
"230 332 LINE",
"228 329 LINE",
"227 325 LINE",
"438 325 LINE",
"437 338 LINE",
"422 363 LINE",
"397 383 LINE",
"363 395 LINE",
"343 395 LINE",
"318 395 LINE",
"274 380 LINE",
"240 353 LINE"
);
},
{
closed = 1;
nodes = (
"531 574 LINE",
"195 574 LINE",
"195 679 LINE",
"531 679 LINE"
);
},
{
closed = 1;
nodes = (
"0 760 LINE",
"575 760 LINE",
"575 0 LINE",
"0 0 LINE"
);
}
);
};
components = (
{
name = e;
},
{
name = macroncomb;
transform = "{1, 0, 0, 1, 116, 0}";
}
);
layerId = "EEC59083-BA83-4EFB-8B50-D01213A5FD15";
width = 571;
}
);
leftKerningGroup = o;
rightKerningGroup = e;
unicode = 0113;
},
{
color = 6;
glyphname = eogonek;
layers = (
{
background = {
paths = (
{
closed = 1;
nodes = (
"157 -127 LINE",
"157 -89 LINE",
"193 -28 LINE",
"220 -6 LINE",
"183 2 LINE",
"121 39 LINE",
"75 95 LINE",
"49 167 LINE",
"49 211 LINE",
"49 281 LINE",
"99 395 LINE",
"184 476 LINE",
"296 521 LINE",
"358 521 LINE",
"407 521 LINE",
"490 486 LINE",
"550 428 LINE",
"584 352 LINE",
"584 311 LINE",
"584 291 LINE",
"576 236 LINE",
"569 215 LINE",
"208 215 LINE",
"209 203 LINE",
"215 182 LINE",
"220 172 LINE",
"225 163 LINE",
"241 147 LINE",
"261 136 LINE",
"287 130 LINE",
"303 130 LINE",
"342 130 LINE",
"398 160 LINE",
"425 183 LINE",
"452 160 LINE",
"505 112 LINE",
"532 89 LINE",
"478 31 LINE",
"402 6 LINE",
"377 -4 LINE",
"330 -29 LINE",
"294 -57 LINE",
"272 -89 LINE",
"272 -105 LINE",
"272 -124 LINE",
"296 -138 LINE",
"307 -138 LINE",
"326 -138 LINE",
"352 -132 LINE",
"362 -127 LINE",
"368 -148 LINE",
"380 -189 LINE",
"386 -210 LINE",
"375 -216 LINE",
"325 -230 LINE",
"299 -230 LINE",
"269 -230 LINE",
"218 -216 LINE",
"179 -190 LINE",
"157 -152 LINE"
);
},
{
closed = 1;
nodes = (
"342 395 LINE",
"303 395 LINE",
"239 359 LINE",
"225 325 LINE",
"437 325 LINE",
"436 338 LINE",
"421 363 LINE",
"396 383 LINE",
"362 395 LINE"
);
},
{
closed = 1;
nodes = (
"-1 760 LINE",
"574 760 LINE",
"574 0 LINE",
"-1 0 LINE"
);
}
);
};
layerId = "8956C7A5-95B5-4256-B2D2-E489185594C4";
paths = (
{
closed = 1;
nodes = (
"335 47 LINE",
"261 31 OFFCURVE",
"157 -27 OFFCURVE",
"157 -127 CURVE SMOOTH",
"157 -193 OFFCURVE",
"220 -230 OFFCURVE",
"299 -230 CURVE SMOOTH",
"334 -230 OFFCURVE",
"372 -218 OFFCURVE",
"386 -210 CURVE",
"362 -127 LINE",
"349 -133 OFFCURVE",
"332 -138 OFFCURVE",
"307 -138 CURVE SMOOTH",
"293 -138 OFFCURVE",
"272 -130 OFFCURVE",
"272 -105 CURVE SMOOTH",
"272 -61 OFFCURVE",
"335 -20 OFFCURVE",
"402 6 CURVE"
);
},
{
closed = 1;
nodes = (
"111 215 LINE",
"569 215 LINE",
"578 243 OFFCURVE",
"584 285 OFFCURVE",
"584 311 CURVE SMOOTH",
"584 421 OFFCURVE",
"489 521 OFFCURVE",
"358 521 CURVE SMOOTH",
"193 521 OFFCURVE",
"49 397 OFFCURVE",
"49 211 CURVE SMOOTH",
"49 73 OFFCURVE",
"153 -13 OFFCURVE",
"280 -13 CURVE SMOOTH",
"378 -13 OFFCURVE",
"467 19 OFFCURVE",
"532 89 CURVE",
"425 183 LINE",
"389 152 OFFCURVE",
"355 130 OFFCURVE",
"303 130 CURVE SMOOTH",
"233 130 OFFCURVE",
"205 176 OFFCURVE",
"208 232 CURVE SMOOTH",
"208 241 OFFCURVE",
"218 284 OFFCURVE",
"218 286 CURVE SMOOTH",
"219 355 OFFCURVE",
"277 395 OFFCURVE",
"342 395 CURVE SMOOTH",
"396 395 OFFCURVE",
"434 360 OFFCURVE",
"437 325 CURVE",
"137 325 LINE"
);
}
);
width = 575;
},
{
background = {
paths = (
{
closed = 1;
nodes = (
"158 -127 LINE",
"158 -89 LINE",
"194 -28 LINE",
"221 -6 LINE",
"184 2 LINE",
"122 39 LINE",
"76 95 LINE",
"50 167 LINE",
"50 211 LINE",
"50 281 LINE",
"100 395 LINE",
"185 476 LINE",
"297 521 LINE",
"359 521 LINE",
"408 521 LINE",
"491 486 LINE",
"551 428 LINE",
"585 352 LINE",
"585 311 LINE",
"585 291 LINE",
"577 236 LINE",
"570 215 LINE",
"209 215 LINE",
"210 203 LINE",
"216 182 LINE",
"221 172 LINE",
"226 163 LINE",
"242 147 LINE",
"262 136 LINE",
"288 130 LINE",
"304 130 LINE",
"343 130 LINE",
"399 160 LINE",
"426 183 LINE",
"453 160 LINE",
"506 112 LINE",
"533 89 LINE",
"479 31 LINE",
"403 6 LINE",
"378 -4 LINE",
"331 -29 LINE",
"295 -57 LINE",
"273 -89 LINE",
"273 -105 LINE",
"273 -124 LINE",
"297 -138 LINE",
"308 -138 LINE",
"327 -138 LINE",
"353 -132 LINE",
"363 -127 LINE",
"369 -148 LINE",
"381 -189 LINE",
"387 -210 LINE",
"376 -216 LINE",
"326 -230 LINE",
"300 -230 LINE",
"270 -230 LINE",
"219 -216 LINE",
"180 -190 LINE",
"158 -152 LINE"
);
},
{
closed = 1;
nodes = (
"343 395 LINE",
"304 395 LINE",
"240 359 LINE",
"226 325 LINE",
"438 325 LINE",
"437 338 LINE",
"422 363 LINE",
"397 383 LINE",
"363 395 LINE"
);
},
{
closed = 1;
nodes = (
"0 760 LINE",
"575 760 LINE",
"575 0 LINE",
"0 0 LINE"
);
}
);
};
layerId = "EEC59083-BA83-4EFB-8B50-D01213A5FD15";
paths = (
{
closed = 1;
nodes = (
"358 47 LINE",
"301 32 OFFCURVE",
"185 -27 OFFCURVE",
"185 -127 CURVE SMOOTH",
"185 -193 OFFCURVE",
"243 -230 OFFCURVE",
"322 -230 CURVE SMOOTH",
"359 -230 OFFCURVE",
"392 -219 OFFCURVE",
"409 -209 CURVE",
"388 -147 LINE",
"375 -153 OFFCURVE",
"350 -158 OFFCURVE",
"325 -158 CURVE SMOOTH",
"292 -158 OFFCURVE",
"270 -137 OFFCURVE",
"270 -110 CURVE SMOOTH",
"270 -61 OFFCURVE",
"318 -28 OFFCURVE",
"404 11 CURVE"
);
},
{
closed = 1;
nodes = (
"108 236 LINE",
"545 236 LINE",
"550 262 OFFCURVE",
"554 294 OFFCURVE",
"554 327 CURVE SMOOTH",
"554 427 OFFCURVE",
"479 521 OFFCURVE",
"350 521 CURVE SMOOTH",
"183 521 OFFCURVE",
"57 385 OFFCURVE",
"57 217 CURVE SMOOTH",
"57 71 OFFCURVE",
"156 -15 OFFCURVE",
"281 -15 CURVE SMOOTH",
"369 -15 OFFCURVE",
"451 22 OFFCURVE",
"495 80 CURVE",
"423 133 LINE",
"391 93 OFFCURVE",
"341 71 OFFCURVE",
"289 71 CURVE SMOOTH",
"211 71 OFFCURVE",
"155 133 OFFCURVE",
"155 215 CURVE SMOOTH",
"155 223 OFFCURVE",
"156 231 OFFCURVE",
"157 246 CURVE SMOOTH",
"163 348 OFFCURVE",
"236 438 OFFCURVE",
"337 438 CURVE SMOOTH",
"411 438 OFFCURVE",
"462 396 OFFCURVE",
"460 315 CURVE",
"124 315 LINE"
);
}
);
width = 571;
}
);
leftKerningGroup = o;
rightKerningGroup = e;
unicode = 0119;
},
{
glyphname = f;
layers = (
{
anchors = (
{
name = top;
position = "{328, 760}";
}
);
layerId = "EEC59083-BA83-4EFB-8B50-D01213A5FD15";
paths = (
{
closed = 1;
nodes = (
"56 422 LINE",
"160 422 LINE",
"11 -230 LINE",
"110 -230 LINE",
"259 422 LINE",
"396 422 LINE",
"416 506 LINE",
"278 506 LINE",
"298 590 LINE SMOOTH",
"314 660 OFFCURVE",
"352 686 OFFCURVE",
"404 686 CURVE SMOOTH",
"438 686 OFFCURVE",
"470 676 OFFCURVE",
"487 665 CURVE",
"537 740 LINE",
"514 753 OFFCURVE",
"470 770 OFFCURVE",
"408 770 CURVE SMOOTH",
"305 770 OFFCURVE",
"229 720 OFFCURVE",
"200 595 CURVE",
"179 506 LINE",
"76 506 LINE"
);
}
);
width = 395;
},
{
anchors = (
{
name = top;
position = "{336, 760}";
}
);
layerId = "8956C7A5-95B5-4256-B2D2-E489185594C4";
paths = (
{
closed = 1;
nodes = (
"40 363 LINE",
"138 363 LINE",
"-1 -230 LINE",
"164 -230 LINE",
"302 363 LINE",
"411 363 LINE",
"444 506 LINE",
"336 506 LINE",
"351 571 LINE SMOOTH",
"360 609 OFFCURVE",
"389 629 OFFCURVE",
"418 629 CURVE SMOOTH",
"443 629 OFFCURVE",
"454 623 OFFCURVE",
"465 612 CURVE",
"555 725 LINE",
"544 743 OFFCURVE",
"496 771 OFFCURVE",
"421 771 CURVE SMOOTH",
"311 771 OFFCURVE",
"220 716 OFFCURVE",
"191 589 CURVE",
"172 506 LINE",
"73 506 LINE"
);
}
);
width = 391;
}
);
leftKerningGroup = f;
rightKerningGroup = f;
unicode = 0066;
},
{
glyphname = g;
layers = (
{
anchors = (
{
name = bottom;
position = "{117, -230}";
},
{
name = top;
position = "{278, 506}";
}
);
layerId = "EEC59083-BA83-4EFB-8B50-D01213A5FD15";
paths = (
{
closed = 1;
nodes = (
"308 22 LINE",
"278 -109 OFFCURVE",
"219 -144 OFFCURVE",
"125 -144 CURVE SMOOTH",
"64 -144 OFFCURVE",
"4 -119 OFFCURVE",
"-27 -86 CURVE",
"-90 -157 LINE",
"-41 -207 OFFCURVE",
"45 -230 OFFCURVE",
"117 -230 CURVE SMOOTH",
"274 -230 OFFCURVE",
"364 -163 OFFCURVE",
"403 6 CURVE SMOOTH",
"519 506 LINE",
"420 506 LINE",
"413 479 LINE",
"386 503 OFFCURVE",
"341 519 OFFCURVE",
"292 519 CURVE SMOOTH",
"121 519 OFFCURVE",
"-21 387 OFFCURVE",
"-21 198 CURVE SMOOTH",
"-21 82 OFFCURVE",
"66 -9 OFFCURVE",
"177 -9 CURVE SMOOTH",
"227 -9 OFFCURVE",
"269 3 OFFCURVE",
"310 31 CURVE"
);
},
{
closed = 1;
nodes = (
"129 75 OFFCURVE",
"80 125 OFFCURVE",
"80 208 CURVE SMOOTH",
"80 351 OFFCURVE",
"185 435 OFFCURVE",
"285 435 CURVE SMOOTH",
"342 435 OFFCURVE",
"378 417 OFFCURVE",
"394 396 CURVE",
"332 125 LINE",
"294 94 OFFCURVE",
"249 75 OFFCURVE",
"200 75 CURVE SMOOTH"
);
}
);
width = 609;
},
{
anchors = (
{
name = bottom;
position = "{162, -230}";
},
{
name = top;
position = "{289, 506}";
}
);
layerId = "8956C7A5-95B5-4256-B2D2-E489185594C4";
paths = (
{
closed = 1;
nodes = (
"319 24 LINE",
"298 -65 OFFCURVE",
"235 -85 OFFCURVE",
"169 -85 CURVE SMOOTH",
"110 -85 OFFCURVE",
"58 -64 OFFCURVE",
"19 -36 CURVE",
"-67 -165 LINE",
"-17 -204 OFFCURVE",
"59 -230 OFFCURVE",
"162 -230 CURVE SMOOTH",
"319 -230 OFFCURVE",
"438 -178 OFFCURVE",
"484 21 CURVE SMOOTH",
"599 518 LINE",
"433 518 LINE",
"425 483 LINE",
"401 501 OFFCURVE",
"351 518 OFFCURVE",
"303 518 CURVE SMOOTH",
"126 518 OFFCURVE",
"-11 388 OFFCURVE",
"-11 214 CURVE SMOOTH",
"-11 73 OFFCURVE",
"97 0 OFFCURVE",
"200 0 CURVE SMOOTH",
"252 0 OFFCURVE",
"297 17 OFFCURVE",
"322 39 CURVE"
);
},
{
closed = 1;
nodes = (
"199 146 OFFCURVE",
"157 178 OFFCURVE",
"157 240 CURVE SMOOTH",
"157 314 OFFCURVE",
"218 373 OFFCURVE",
"288 373 CURVE SMOOTH",
"328 373 OFFCURVE",
"370 355 OFFCURVE",
"388 322 CURVE",
"361 208 LINE",
"334 166 OFFCURVE",
"290 146 OFFCURVE",
"249 146 CURVE SMOOTH"
);
}
);
width = 636;
}
);
leftKerningGroup = a;
rightKerningGroup = g;
unicode = 0067;
},
{
color = 6;
glyphname = gbreve;
layers = (
{
background = {
paths = (
{
closed = 1;
nodes = (
"379 39 LINE",
"361 23 LINE",
"330 12 LINE",
"297 0 LINE",
"257 0 LINE",
"218 0 LINE",
"143 27 LINE",
"83 81 LINE",
"46 161 LINE",
"46 214 LINE",
"46 279 LINE",
"94 391 LINE",
"179 472 LINE",
"293 518 LINE",
"360 518 LINE",
"379 518 LINE",
"417 512 LINE",
"450 501 LINE",
"482 483 LINE",
"490 518 LINE",
"656 518 LINE",
"541 21 LINE",
"524 -54 LINE",
"463 -151 LINE",
"380 -208 LINE",
"278 -230 LINE",
"219 -230 LINE",
"142 -230 LINE",
"28 -194 LINE",
"-10 -165 LINE",
"76 -36 LINE",
"105 -57 LINE",
"182 -85 LINE",
"226 -85 LINE",
"251 -85 LINE",
"298 -76 LINE",
"338 -52 LINE",
"368 -9 LINE",
"376 24 LINE"
);
},
{
closed = 1;
nodes = (
"399 185 LINE",
"410 195 LINE",
"418 208 LINE",
"445 322 LINE",
"428 348 LINE",
"396 365 LINE",
"363 373 LINE",
"345 373 LINE",
"319 373 LINE",
"271 352 LINE",
"235 316 LINE",
"214 268 LINE",
"214 240 LINE",
"214 217 LINE",
"229 182 LINE",
"254 158 LINE",
"287 146 LINE",
"306 146 LINE",
"322 146 LINE",
"355 154 LINE",
"386 171 LINE"
);
},
{
closed = 1;
nodes = (
"357 565 LINE",
"311 565 LINE",
"240 586 LINE",
"188 626 LINE",
"153 685 LINE",
"141 723 LINE",
"264 723 LINE",
"274 694 LINE",
"320 663 LINE",
"357 663 LINE",
"392 663 LINE",
"437 691 LINE",
"449 723 LINE",
"571 723 LINE",
"561 686 LINE",
"525 627 LINE",
"473 586 LINE",
"403 565 LINE"
);
},
{
closed = 1;
nodes = (
"0 760 LINE",
"636 760 LINE",
"636 0 LINE",
"0 0 LINE"
);
}
);
};
components = (
{
name = g;
},
{
name = brevecomb;
transform = "{1, 0, 0, 1, 76, 0}";
}
);
layerId = "8956C7A5-95B5-4256-B2D2-E489185594C4";
width = 636;
},
{
background = {
paths = (
{
closed = 1;
nodes = (
"379 39 LINE",
"361 23 LINE",
"330 12 LINE",
"297 0 LINE",
"257 0 LINE",
"218 0 LINE",
"143 27 LINE",
"83 81 LINE",
"46 161 LINE",
"46 214 LINE",
"46 279 LINE",
"94 391 LINE",
"179 472 LINE",
"293 518 LINE",
"360 518 LINE",
"379 518 LINE",
"417 512 LINE",
"450 501 LINE",
"482 483 LINE",
"490 518 LINE",
"656 518 LINE",
"541 21 LINE",
"524 -54 LINE",
"463 -151 LINE",
"380 -208 LINE",
"278 -230 LINE",
"219 -230 LINE",
"142 -230 LINE",
"28 -194 LINE",
"-10 -165 LINE",
"76 -36 LINE",
"105 -57 LINE",
"182 -85 LINE",
"226 -85 LINE",
"251 -85 LINE",
"298 -76 LINE",
"338 -52 LINE",
"368 -9 LINE",
"376 24 LINE"
);
},
{
closed = 1;
nodes = (
"399 185 LINE",
"410 195 LINE",
"418 208 LINE",
"445 322 LINE",
"428 348 LINE",
"396 365 LINE",
"363 373 LINE",
"345 373 LINE",
"319 373 LINE",
"271 352 LINE",
"235 316 LINE",
"214 268 LINE",
"214 240 LINE",
"214 217 LINE",
"229 182 LINE",
"254 158 LINE",
"287 146 LINE",
"306 146 LINE",
"322 146 LINE",
"355 154 LINE",
"386 171 LINE"
);
},
{
closed = 1;
nodes = (
"357 565 LINE",
"311 565 LINE",
"240 586 LINE",
"188 626 LINE",
"153 685 LINE",
"141 723 LINE",
"264 723 LINE",
"274 694 LINE",
"320 663 LINE",
"357 663 LINE",
"392 663 LINE",
"437 691 LINE",
"449 723 LINE",
"571 723 LINE",
"561 686 LINE",
"525 627 LINE",
"473 586 LINE",
"403 565 LINE"
);
},
{
closed = 1;
nodes = (
"0 760 LINE",
"636 760 LINE",
"636 0 LINE",
"0 0 LINE"
);
}
);
};
components = (
{
name = g;
},
{
name = brevecomb;
transform = "{1, 0, 0, 1, -15, 0}";
}
);
layerId = "EEC59083-BA83-4EFB-8B50-D01213A5FD15";
width = 609;
}
);
leftKerningGroup = a;
rightKerningGroup = g;
unicode = 011F;
},
{
color = 6;
glyphname = gcommaaccent;
layers = (
{
background = {
paths = (
{
closed = 1;
nodes = (
"379 39 LINE",
"361 23 LINE",
"330 12 LINE",
"297 0 LINE",
"257 0 LINE",
"218 0 LINE",
"143 27 LINE",
"83 81 LINE",
"46 161 LINE",
"46 214 LINE",
"46 279 LINE",
"94 391 LINE",
"179 472 LINE",
"293 518 LINE",
"360 518 LINE",
"379 518 LINE",
"417 512 LINE",
"450 501 LINE",
"482 483 LINE",
"490 518 LINE",
"656 518 LINE",
"541 21 LINE",
"524 -54 LINE",
"463 -151 LINE",
"380 -208 LINE",
"278 -230 LINE",
"219 -230 LINE",
"142 -230 LINE",
"28 -194 LINE",
"-10 -165 LINE",
"76 -36 LINE",
"105 -57 LINE",
"182 -85 LINE",
"226 -85 LINE",
"251 -85 LINE",
"298 -76 LINE",
"338 -52 LINE",
"368 -9 LINE",
"376 24 LINE"
);
},
{
closed = 1;
nodes = (
"399 185 LINE",
"410 195 LINE",
"418 208 LINE",
"445 322 LINE",
"428 348 LINE",
"396 365 LINE",
"363 373 LINE",
"345 373 LINE",
"319 373 LINE",
"271 352 LINE",
"235 316 LINE",
"214 268 LINE",
"214 240 LINE",
"214 217 LINE",
"229 182 LINE",
"254 158 LINE",
"287 146 LINE",
"306 146 LINE",
"322 146 LINE",
"355 154 LINE",
"386 171 LINE"
);
},
{
closed = 1;
nodes = (
"430 543 LINE",
"289 594 LINE",
"385 759 LINE",
"486 724 LINE"
);
},
{
closed = 1;
nodes = (
"0 760 LINE",
"636 760 LINE",
"636 0 LINE",
"0 0 LINE"
);
}
);
};
components = (
{
name = g;
},
{
name = commaaccentcomb;
transform = "{1, 0, 0, 1, 116, -230}";
}
);
layerId = "8956C7A5-95B5-4256-B2D2-E489185594C4";
width = 636;
},
{
background = {
paths = (
{
closed = 1;
nodes = (
"379 39 LINE",
"361 23 LINE",
"330 12 LINE",
"297 0 LINE",
"257 0 LINE",
"218 0 LINE",
"143 27 LINE",
"83 81 LINE",
"46 161 LINE",
"46 214 LINE",
"46 279 LINE",
"94 391 LINE",
"179 472 LINE",
"293 518 LINE",
"360 518 LINE",
"379 518 LINE",
"417 512 LINE",
"450 501 LINE",
"482 483 LINE",
"490 518 LINE",
"656 518 LINE",
"541 21 LINE",
"524 -54 LINE",
"463 -151 LINE",
"380 -208 LINE",
"278 -230 LINE",
"219 -230 LINE",
"142 -230 LINE",
"28 -194 LINE",
"-10 -165 LINE",
"76 -36 LINE",
"105 -57 LINE",
"182 -85 LINE",
"226 -85 LINE",
"251 -85 LINE",
"298 -76 LINE",
"338 -52 LINE",
"368 -9 LINE",
"376 24 LINE"
);
},
{
closed = 1;
nodes = (
"399 185 LINE",
"410 195 LINE",
"418 208 LINE",
"445 322 LINE",
"428 348 LINE",
"396 365 LINE",
"363 373 LINE",
"345 373 LINE",
"319 373 LINE",
"271 352 LINE",
"235 316 LINE",
"214 268 LINE",
"214 240 LINE",
"214 217 LINE",
"229 182 LINE",
"254 158 LINE",
"287 146 LINE",
"306 146 LINE",
"322 146 LINE",
"355 154 LINE",
"386 171 LINE"
);
},
{
closed = 1;
nodes = (
"430 543 LINE",
"289 594 LINE",
"385 759 LINE",
"486 724 LINE"
);
},
{
closed = 1;
nodes = (
"0 760 LINE",
"636 760 LINE",
"636 0 LINE",
"0 0 LINE"
);
}
);
};
components = (
{
name = g;
},
{
name = commaaccentcomb;
transform = "{1, 0, 0, 1, 72, -230}";
}
);
layerId = "EEC59083-BA83-4EFB-8B50-D01213A5FD15";
width = 609;
}
);
leftKerningGroup = a;
rightKerningGroup = g;
unicode = 0123;
},
{
glyphname = h;
layers = (
{
anchors = (
{
name = top;
position = "{294, 740}";
}
);
layerId = "EEC59083-BA83-4EFB-8B50-D01213A5FD15";
paths = (
{
closed = 1;
nodes = (
"424 0 LINE",
"595 0 LINE",
"614 84 LINE",
"542 84 LINE",
"598 325 LINE SMOOTH",
"627 452 OFFCURVE",
"558 515 OFFCURVE",
"454 515 CURVE SMOOTH",
"397 515 OFFCURVE",
"342 491 OFFCURVE",
"294 455 CURVE",
"365 760 LINE",
"169 760 LINE",
"149 676 LINE",
"246 676 LINE",
"91 0 LINE",
"190 0 LINE",
"277 377 LINE",
"319 408 OFFCURVE",
"368 429 OFFCURVE",
"412 429 CURVE SMOOTH",
"483 429 OFFCURVE",
"515 389 OFFCURVE",
"497 313 CURVE"
);
}
);
width = 638;
},
{
anchors = (
{
name = top;
position = "{325, 740}";
}
);
layerId = "8956C7A5-95B5-4256-B2D2-E489185594C4";
paths = (
{
closed = 1;
nodes = (
"410 0 LINE",
"670 0 LINE",
"701 134 LINE",
"608 134 LINE",
"649 312 LINE SMOOTH",
"679 442 OFFCURVE",
"620 521 OFFCURVE",
"506 521 CURVE SMOOTH",
"453 521 OFFCURVE",
"404 499 OFFCURVE",
"361 465 CURVE",
"429 760 LINE",
"167 760 LINE",
"136 626 LINE",
"231 626 LINE",
"87 0 LINE",
"254 0 LINE",
"325 310 LINE",
"366 340 OFFCURVE",
"402 355 OFFCURVE",
"427 355 CURVE SMOOTH",
"463 355 OFFCURVE",
"484 322 OFFCURVE",
"473 272 CURVE"
);
}
);
width = 669;
}
);
leftKerningGroup = I;
rightKerningGroup = n;
unicode = 0068;
},
{
glyphname = idotless;
layers = (
{
anchors = (
{
name = top;
position = "{238, 506}";
}
);
layerId = "EEC59083-BA83-4EFB-8B50-D01213A5FD15";
paths = (
{
closed = 1;
nodes = (
"79 422 LINE",
"169 422 LINE",
"72 0 LINE",
"252 0 LINE",
"271 84 LINE",
"190 84 LINE",
"288 506 LINE",
"99 506 LINE"
);
}
);
width = 319;
},
{
anchors = (
{
name = top;
position = "{258, 506}";
}
);
layerId = "8956C7A5-95B5-4256-B2D2-E489185594C4";
paths = (
{
closed = 1;
nodes = (
"38 372 LINE",
"146 372 LINE",
"60 0 LINE",
"344 0 LINE",
"375 134 LINE",
"258 134 LINE",
"344 506 LINE",
"69 506 LINE"
);
}
);
width = 420;
}
);
leftKerningGroup = idotless;
rightKerningGroup = idotless;
unicode = 0131;
},
{
color = 6;
glyphname = idotless;
layers = (
{
anchors = (
{
name = top;
position = "{258, 506}";
}
);
background = {
paths = (
{
closed = 1;
nodes = (
"69 506 LINE",
"344 506 LINE",
"258 134 LINE",
"375 134 LINE",
"344 0 LINE",
"60 0 LINE",
"146 372 LINE",
"38 372 LINE"
);
},
{
closed = 1;
nodes = (
"0 760 LINE",
"420 760 LINE",
"420 0 LINE",
"0 0 LINE"
);
}
);
};
layerId = "8956C7A5-95B5-4256-B2D2-E489185594C4";
paths = (
{
closed = 1;
nodes = (
"144 0 LINE",
"344 0 LINE",
"375 134 LINE",
"175 134 LINE"
);
},
{
closed = 1;
nodes = (
"38 372 LINE",
"288 372 LINE",
"319 506 LINE",
"69 506 LINE"
);
},
{
closed = 1;
nodes = (
"227 0 LINE",
"344 506 LINE",
"177 506 LINE",
"60 0 LINE"
);
}
);
width = 420;
},
{
anchors = (
{
name = top;
position = "{227, 506}";
}
);
background = {
paths = (
{
closed = 1;
nodes = (
"69 506 LINE",
"344 506 LINE",
"258 134 LINE",
"375 134 LINE",
"344 0 LINE",
"60 0 LINE",
"146 372 LINE",
"38 372 LINE"
);
},
{
closed = 1;
nodes = (
"0 760 LINE",
"420 760 LINE",
"420 0 LINE",
"0 0 LINE"
);
}
);
};
layerId = "EEC59083-BA83-4EFB-8B50-D01213A5FD15";
paths = (
{
closed = 1;
nodes = (
"105 0 LINE",
"250 0 LINE",
"269 84 LINE",
"124 84 LINE"
);
},
{
closed = 1;
nodes = (
"77 422 LINE",
"262 422 LINE",
"282 506 LINE",
"97 506 LINE"
);
},
{
closed = 1;
nodes = (
"169 0 LINE",
"286 506 LINE",
"187 506 LINE",
"70 0 LINE"
);
}
);
width = 354;
}
);
leftKerningGroup = n;
rightKerningGroup = i;
unicode = 0131;
},
{
color = 6;
glyphname = imacron;
layers = (
{
background = {
paths = (
{
closed = 1;
nodes = (
"69 506 LINE",
"344 506 LINE",
"258 134 LINE",
"375 134 LINE",
"344 0 LINE",
"60 0 LINE",
"146 372 LINE",
"38 372 LINE"
);
},
{
closed = 1;
nodes = (
"426 574 LINE",
"90 574 LINE",
"90 679 LINE",
"426 679 LINE"
);
},
{
closed = 1;
nodes = (
"0 760 LINE",
"420 760 LINE",
"420 0 LINE",
"0 0 LINE"
);
}
);
};
components = (
{
name = idotless;
},
{
name = macroncomb.i;
transform = "{1, 0, 0, 1, 62, 0}";
}
);
layerId = "8956C7A5-95B5-4256-B2D2-E489185594C4";
width = 420;
},
{
background = {
paths = (
{
closed = 1;
nodes = (
"69 506 LINE",
"344 506 LINE",
"258 134 LINE",
"375 134 LINE",
"344 0 LINE",
"60 0 LINE",
"146 372 LINE",
"38 372 LINE"
);
},
{
closed = 1;
nodes = (
"426 574 LINE",
"90 574 LINE",
"90 679 LINE",
"426 679 LINE"
);
},
{
closed = 1;
nodes = (
"0 760 LINE",
"420 760 LINE",
"420 0 LINE",
"0 0 LINE"
);
}
);
};
components = (
{
name = idotless;
},
{
name = macroncomb.i;
transform = "{1, 0, 0, 1, 32, 0}";
}
);
layerId = "EEC59083-BA83-4EFB-8B50-D01213A5FD15";
width = 354;
}
);
leftKerningGroup = i;
rightKerningGroup = i;
unicode = 012B;
},
{
color = 6;
glyphname = iogonek;
layers = (
{
background = {
paths = (
{
closed = 1;
nodes = (
"42 506 LINE",
"302 506 LINE",
"216 134 LINE",
"309 134 LINE",
"278 0 LINE",
"212 0 LINE",
"184 -1 LINE",
"124 -19 LINE",
"73 -49 LINE",
"40 -87 LINE",
"40 -106 LINE",
"40 -125 LINE",
"67 -139 LINE",
"78 -139 LINE",
"97 -139 LINE",
"120 -133 LINE",
"130 -128 LINE",
"154 -211 LINE",
"143 -217 LINE",
"93 -231 LINE",
"67 -231 LINE",
"37 -231 LINE",
"-14 -217 LINE",
"-53 -191 LINE",
"-75 -153 LINE",
"-75 -128 LINE",
"-75 -89 LINE",
"-22 -23 LINE",
"18 0 LINE",
"104 372 LINE",
"11 372 LINE"
);
},
{
closed = 1;
nodes = (
"153 669 LINE",
"153 705 LINE",
"203 756 LINE",
"240 756 LINE",
"258 756 LINE",
"289 742 LINE",
"312 719 LINE",
"326 687 LINE",
"326 669 LINE",
"326 651 LINE",
"312 619 LINE",
"289 596 LINE",
"258 582 LINE",
"240 582 LINE",
"203 582 LINE",
"153 633 LINE"
);
},
{
closed = 1;
nodes = (
"-59 760 LINE",
"321 760 LINE",
"321 0 LINE",
"-59 0 LINE"
);
}
);
};
layerId = "8956C7A5-95B5-4256-B2D2-E489185594C4";
paths = (
{
closed = 1;
nodes = (
"178 46 LINE",
"72 46 OFFCURVE",
"-75 -28 OFFCURVE",
"-75 -128 CURVE SMOOTH",
"-75 -194 OFFCURVE",
"-12 -231 OFFCURVE",
"67 -231 CURVE SMOOTH",
"102 -231 OFFCURVE",
"140 -219 OFFCURVE",
"154 -211 CURVE",
"130 -128 LINE",
"117 -134 OFFCURVE",
"103 -139 OFFCURVE",
"78 -139 CURVE SMOOTH",
"64 -139 OFFCURVE",
"40 -131 OFFCURVE",
"40 -106 CURVE SMOOTH",
"40 -53 OFFCURVE",
"143 0 OFFCURVE",
"218 0 CURVE"
);
},
{
closed = 1;
nodes = (
"78 0 LINE",
"278 0 LINE",
"309 134 LINE",
"109 134 LINE"
);
},
{
closed = 1;
nodes = (
"11 372 LINE",
"261 372 LINE",
"292 506 LINE",
"42 506 LINE"
);
},
{
closed = 1;
nodes = (
"185 0 LINE",
"302 506 LINE",
"135 506 LINE",
"18 0 LINE"
);
},
{
closed = 1;
nodes = (
"153 621 OFFCURVE",
"191 582 OFFCURVE",
"240 582 CURVE SMOOTH",
"287 582 OFFCURVE",
"326 621 OFFCURVE",
"326 669 CURVE SMOOTH",
"326 717 OFFCURVE",
"287 756 OFFCURVE",
"240 756 CURVE SMOOTH",
"191 756 OFFCURVE",
"153 717 OFFCURVE",
"153 669 CURVE SMOOTH"
);
}
);
width = 380;
},
{
background = {
paths = (
{
closed = 1;
nodes = (
"56 506 LINE",
"316 506 LINE",
"230 134 LINE",
"323 134 LINE",
"292 0 LINE",
"226 0 LINE",
"198 -1 LINE",
"138 -19 LINE",
"87 -49 LINE",
"54 -87 LINE",
"54 -106 LINE",
"54 -125 LINE",
"81 -139 LINE",
"92 -139 LINE",
"111 -139 LINE",
"134 -133 LINE",
"144 -128 LINE",
"168 -211 LINE",
"157 -217 LINE",
"107 -231 LINE",
"81 -231 LINE",
"51 -231 LINE",
"0 -217 LINE",
"-39 -191 LINE",
"-61 -153 LINE",
"-61 -128 LINE",
"-61 -89 LINE",
"-8 -23 LINE",
"32 0 LINE",
"118 372 LINE",
"25 372 LINE"
);
},
{
closed = 1;
nodes = (
"167 669 LINE",
"167 705 LINE",
"217 756 LINE",
"254 756 LINE",
"272 756 LINE",
"303 742 LINE",
"326 719 LINE",
"340 687 LINE",
"340 669 LINE",
"340 651 LINE",
"326 619 LINE",
"303 596 LINE",
"272 582 LINE",
"254 582 LINE",
"217 582 LINE",
"167 633 LINE"
);
},
{
closed = 1;
nodes = (
"-45 760 LINE",
"335 760 LINE",
"335 0 LINE",
"-45 0 LINE"
);
}
);
};
layerId = "EEC59083-BA83-4EFB-8B50-D01213A5FD15";
paths = (
{
closed = 1;
nodes = (
"127 38 LINE",
"56 29 OFFCURVE",
"-51 -27 OFFCURVE",
"-51 -127 CURVE SMOOTH",
"-51 -193 OFFCURVE",
"7 -230 OFFCURVE",
"86 -230 CURVE SMOOTH",
"123 -230 OFFCURVE",
"156 -219 OFFCURVE",
"173 -209 CURVE",
"152 -147 LINE",
"139 -153 OFFCURVE",
"114 -158 OFFCURVE",
"89 -158 CURVE SMOOTH",
"56 -158 OFFCURVE",
"34 -137 OFFCURVE",
"34 -110 CURVE SMOOTH",
"34 -58 OFFCURVE",
"95 0 OFFCURVE",
"179 0 CURVE"
);
},
{
closed = 1;
nodes = (
"61 0 LINE",
"206 0 LINE",
"225 84 LINE",
"80 84 LINE"
);
},
{
closed = 1;
nodes = (
"33 422 LINE",
"218 422 LINE",
"238 506 LINE",
"53 506 LINE"
);
},
{
closed = 1;
nodes = (
"125 0 LINE",
"242 506 LINE",
"143 506 LINE",
"26 0 LINE"
);
},
{
closed = 1;
nodes = (
"146 649 OFFCURVE",
"175 618 OFFCURVE",
"211 618 CURVE SMOOTH",
"246 618 OFFCURVE",
"275 649 OFFCURVE",
"275 684 CURVE SMOOTH",
"275 719 OFFCURVE",
"246 748 OFFCURVE",
"211 748 CURVE SMOOTH",
"175 748 OFFCURVE",
"146 719 OFFCURVE",
"146 684 CURVE SMOOTH"
);
}
);
width = 354;
}
);
leftKerningGroup = i;
rightKerningGroup = i;
unicode = 012F;
},
{
glyphname = jdotless;
layers = (
{
anchors = (
{
name = bottom;
position = "{105, 0}";
},
{
name = top;
position = "{221, 506}";
}
);
layerId = "EEC59083-BA83-4EFB-8B50-D01213A5FD15";
paths = (
{
closed = 1;
nodes = (
"71 422 LINE",
"170 422 LINE",
"66 -28 LINE",
"49 -103 OFFCURVE",
"13 -151 OFFCURVE",
"-45 -159 CURVE",
"-53 -230 LINE",
"56 -227 OFFCURVE",
"136 -156 OFFCURVE",
"163 -37 CURVE SMOOTH",
"289 506 LINE",
"91 506 LINE"
);
}
);
width = 326;
},
{
anchors = (
{
name = bottom;
position = "{115, 0}";
},
{
name = top;
position = "{231, 506}";
}
);
layerId = "8956C7A5-95B5-4256-B2D2-E489185594C4";
paths = (
{
closed = 1;
nodes = (
"55 372 LINE",
"169 372 LINE",
"79 -16 LINE",
"67 -71 OFFCURVE",
"27 -100 OFFCURVE",
"-16 -100 CURVE",
"-35 -229 LINE",
"114 -229 OFFCURVE",
"209 -165 OFFCURVE",
"247 -1 CURVE SMOOTH",
"364 506 LINE",
"86 506 LINE"
);
}
);
width = 345;
}
);
leftKerningGroup = jdotless;
rightKerningGroup = jdotless;
unicode = 0237;
},
{
glyphname = k;
layers = (
{
anchors = (
{
name = bottom;
position = "{301, 0}";
},
{
name = top;
position = "{304, 760}";
}
);
layerId = "EEC59083-BA83-4EFB-8B50-D01213A5FD15";
paths = (
{
closed = 1;
nodes = (
"149 676 LINE",
"239 676 LINE",
"84 0 LINE",
"183 0 LINE",
"236 229 LINE",
"295 229 LINE",
"447 0 LINE",
"554 0 LINE",
"573 83 LINE",
"512 83 LINE",
"390 261 LINE",
"579 422 LINE",
"632 422 LINE",
"652 506 LINE",
"488 506 LINE",
"470 430 LINE",
"304 289 LINE",
"249 289 LINE",
"358 760 LINE",
"169 760 LINE"
);
}
);
width = 603;
},
{
anchors = (
{
name = bottom;
position = "{331, 0}";
},
{
name = top;
position = "{355, 760}";
}
);
layerId = "8956C7A5-95B5-4256-B2D2-E489185594C4";
paths = (
{
closed = 1;
nodes = (
"136 626 LINE",
"233 626 LINE",
"89 0 LINE",
"255 0 LINE",
"300 198 LINE",
"363 198 LINE",
"459 0 LINE",
"606 0 LINE",
"637 134 LINE",
"561 134 LINE",
"495 263 LINE",
"610 372 LINE",
"678 372 LINE",
"709 506 LINE",
"486 506 LINE",
"465 416 LINE",
"387 333 LINE",
"331 333 LINE",
"430 760 LINE",
"167 760 LINE"
);
}
);
width = 640;
}
);
leftKerningGroup = I;
rightKerningGroup = k;
unicode = 006B;
},
{
color = 6;
glyphname = kcommaaccent;
layers = (
{
background = {
paths = (
{
closed = 1;
nodes = (
"128 760 LINE",
"391 760 LINE",
"292 333 LINE",
"348 333 LINE",
"426 416 LINE",
"447 506 LINE",
"670 506 LINE",
"639 372 LINE",
"571 372 LINE",
"456 263 LINE",
"522 134 LINE",
"598 134 LINE",
"567 0 LINE",
"420 0 LINE",
"324 198 LINE",
"261 198 LINE",
"216 0 LINE",
"50 0 LINE",
"194 626 LINE",
"97 626 LINE"
);
},
{
closed = 1;
nodes = (
"277 -14 LINE",
"418 -65 LINE",
"322 -230 LINE",
"222 -195 LINE"
);
},
{
closed = 1;
nodes = (
"0 760 LINE",
"640 760 LINE",
"640 0 LINE",
"0 0 LINE"
);
}
);
};
components = (
{
name = k;
},
{
name = commaaccentcomb;
transform = "{1, 0, 0, 1, 285, 0}";
}
);
layerId = "8956C7A5-95B5-4256-B2D2-E489185594C4";
width = 640;
},
{
background = {
paths = (
{
closed = 1;
nodes = (
"128 760 LINE",
"391 760 LINE",
"292 333 LINE",
"348 333 LINE",
"426 416 LINE",
"447 506 LINE",
"670 506 LINE",
"639 372 LINE",
"571 372 LINE",
"456 263 LINE",
"522 134 LINE",
"598 134 LINE",
"567 0 LINE",
"420 0 LINE",
"324 198 LINE",
"261 198 LINE",
"216 0 LINE",
"50 0 LINE",
"194 626 LINE",
"97 626 LINE"
);
},
{
closed = 1;
nodes = (
"277 -14 LINE",
"418 -65 LINE",
"322 -230 LINE",
"222 -195 LINE"
);
},
{
closed = 1;
nodes = (
"0 760 LINE",
"640 760 LINE",
"640 0 LINE",
"0 0 LINE"
);
}
);
};
components = (
{
name = k;
},
{
name = commaaccentcomb;
transform = "{1, 0, 0, 1, 256, 0}";
}
);
layerId = "EEC59083-BA83-4EFB-8B50-D01213A5FD15";
width = 603;
}
);
leftKerningGroup = h;
rightKerningGroup = k;
unicode = 0137;
},
{
glyphname = l;
layers = (
{
anchors = (
{
name = bottom;
position = "{181, 0}";
},
{
name = center;
position = "{226, 380}";
},
{
name = top;
position = "{287, 760}";
},
{
name = topright;
position = "{367, 506}";
}
);
layerId = "EEC59083-BA83-4EFB-8B50-D01213A5FD15";
paths = (
{
closed = 1;
nodes = (
"149 676 LINE",
"246 676 LINE",
"91 0 LINE",
"274 0 LINE",
"293 84 LINE",
"209 84 LINE",
"365 760 LINE",
"169 760 LINE"
);
}
);
width = 318;
},
{
anchors = (
{
name = bottom;
position = "{199, 0}";
},
{
name = center;
position = "{261, 389}";
},
{
name = top;
position = "{320, 760}";
},
{
name = topright;
position = "{423, 506}";
}
);
layerId = "8956C7A5-95B5-4256-B2D2-E489185594C4";
paths = (
{
closed = 1;
nodes = (
"136 626 LINE",
"233 626 LINE",
"89 0 LINE",
"347 0 LINE",
"378 134 LINE",
"286 134 LINE",
"430 760 LINE",
"167 760 LINE"
);
}
);
width = 356;
}
);
leftKerningGroup = I;
rightKerningGroup = l;
unicode = 006C;
},
